M48
; DRILL file {KiCad 7.0.1} date Tue Oct 17 18:06:38 2023
; FORMAT={-:-/ absolute / metric / decimal}
; #@! TF.CreationDate,2023-10-17T18:06:38-03:00
; #@! TF.GenerationSoftware,Kicad,Pcbnew,7.0.1
; #@! TF.FileFunction,Plated,1,2,PTH
FMAT,2
METRIC
; #@! TA.AperFunction,Plated,PTH,ComponentDrill
T1C1.000
; #@! TA.AperFunction,Plated,PTH,ComponentDrill
T2C1.520
%
G90
G05
T1
X83.82Y-76.2
X83.82Y-78.74
X83.82Y-81.28
X83.82Y-83.82
X83.82Y-86.36
X83.82Y-88.9
X83.82Y-91.44
X83.82Y-93.98
X101.6Y-76.2
X101.6Y-78.74
X101.6Y-81.28
X101.6Y-83.82
X101.6Y-86.36
X101.6Y-88.9
X101.6Y-91.44
X101.6Y-93.98
X114.3Y-78.71
X114.3Y-81.25
X114.3Y-83.79
X114.3Y-86.33
X114.3Y-88.87
X114.3Y-91.41
X114.3Y-93.95
X114.3Y-96.49
X114.3Y-99.03
X114.3Y-101.57
X114.3Y-104.11
X114.3Y-106.65
X114.3Y-109.19
X114.3Y-111.73
X114.3Y-114.27
X139.7Y-78.74
X139.7Y-81.28
X139.7Y-83.82
X139.7Y-86.36
X139.7Y-88.9
X139.7Y-91.44
X139.7Y-93.98
X139.7Y-96.52
X139.7Y-99.06
X139.7Y-101.6
X139.7Y-104.14
X139.7Y-106.68
X139.7Y-109.22
X139.7Y-111.76
X139.7Y-114.3
X149.86Y-78.74
X152.4Y-78.74
X154.94Y-78.74
X157.48Y-78.74
X165.1Y-109.22
X167.64Y-109.22
X170.18Y-109.22
T2
X149.86Y-109.22
X154.94Y-109.22
T0
M30
