0
SECTION
2
HEADER
9
$INSUNITS
70
4
0
ENDSEC
0
SECTION
2
TABLES
0
TABLE
2
LTYPE
0
LTYPE
72
65
70
64
2
CONTINUOUS
3
______
73
0
40
0
0
ENDTAB
0
TABLE
2
LAYER
0
ENDTAB
0
ENDSEC
0
SECTION
2
ENTITIES
0
LINE
8
front_outsideCutPath
10
0
20
63
11
0
21
51.5625
0
LINE
8
front_outsideCutPath
10
0
20
51.5625
11
3
21
51.5625
0
LINE
8
front_outsideCutPath
10
3
20
51.5625
11
3
21
39.1875
0
LINE
8
front_outsideCutPath
10
3
20
39.1875
11
0
21
39.1875
0
LINE
8
front_outsideCutPath
10
0
20
39.1875
11
0
21
26.8125
0
LINE
8
front_outsideCutPath
10
0
20
26.8125
11
3
21
26.8125
0
LINE
8
front_outsideCutPath
10
3
20
26.8125
11
3
21
14.4375
0
LINE
8
front_outsideCutPath
10
3
20
14.4375
11
0
21
14.4375
0
LINE
8
front_outsideCutPath
10
0
20
14.4375
11
0
21
3
0
LINE
8
front_outsideCutPath
10
0
20
3
11
11.4375
21
3
0
LINE
8
front_outsideCutPath
10
11.4375
20
3
11
11.4375
21
6
0
LINE
8
front_outsideCutPath
10
11.4375
20
6
11
23.8125
21
6
0
LINE
8
front_outsideCutPath
10
23.8125
20
6
11
23.8125
21
3
0
LINE
8
front_outsideCutPath
10
23.8125
20
3
11
36.1875
21
3
0
LINE
8
front_outsideCutPath
10
36.1875
20
3
11
36.1875
21
6
0
LINE
8
front_outsideCutPath
10
36.1875
20
6
11
48.5625
21
6
0
LINE
8
front_outsideCutPath
10
48.5625
20
6
11
48.5625
21
3
0
LINE
8
front_outsideCutPath
10
48.5625
20
3
11
60
21
3
0
LINE
8
front_outsideCutPath
10
60
20
3
11
60
21
14.4375
0
LINE
8
front_outsideCutPath
10
60
20
14.4375
11
57
21
14.4375
0
LINE
8
front_outsideCutPath
10
57
20
14.4375
11
57
21
26.8125
0
LINE
8
front_outsideCutPath
10
57
20
26.8125
11
60
21
26.8125
0
LINE
8
front_outsideCutPath
10
60
20
26.8125
11
60
21
39.1875
0
LINE
8
front_outsideCutPath
10
60
20
39.1875
11
57
21
39.1875
0
LINE
8
front_outsideCutPath
10
57
20
39.1875
11
57
21
51.5625
0
LINE
8
front_outsideCutPath
10
57
20
51.5625
11
60
21
51.5625
0
LINE
8
front_outsideCutPath
10
60
20
51.5625
11
60
21
63
0
LINE
8
front_outsideCutPath
10
60
20
63
11
48.5625
21
63
0
LINE
8
front_outsideCutPath
10
48.5625
20
63
11
48.5625
21
60
0
LINE
8
front_outsideCutPath
10
48.5625
20
60
11
36.1875
21
60
0
LINE
8
front_outsideCutPath
10
36.1875
20
60
11
36.1875
21
63
0
LINE
8
front_outsideCutPath
10
36.1875
20
63
11
23.8125
21
63
0
LINE
8
front_outsideCutPath
10
23.8125
20
63
11
23.8125
21
60
0
LINE
8
front_outsideCutPath
10
23.8125
20
60
11
11.4375
21
60
0
LINE
8
front_outsideCutPath
10
11.4375
20
60
11
11.4375
21
63
0
LINE
8
front_outsideCutPath
10
11.4375
20
63
11
0
21
63
0
LINE
8
front_labelLayer
10
20.0595703
20
34.8897755
11
20.0595703
21
34.1339161
0
LINE
8
front_labelLayer
10
20.0595703
20
34.1339161
11
18.4248047
21
34.1339161
0
LINE
8
front_labelLayer
10
18.4248047
20
34.1339161
11
18.4248047
21
28.4679005
0
LINE
8
front_labelLayer
10
18.4248047
20
28.4679005
11
17.4521484
21
28.4679005
0
LINE
8
front_labelLayer
10
17.4521484
20
28.4679005
11
17.4521484
21
34.1339161
0
LINE
8
front_labelLayer
10
17.4521484
20
34.1339161
11
16.3037109
21
34.1339161
0
LINE
8
front_labelLayer
10
16.3037109
20
34.1339161
11
16.3037109
21
34.5733692
0
LINE
8
front_labelLayer
10
16.3037109
20
34.5733692
11
17.4521484
21
34.9249317
0
LINE
8
front_labelLayer
10
17.4521484
20
34.9249317
11
17.4521484
21
35.2823536
0
LINE
8
front_labelLayer
10
20.7158203
20
37.444463
11
20.4638672
21
36.6651661
0
LINE
8
front_labelLayer
10
18.4248047
20
35.3057911
11
18.4248047
21
34.8897755
0
LINE
8
front_labelLayer
10
18.4248047
20
34.8897755
11
20.0595703
21
34.8897755
0
ARC
8
front_labelLayer
10
21.3939878
20
35.3276702
40
3.9420999
50
167.5775974
51
180.6586613
0
ARC
8
front_labelLayer
10
19.5402807
20
35.7598479
40
2.0389557
50
141.743391
51
168.2322243
0
ARC
8
front_labelLayer
10
19.2384611
20
35.9173747
40
1.7055856
50
98.2551559
51
139.6203357
0
ARC
8
front_labelLayer
10
19.503465
20
34.693152
40
2.9564382
50
89.6697083
51
99.9314188
0
ARC
8
front_labelLayer
10
19.5042048
20
34.517416
40
3.1321676
50
81.5640907
51
89.7017719
0
ARC
8
front_labelLayer
10
19.2840129
20
32.9812183
40
4.6840533
50
75.9739752
51
81.6565084
0
ARC
8
front_labelLayer
10
18.9061069
20
31.4137627
40
6.2963805
50
73.296369
51
76.0945804
0
ARC
8
front_labelLayer
10
19.0013033
20
32.1741824
40
4.7231375
50
71.9612944
51
76.5918408
0
ARC
8
front_labelLayer
10
19.3677127
20
33.7285213
40
3.1262025
50
76.5183847
51
83.0216341
0
ARC
8
front_labelLayer
10
19.4953612
20
34.7550396
40
2.0917809
50
83.0760469
51
89.7926919
0
ARC
8
front_labelLayer
10
19.4911596
20
35.5351274
40
1.3117322
50
89.4858803
51
103.4197126
0
ARC
8
front_labelLayer
10
19.372899
20
35.9894767
40
0.8423965
50
102.7677687
51
144.338016
0
ARC
8
front_labelLayer
10
19.6111421
20
35.8361886
40
1.1254209
50
145.068818
51
162.180224
0
ARC
8
front_labelLayer
10
20.4280299
20
35.5613466
40
1.9872601
50
161.8437903
51
171.7846869
0
ARC
8
front_labelLayer
10
21.7603363
20
35.3612371
40
3.3344977
50
171.6527557
51
178.438375
0
ARC
8
front_labelLayer
10
23.0170417
20
35.3076542
40
4.5922372
50
178.1973862
51
180.0232457
0
LINE
8
front_labelLayer
10
24.9287109
20
34.9366505
11
24.7939453
21
34.0343067
0
LINE
8
front_labelLayer
10
22.2041016
20
31.913213
11
22.2041016
21
28.4679005
0
LINE
8
front_labelLayer
10
22.2041016
20
28.4679005
11
21.2314453
21
28.4679005
0
LINE
8
front_labelLayer
10
21.2314453
20
28.4679005
11
21.2314453
21
34.8897755
0
LINE
8
front_labelLayer
10
21.2314453
20
34.8897755
11
22.0341797
21
34.8897755
0
LINE
8
front_labelLayer
10
22.0341797
20
34.8897755
11
22.1455078
21
33.7003224
0
LINE
8
front_labelLayer
10
22.1455078
20
33.7003224
11
22.1923828
21
33.7003224
0
ARC
8
front_labelLayer
10
24.1711184
20
30.5416835
40
4.4652907
50
84.9922934
51
90.1281292
0
ARC
8
front_labelLayer
10
24.2783493
20
31.7431005
40
3.2590999
50
78.489206
51
85.026578
0
ARC
8
front_labelLayer
10
23.8621176
20
29.8499731
40
4.2868345
50
77.4454139
51
81.6359922
0
ARC
8
front_labelLayer
10
24.0489014
20
31.1374215
40
2.9859107
50
81.5884597
51
87.1916805
0
ARC
8
front_labelLayer
10
24.0894613
20
31.8407032
40
2.2814946
50
87.3437172
51
89.965871
0
ARC
8
front_labelLayer
10
24.0800408
20
32.4369068
40
1.685325
50
89.633529
51
137.0880829
0
ARC
8
front_labelLayer
10
24.4935173
20
31.9719116
40
2.3055145
50
135.6207307
51
138.8377984
0
ARC
8
front_labelLayer
10
24.4330455
20
32.0309484
40
2.2211354
50
138.9575867
51
174.5422106
0
ARC
8
front_labelLayer
10
25.1564197
20
31.9177634
40
2.9523215
50
173.6907919
51
180.0883096
0
ARC
8
front_labelLayer
10
25.0541573
20
32.0880095
40
3.2847079
50
139.413952
51
150.6032546
0
ARC
8
front_labelLayer
10
24.4651923
20
32.59269
40
2.5090906
50
124.2321211
51
139.416124
0
ARC
8
front_labelLayer
10
24.1502926
20
33.0680316
40
1.9389618
50
89.679674
51
124.4405597
0
ARC
8
front_labelLayer
10
26.6487952
20
31.6508277
40
5.0241705
50
349.1761875
51
0.3862535
0
ARC
8
front_labelLayer
10
28.3403206
20
31.313618
40
3.2994421
50
330.2506911
51
349.411657
0
ARC
8
front_labelLayer
10
28.8608883
20
31.0430451
40
2.7133237
50
318.1439518
51
329.7566409
0
ARC
8
front_labelLayer
10
28.9548346
20
30.967756
40
2.5931213
50
278.8959193
51
317.9979088
0
ARC
8
front_labelLayer
10
28.7127511
20
32.127602
40
3.7769247
50
269.750271
51
279.803316
0
ARC
8
front_labelLayer
10
28.673488
20
31.4740963
40
3.1234665
50
253.5436764
51
270.4182587
0
ARC
8
front_labelLayer
10
28.5695169
20
31.0719084
40
2.7083379
50
238.8115625
51
253.2428149
0
ARC
8
front_labelLayer
10
28.5359573
20
31.0044216
40
2.6332335
50
207.7946953
51
238.6758065
0
ARC
8
front_labelLayer
10
29.0173988
20
31.2992848
40
3.196831
50
205.655927
51
208.4461015
0
ARC
8
front_labelLayer
10
29.388344
20
31.4538548
40
3.5981914
50
188.9102556
51
205.3171442
0
ARC
8
front_labelLayer
10
30.6382393
20
31.6655456
40
4.8658161
50
179.7744843
51
189.0932809
0
ARC
8
front_labelLayer
10
30.8226074
20
31.7189036
40
5.0502623
50
169.2443
51
180.3880763
0
ARC
8
front_labelLayer
10
29.1075757
20
32.0579025
40
3.3021215
50
150.7111397
51
169.4695388
0
ARC
8
front_labelLayer
10
28.5600801
20
32.3390634
40
2.6871631
50
138.1759262
51
150.2287565
0
ARC
8
front_labelLayer
10
28.4690158
20
32.4089443
40
2.5727172
50
99.1759448
51
137.9832664
0
ARC
8
front_labelLayer
10
28.7196775
20
31.229294
40
3.7777102
50
89.7326505
51
100.0759651
0
ARC
8
front_labelLayer
10
28.7697748
20
31.7387497
40
3.2683746
50
73.5222866
51
90.569223
0
ARC
8
front_labelLayer
10
28.9614463
20
32.4351435
40
2.5462523
50
41.1445648
51
73.2133944
0
ARC
8
front_labelLayer
10
28.5955613
20
32.1206705
40
3.0286962
50
13.5014373
51
41.0703389
0
ARC
8
front_labelLayer
10
27.1819775
20
31.7507542
40
4.4896766
50
1.1277128
51
13.8800049
0
ARC
8
front_labelLayer
10
25.9646367
20
31.6855044
40
5.708215
50
359.9918997
51
1.5420485
0
ARC
8
front_labelLayer
10
31.7057468
20
31.6594215
40
4.9255382
50
179.7059797
51
187.9160518
0
ARC
8
front_labelLayer
10
29.8991881
20
31.3999123
40
3.1004651
50
187.7639021
51
200.0976972
0
ARC
8
front_labelLayer
10
28.9039925
20
31.0352714
40
2.0405702
50
200.0846077
51
216.9131468
0
ARC
8
front_labelLayer
10
28.5405748
20
30.775775
40
1.5941828
50
217.3009662
51
261.7099026
0
ARC
8
front_labelLayer
10
28.7092829
20
31.5808224
40
2.4156789
50
260.5032791
51
270.2477068
0
ARC
8
front_labelLayer
10
28.7414863
20
31.4242865
40
2.2592252
50
269.4481468
51
284.7255902
0
ARC
8
front_labelLayer
10
28.9203358
20
30.7609952
40
1.5722645
50
284.5662271
51
322.6333828
0
ARC
8
front_labelLayer
10
28.5021779
20
31.0630963
40
2.0879971
50
323.0089098
51
342.6390598
0
ARC
8
front_labelLayer
10
27.3061311
20
31.4539973
40
3.346237
50
342.3615989
51
353.7537324
0
ARC
8
front_labelLayer
10
25.5416369
20
31.6666847
40
5.1234339
50
353.5362881
51
0.2014378
0
ARC
8
front_labelLayer
10
25.8119652
20
31.7094675
40
4.8531371
50
359.7075639
51
7.8972796
0
ARC
8
front_labelLayer
10
27.5893237
20
31.9642698
40
3.0576369
50
7.7439775
51
20.0690373
0
ARC
8
front_labelLayer
10
28.5797284
20
32.3277123
40
2.0026542
50
20.0257017
51
37.4350446
0
ARC
8
front_labelLayer
10
28.9083402
20
32.56089
40
1.6000491
50
37.9577657
51
80.4006236
0
ARC
8
front_labelLayer
10
28.721601
20
31.7276763
40
2.4531524
50
79.3453553
51
90.3174832
0
ARC
8
front_labelLayer
10
28.6870237
20
31.8660793
40
2.3148069
50
89.4805965
51
103.8805171
0
ARC
8
front_labelLayer
10
28.4925198
20
32.6067472
40
1.5491469
50
103.468522
51
142.3118961
0
ARC
8
front_labelLayer
10
28.8706456
20
32.3408208
40
2.0110614
50
142.9025417
51
162.3749821
0
ARC
8
front_labelLayer
10
30.0621416
20
31.9437574
40
3.2668997
50
162.0653194
51
173.1674902
0
ARC
8
front_labelLayer
10
31.9200092
20
31.7067979
40
5.1397833
50
173.008626
51
180.2463668
0
LINE
8
front_labelLayer
10
38.7451172
20
28.4679005
11
37.7724609
21
28.4679005
0
LINE
8
front_labelLayer
10
37.7724609
20
28.4679005
11
37.7724609
21
32.6221974
0
LINE
8
front_labelLayer
10
34.3505859
20
31.8370411
11
34.3505859
21
28.4679005
0
LINE
8
front_labelLayer
10
34.3505859
20
28.4679005
11
33.3779297
21
28.4679005
0
LINE
8
front_labelLayer
10
33.3779297
20
28.4679005
11
33.3779297
21
34.8897755
0
LINE
8
front_labelLayer
10
33.3779297
20
34.8897755
11
34.1689453
21
34.8897755
0
LINE
8
front_labelLayer
10
34.1689453
20
34.8897755
11
34.3271484
21
34.0108692
0
LINE
8
front_labelLayer
10
34.3271484
20
34.0108692
11
34.3740234
21
34.0108692
0
LINE
8
front_labelLayer
10
38.7451172
20
32.6573536
11
38.7451172
21
28.4679005
0
ARC
8
front_labelLayer
10
35.0230448
20
32.637964
40
2.7494613
50
359.6714377
51
8.6877277
0
ARC
8
front_labelLayer
10
36.042072
20
32.7995743
40
1.7177251
50
8.4931688
51
22.6579712
0
ARC
8
front_labelLayer
10
36.5598111
20
33.0147295
40
1.1570609
50
22.7024636
51
42.3419466
0
ARC
8
front_labelLayer
10
36.6180091
20
33.0409096
40
1.0965906
50
43.3790826
51
71.5386074
0
ARC
8
front_labelLayer
10
36.4003877
20
32.4328228
40
1.7423518
50
71.0827676
51
84.3691548
0
ARC
8
front_labelLayer
10
36.3026952
20
31.6022038
40
2.5785963
50
84.019816
51
90.1510225
0
ARC
8
front_labelLayer
10
36.2750025
20
31.2370945
40
2.9437708
50
89.59329
51
100.3718138
0
ARC
8
front_labelLayer
10
36.0669686
20
32.3285731
40
1.8326914
50
100.1176426
51
118.1602633
0
ARC
8
front_labelLayer
10
35.8573214
20
32.7396734
40
1.3713426
50
118.5439386
51
139.1926994
0
ARC
8
front_labelLayer
10
36.0401242
20
32.6170106
40
1.5900933
50
140.1519357
51
160.3146409
0
ARC
8
front_labelLayer
10
37.1439845
20
32.203551
40
2.7687713
50
159.9534282
51
171.3801288
0
ARC
8
front_labelLayer
10
38.9471919
20
31.9136926
40
4.595083
50
171.1766023
51
178.3217653
0
ARC
8
front_labelLayer
10
40.5814959
20
31.8396197
40
6.2309104
50
178.0810467
51
180.0237113
0
ARC
8
front_labelLayer
10
36.0379
20
32.9570813
40
1.9695061
50
116.9442908
51
147.6525703
0
ARC
8
front_labelLayer
10
36.2428062
20
32.6143931
40
2.3680009
50
115.8071098
51
117.6068573
0
ARC
8
front_labelLayer
10
36.347704
20
32.3698381
40
2.633859
50
94.3226817
51
115.5454251
0
ARC
8
front_labelLayer
10
36.4107472
20
31.8220789
40
3.1848849
50
89.957926
51
94.7108588
0
ARC
8
front_labelLayer
10
36.4368019
20
31.1668367
40
3.8401995
50
80.5585203
51
90.353845
0
ARC
8
front_labelLayer
10
36.6767911
20
32.5569371
40
2.4295776
50
65.1094033
51
80.7638284
0
ARC
8
front_labelLayer
10
36.9573272
20
33.1783141
40
1.7478587
50
46.5584489
51
64.8782516
0
ARC
8
front_labelLayer
10
36.9797791
20
33.2430404
40
1.6856601
50
19.3848835
51
45.5997148
0
ARC
8
front_labelLayer
10
36.0045752
20
32.8771267
40
2.7271158
50
6.9633496
51
19.8363443
0
ARC
8
front_labelLayer
10
34.5004959
20
32.6749003
40
4.2446576
50
359.7631485
51
7.211566
0
LINE
8
front_labelLayer
10
43.6962891
20
29.2706349
11
43.6962891
21
28.5264942
0
LINE
8
front_labelLayer
10
40.8134766
20
30.3136036
11
40.8134766
21
34.1339161
0
LINE
8
front_labelLayer
10
40.8134766
20
34.1339161
11
39.8935547
21
34.1339161
0
LINE
8
front_labelLayer
10
39.8935547
20
34.1339161
11
39.8935547
21
34.6026661
0
LINE
8
front_labelLayer
10
39.8935547
20
34.6026661
11
40.8134766
21
35.006963
0
LINE
8
front_labelLayer
10
40.8134766
20
35.006963
11
41.2236328
21
36.3780567
0
LINE
8
front_labelLayer
10
41.2236328
20
36.3780567
11
41.7861328
21
36.3780567
0
LINE
8
front_labelLayer
10
41.7861328
20
36.3780567
11
41.7861328
21
34.8897755
0
LINE
8
front_labelLayer
10
41.7861328
20
34.8897755
11
43.6494141
21
34.8897755
0
LINE
8
front_labelLayer
10
43.6494141
20
34.8897755
11
43.6494141
21
34.1339161
0
LINE
8
front_labelLayer
10
43.6494141
20
34.1339161
11
41.7861328
21
34.1339161
0
LINE
8
front_labelLayer
10
41.7861328
20
34.1339161
11
41.7861328
21
30.3546192
0
ARC
8
front_labelLayer
10
42.8240545
20
32.3477753
40
3.1943349
50
269.8803316
51
278.3028128
0
ARC
8
front_labelLayer
10
42.8545795
20
32.0985347
40
2.9433042
50
278.4154565
51
279.0081992
0
ARC
8
front_labelLayer
10
42.4960081
20
34.3892213
40
5.261883
50
278.9590101
51
280.5103943
0
ARC
8
front_labelLayer
10
42.8376466
20
32.5561311
40
3.3972294
50
280.4846699
51
282.6267916
0
ARC
8
front_labelLayer
10
43.1371865
20
31.2253559
40
2.0331605
50
282.58766
51
285.5794473
0
ARC
8
front_labelLayer
10
43.2867347
20
30.6752005
40
1.4630582
50
285.7245036
51
286.256048
0
ARC
8
front_labelLayer
10
43.2873529
20
29.3914164
40
0.9567231
50
287.9889364
51
295.3048339
0
ARC
8
front_labelLayer
10
43.0566165
20
30.0895024
40
1.6919474
50
283.3068834
51
288.1198185
0
ARC
8
front_labelLayer
10
42.8128374
20
31.1063782
40
2.7376329
50
280.0070235
51
283.3735007
0
ARC
8
front_labelLayer
10
42.6496215
20
31.9921374
40
3.6382848
50
279.1865037
51
280.114353
0
ARC
8
front_labelLayer
10
42.5496165
20
32.5610192
40
4.215843
50
275.5260628
51
279.2938845
0
ARC
8
front_labelLayer
10
42.6624496
20
31.3824729
40
3.0319087
50
270.8932098
51
275.5484296
0
ARC
8
front_labelLayer
10
42.6766055
20
30.844244
40
2.4935312
50
270.0034988
51
270.760768
0
ARC
8
front_labelLayer
10
42.6375076
20
30.8908435
40
2.5404337
50
253.7847948
51
270.8852676
0
ARC
8
front_labelLayer
10
42.336534
20
29.8644094
40
1.4707878
50
190.3817671
51
253.8772449
0
ARC
8
front_labelLayer
10
43.8705855
20
30.2791914
40
3.0573026
50
179.3550796
51
192.847783
0
ARC
8
front_labelLayer
10
43.7446949
20
30.3423696
40
1.9586004
50
179.6416535
51
189.7506216
0
ARC
8
front_labelLayer
10
43.0532737
20
30.2190448
40
1.2562889
50
189.5479422
51
205.7873769
0
ARC
8
front_labelLayer
10
42.7691331
20
30.0880196
40
0.9434612
50
206.1294926
51
221.4083587
0
ARC
8
front_labelLayer
10
42.7372679
20
30.0638414
40
0.9035747
50
221.5949308
51
262.3505242
0
ARC
8
front_labelLayer
10
42.8130407
20
30.4534788
40
1.3000387
50
261.3265388
51
270.1913673
0
LINE
8
left_outsideCutPath
10
66
20
63
11
66
21
51.5625
0
LINE
8
left_outsideCutPath
10
66
20
51.5625
11
63
21
51.5625
0
LINE
8
left_outsideCutPath
10
63
20
51.5625
11
63
21
39.1875
0
LINE
8
left_outsideCutPath
10
63
20
39.1875
11
66
21
39.1875
0
LINE
8
left_outsideCutPath
10
66
20
39.1875
11
66
21
26.8125
0
LINE
8
left_outsideCutPath
10
66
20
26.8125
11
63
21
26.8125
0
LINE
8
left_outsideCutPath
10
63
20
26.8125
11
63
21
14.4375
0
LINE
8
left_outsideCutPath
10
63
20
14.4375
11
66
21
14.4375
0
LINE
8
left_outsideCutPath
10
66
20
14.4375
11
66
21
3
0
LINE
8
left_outsideCutPath
10
66
20
3
11
79.6875
21
3
0
LINE
8
left_outsideCutPath
10
79.6875
20
3
11
79.6875
21
6
0
LINE
8
left_outsideCutPath
10
79.6875
20
6
11
92.0625
21
6
0
LINE
8
left_outsideCutPath
10
92.0625
20
6
11
92.0625
21
3
0
LINE
8
left_outsideCutPath
10
92.0625
20
3
11
104.4375
21
3
0
LINE
8
left_outsideCutPath
10
104.4375
20
3
11
104.4375
21
6
0
LINE
8
left_outsideCutPath
10
104.4375
20
6
11
116.8125
21
6
0
LINE
8
left_outsideCutPath
10
116.8125
20
6
11
116.8125
21
3
0
LINE
8
left_outsideCutPath
10
116.8125
20
3
11
129.1875
21
3
0
LINE
8
left_outsideCutPath
10
129.1875
20
3
11
129.1875
21
6
0
LINE
8
left_outsideCutPath
10
129.1875
20
6
11
141.5625
21
6
0
LINE
8
left_outsideCutPath
10
141.5625
20
6
11
141.5625
21
3
0
LINE
8
left_outsideCutPath
10
141.5625
20
3
11
153.9375
21
3
0
LINE
8
left_outsideCutPath
10
153.9375
20
3
11
153.9375
21
6
0
LINE
8
left_outsideCutPath
10
153.9375
20
6
11
166.3125
21
6
0
LINE
8
left_outsideCutPath
10
166.3125
20
6
11
166.3125
21
3
0
LINE
8
left_outsideCutPath
10
166.3125
20
3
11
178.6875
21
3
0
LINE
8
left_outsideCutPath
10
178.6875
20
3
11
180
21
3
0
LINE
8
left_outsideCutPath
10
180
20
3
11
180
21
14.4375
0
LINE
8
left_outsideCutPath
10
180
20
14.4375
11
183
21
14.4375
0
LINE
8
left_outsideCutPath
10
183
20
14.4375
11
183
21
26.8125
0
LINE
8
left_outsideCutPath
10
183
20
26.8125
11
180
21
26.8125
0
LINE
8
left_outsideCutPath
10
180
20
26.8125
11
180
21
39.1875
0
LINE
8
left_outsideCutPath
10
180
20
39.1875
11
183
21
39.1875
0
LINE
8
left_outsideCutPath
10
183
20
39.1875
11
183
21
51.5625
0
LINE
8
left_outsideCutPath
10
183
20
51.5625
11
180
21
51.5625
0
LINE
8
left_outsideCutPath
10
180
20
51.5625
11
180
21
63
0
LINE
8
left_outsideCutPath
10
180
20
63
11
166.3125
21
63
0
LINE
8
left_outsideCutPath
10
166.3125
20
63
11
166.3125
21
60
0
LINE
8
left_outsideCutPath
10
166.3125
20
60
11
153.9375
21
60
0
LINE
8
left_outsideCutPath
10
153.9375
20
60
11
153.9375
21
63
0
LINE
8
left_outsideCutPath
10
153.9375
20
63
11
141.5625
21
63
0
LINE
8
left_outsideCutPath
10
141.5625
20
63
11
141.5625
21
60
0
LINE
8
left_outsideCutPath
10
141.5625
20
60
11
129.1875
21
60
0
LINE
8
left_outsideCutPath
10
129.1875
20
60
11
129.1875
21
63
0
LINE
8
left_outsideCutPath
10
129.1875
20
63
11
116.8125
21
63
0
LINE
8
left_outsideCutPath
10
116.8125
20
63
11
116.8125
21
60
0
LINE
8
left_outsideCutPath
10
116.8125
20
60
11
104.4375
21
60
0
LINE
8
left_outsideCutPath
10
104.4375
20
60
11
104.4375
21
63
0
LINE
8
left_outsideCutPath
10
104.4375
20
63
11
92.0625
21
63
0
LINE
8
left_outsideCutPath
10
92.0625
20
63
11
92.0625
21
60
0
LINE
8
left_outsideCutPath
10
92.0625
20
60
11
79.6875
21
60
0
LINE
8
left_outsideCutPath
10
79.6875
20
60
11
79.6875
21
63
0
LINE
8
left_outsideCutPath
10
79.6875
20
63
11
67.3125
21
63
0
LINE
8
left_outsideCutPath
10
67.3125
20
63
11
66
21
63
0
LINE
8
left_labelLayer
10
115.5791016
20
37.585088
11
115.5791016
21
28.4679005
0
LINE
8
left_labelLayer
10
115.5791016
20
28.4679005
11
114.6064453
21
28.4679005
0
LINE
8
left_labelLayer
10
114.6064453
20
28.4679005
11
114.6064453
21
37.585088
0
LINE
8
left_labelLayer
10
114.6064453
20
37.585088
11
115.5791016
21
37.585088
0
LINE
8
left_labelLayer
10
122.7158203
20
32.1182911
11
122.7158203
21
31.5030567
0
LINE
8
left_labelLayer
10
122.7158203
20
31.5030567
11
118.2919922
21
31.5030567
0
LINE
8
left_labelLayer
10
122.4404297
20
29.6339161
11
122.4404297
21
28.7667286
0
LINE
8
left_labelLayer
10
118.3154297
20
32.2940724
11
121.6728516
21
32.2940724
0
ARC
8
left_labelLayer
10
120.3225102
20
32.1302729
40
3.7796952
50
256.0087872
51
270.4848155
0
ARC
8
left_labelLayer
10
120.0472746
20
31.0617522
40
2.6763442
50
223.546591
51
256.1956946
0
ARC
8
left_labelLayer
10
120.1991096
20
31.1721072
40
2.8625306
50
194.0877348
51
223.0538156
0
ARC
8
left_labelLayer
10
121.5903276
20
31.5525545
40
4.3046172
50
181.35745
51
194.4920037
0
ARC
8
left_labelLayer
10
122.8399277
20
31.625003
40
5.5557479
50
179.9886493
51
181.7991076
0
ARC
8
left_labelLayer
10
122.3914624
20
31.6603632
40
5.1073976
50
168.9539188
51
180.3843335
0
ARC
8
left_labelLayer
10
120.7234077
20
32.0000089
40
3.4051986
50
149.4070986
51
169.1853874
0
ARC
8
left_labelLayer
10
120.2586549
20
32.2455662
40
2.8802742
50
140.1056111
51
148.9067586
0
ARC
8
left_labelLayer
10
119.973137
20
32.5088008
40
2.4924559
50
92.4762692
51
140.5386354
0
ARC
8
left_labelLayer
10
120.1003647
20
31.5686615
40
3.4383022
50
89.963767
51
93.9176825
0
ARC
8
left_labelLayer
10
120.1307255
20
32.0437823
40
2.9633147
50
74.2125972
51
90.5449944
0
ARC
8
left_labelLayer
10
120.3163275
20
32.7276209
40
2.2547878
50
41.2064808
51
74.0232762
0
ARC
8
left_labelLayer
10
119.9648334
20
32.4234299
40
2.7196255
50
11.5994281
51
41.1495961
0
ARC
8
left_labelLayer
10
118.7571183
20
32.1449081
40
3.9587913
50
359.6147679
51
12.0336318
0
ARC
8
left_labelLayer
10
122.1950894
20
31.5810459
40
3.9038763
50
181.1446951
51
190.8007141
0
ARC
8
left_labelLayer
10
120.8178453
20
31.3094133
40
2.5001432
50
190.6005578
51
206.027536
0
ARC
8
left_labelLayer
10
120.2085101
20
31.021346
40
1.8262198
50
206.2950207
51
222.5557692
0
ARC
8
left_labelLayer
10
120.1545147
20
30.9930751
40
1.7673955
50
223.0645008
51
258.1401354
0
ARC
8
left_labelLayer
10
120.3694608
20
31.8781363
40
2.6778901
50
257.5311755
51
270.431936
0
ARC
8
left_labelLayer
10
120.3718604
20
34.3374245
40
5.1371329
50
270.198395
51
292.2090404
0
ARC
8
left_labelLayer
10
120.1249775
20
35.0463506
40
5.8869148
50
291.8255886
51
293.1613531
0
ARC
8
left_labelLayer
10
120.1133542
20
34.1221769
40
5.8391872
50
287.9022784
51
293.4861453
0
ARC
8
left_labelLayer
10
120.5369292
20
32.8152837
40
4.4653667
50
281.9936075
51
287.8851526
0
ARC
8
left_labelLayer
10
120.6395914
20
32.4462988
40
4.0831717
50
275.9054471
51
281.6604086
0
ARC
8
left_labelLayer
10
120.4340771
20
34.3645978
40
6.0124393
50
271.9119944
51
275.9726824
0
ARC
8
left_labelLayer
10
120.3590729
20
36.2748179
40
7.9241062
50
269.9668788
51
271.9931871
0
ARC
8
left_labelLayer
10
120.0721562
20
32.2752635
40
1.9173372
50
89.4422513
51
106.2089337
0
ARC
8
left_labelLayer
10
119.9568084
20
32.6958456
40
1.4812897
50
106.4657236
51
137.9176197
0
ARC
8
left_labelLayer
10
120.2875175
20
32.4054289
40
1.9213825
50
138.0994833
51
160.586613
0
ARC
8
left_labelLayer
10
121.1375974
20
32.0926994
40
2.8271038
50
160.335338
51
172.531533
0
ARC
8
left_labelLayer
10
121.9749094
20
31.9585524
40
3.6748286
50
172.1546118
51
174.7614733
0
ARC
8
left_labelLayer
10
118.3584426
20
32.3129009
40
3.3144624
50
359.6745175
51
8.9224647
0
ARC
8
left_labelLayer
10
119.5427687
20
32.5058683
40
2.1145504
50
8.7342538
51
23.2771895
0
ARC
8
left_labelLayer
10
120.1050189
20
32.7418856
40
1.5048057
50
23.4821679
51
39.7071741
0
ARC
8
left_labelLayer
10
120.243131
20
32.8452369
40
1.3325545
50
40.0823151
51
80.6242999
0
ARC
8
left_labelLayer
10
120.100972
20
32.1935838
40
1.998952
50
79.6468265
51
90.2909786
0
LINE
8
left_labelLayer
10
127.2685547
20
34.8897755
11
127.2685547
21
34.1339161
0
LINE
8
left_labelLayer
10
127.2685547
20
34.1339161
11
125.6337891
21
34.1339161
0
LINE
8
left_labelLayer
10
125.6337891
20
34.1339161
11
125.6337891
21
28.4679005
0
LINE
8
left_labelLayer
10
125.6337891
20
28.4679005
11
124.6611328
21
28.4679005
0
LINE
8
left_labelLayer
10
124.6611328
20
28.4679005
11
124.6611328
21
34.1339161
0
LINE
8
left_labelLayer
10
124.6611328
20
34.1339161
11
123.5126953
21
34.1339161
0
LINE
8
left_labelLayer
10
123.5126953
20
34.1339161
11
123.5126953
21
34.5733692
0
LINE
8
left_labelLayer
10
123.5126953
20
34.5733692
11
124.6611328
21
34.9249317
0
LINE
8
left_labelLayer
10
124.6611328
20
34.9249317
11
124.6611328
21
35.2823536
0
LINE
8
left_labelLayer
10
127.9248047
20
37.444463
11
127.6728516
21
36.6651661
0
LINE
8
left_labelLayer
10
125.6337891
20
35.3057911
11
125.6337891
21
34.8897755
0
LINE
8
left_labelLayer
10
125.6337891
20
34.8897755
11
127.2685547
21
34.8897755
0
ARC
8
left_labelLayer
10
128.6029722
20
35.3276702
40
3.9420999
50
167.5775974
51
180.6586613
0
ARC
8
left_labelLayer
10
126.7492651
20
35.7598479
40
2.0389557
50
141.743391
51
168.2322243
0
ARC
8
left_labelLayer
10
126.4474454
20
35.9173747
40
1.7055856
50
98.2551559
51
139.6203357
0
ARC
8
left_labelLayer
10
126.7124494
20
34.693152
40
2.9564382
50
89.6697083
51
99.9314188
0
ARC
8
left_labelLayer
10
126.7131891
20
34.517416
40
3.1321676
50
81.5640907
51
89.7017719
0
ARC
8
left_labelLayer
10
126.4929973
20
32.9812183
40
4.6840533
50
75.9739752
51
81.6565084
0
ARC
8
left_labelLayer
10
126.1150913
20
31.4137627
40
6.2963805
50
73.296369
51
76.0945804
0
ARC
8
left_labelLayer
10
126.2102876
20
32.1741824
40
4.7231375
50
71.9612944
51
76.5918408
0
ARC
8
left_labelLayer
10
126.5766971
20
33.7285213
40
3.1262025
50
76.5183847
51
83.0216341
0
ARC
8
left_labelLayer
10
126.7043456
20
34.7550396
40
2.0917809
50
83.0760469
51
89.7926919
0
ARC
8
left_labelLayer
10
126.7001439
20
35.5351274
40
1.3117322
50
89.4858803
51
103.4197126
0
ARC
8
left_labelLayer
10
126.5818834
20
35.9894767
40
0.8423965
50
102.7677687
51
144.338016
0
ARC
8
left_labelLayer
10
126.8201265
20
35.8361886
40
1.1254209
50
145.068818
51
162.180224
0
ARC
8
left_labelLayer
10
127.6370143
20
35.5613466
40
1.9872601
50
161.8437903
51
171.7846869
0
ARC
8
left_labelLayer
10
128.9693207
20
35.3612371
40
3.3344977
50
171.6527557
51
178.438375
0
ARC
8
left_labelLayer
10
130.2260261
20
35.3076542
40
4.5922372
50
178.1973862
51
180.0232457
0
LINE
8
left_labelLayer
10
131.3935547
20
29.2706349
11
131.3935547
21
28.5264942
0
LINE
8
left_labelLayer
10
128.5107422
20
30.3136036
11
128.5107422
21
34.1339161
0
LINE
8
left_labelLayer
10
128.5107422
20
34.1339161
11
127.5908203
21
34.1339161
0
LINE
8
left_labelLayer
10
127.5908203
20
34.1339161
11
127.5908203
21
34.6026661
0
LINE
8
left_labelLayer
10
127.5908203
20
34.6026661
11
128.5107422
21
35.006963
0
LINE
8
left_labelLayer
10
128.5107422
20
35.006963
11
128.9208984
21
36.3780567
0
LINE
8
left_labelLayer
10
128.9208984
20
36.3780567
11
129.4833984
21
36.3780567
0
LINE
8
left_labelLayer
10
129.4833984
20
36.3780567
11
129.4833984
21
34.8897755
0
LINE
8
left_labelLayer
10
129.4833984
20
34.8897755
11
131.3466797
21
34.8897755
0
LINE
8
left_labelLayer
10
131.3466797
20
34.8897755
11
131.3466797
21
34.1339161
0
LINE
8
left_labelLayer
10
131.3466797
20
34.1339161
11
129.4833984
21
34.1339161
0
LINE
8
left_labelLayer
10
129.4833984
20
34.1339161
11
129.4833984
21
30.3546192
0
ARC
8
left_labelLayer
10
130.5213201
20
32.3477753
40
3.1943349
50
269.8803316
51
278.3028128
0
ARC
8
left_labelLayer
10
130.5518451
20
32.0985347
40
2.9433042
50
278.4154565
51
279.0081992
0
ARC
8
left_labelLayer
10
130.1932737
20
34.3892213
40
5.261883
50
278.9590101
51
280.5103943
0
ARC
8
left_labelLayer
10
130.5349122
20
32.5561311
40
3.3972294
50
280.4846699
51
282.6267916
0
ARC
8
left_labelLayer
10
130.8344522
20
31.2253559
40
2.0331605
50
282.58766
51
285.5794473
0
ARC
8
left_labelLayer
10
130.9840003
20
30.6752005
40
1.4630582
50
285.7245036
51
286.256048
0
ARC
8
left_labelLayer
10
130.9846186
20
29.3914164
40
0.9567231
50
287.9889364
51
295.3048339
0
ARC
8
left_labelLayer
10
130.7538821
20
30.0895024
40
1.6919474
50
283.3068834
51
288.1198185
0
ARC
8
left_labelLayer
10
130.510103
20
31.1063782
40
2.7376329
50
280.0070235
51
283.3735007
0
ARC
8
left_labelLayer
10
130.3468871
20
31.9921374
40
3.6382848
50
279.1865037
51
280.114353
0
ARC
8
left_labelLayer
10
130.2468821
20
32.5610192
40
4.215843
50
275.5260628
51
279.2938845
0
ARC
8
left_labelLayer
10
130.3597152
20
31.3824729
40
3.0319087
50
270.8932098
51
275.5484296
0
ARC
8
left_labelLayer
10
130.3738712
20
30.844244
40
2.4935312
50
270.0034988
51
270.760768
0
ARC
8
left_labelLayer
10
130.3347732
20
30.8908435
40
2.5404337
50
253.7847948
51
270.8852676
0
ARC
8
left_labelLayer
10
130.0337996
20
29.8644094
40
1.4707878
50
190.3817671
51
253.8772449
0
ARC
8
left_labelLayer
10
131.5678511
20
30.2791914
40
3.0573026
50
179.3550796
51
192.847783
0
ARC
8
left_labelLayer
10
131.4419606
20
30.3423696
40
1.9586004
50
179.6416535
51
189.7506216
0
ARC
8
left_labelLayer
10
130.7505393
20
30.2190448
40
1.2562889
50
189.5479422
51
205.7873769
0
ARC
8
left_labelLayer
10
130.4663988
20
30.0880196
40
0.9434612
50
206.1294926
51
221.4083587
0
ARC
8
left_labelLayer
10
130.4345336
20
30.0638414
40
0.9035747
50
221.5949308
51
262.3505242
0
ARC
8
left_labelLayer
10
130.5103063
20
30.4534788
40
1.3000387
50
261.3265388
51
270.1913673
0
LINE
8
top_outsideCutPath
10
189
20
120
11
189
21
106.3125
0
LINE
8
top_outsideCutPath
10
189
20
106.3125
11
186
21
106.3125
0
LINE
8
top_outsideCutPath
10
186
20
106.3125
11
186
21
93.9375
0
LINE
8
top_outsideCutPath
10
186
20
93.9375
11
189
21
93.9375
0
LINE
8
top_outsideCutPath
10
189
20
93.9375
11
189
21
81.5625
0
LINE
8
top_outsideCutPath
10
189
20
81.5625
11
186
21
81.5625
0
LINE
8
top_outsideCutPath
10
186
20
81.5625
11
186
21
69.1875
0
LINE
8
top_outsideCutPath
10
186
20
69.1875
11
189
21
69.1875
0
LINE
8
top_outsideCutPath
10
189
20
69.1875
11
189
21
56.8125
0
LINE
8
top_outsideCutPath
10
189
20
56.8125
11
186
21
56.8125
0
LINE
8
top_outsideCutPath
10
186
20
56.8125
11
186
21
44.4375
0
LINE
8
top_outsideCutPath
10
186
20
44.4375
11
189
21
44.4375
0
LINE
8
top_outsideCutPath
10
189
20
44.4375
11
189
21
32.0625
0
LINE
8
top_outsideCutPath
10
189
20
32.0625
11
186
21
32.0625
0
LINE
8
top_outsideCutPath
10
186
20
32.0625
11
186
21
19.6875
0
LINE
8
top_outsideCutPath
10
186
20
19.6875
11
189
21
19.6875
0
LINE
8
top_outsideCutPath
10
189
20
19.6875
11
189
21
7.3125
0
LINE
8
top_outsideCutPath
10
189
20
7.3125
11
189
21
6
0
LINE
8
top_outsideCutPath
10
189
20
6
11
197.4375
21
6
0
LINE
8
top_outsideCutPath
10
197.4375
20
6
11
197.4375
21
3
0
LINE
8
top_outsideCutPath
10
197.4375
20
3
11
209.8125
21
3
0
LINE
8
top_outsideCutPath
10
209.8125
20
3
11
209.8125
21
6
0
LINE
8
top_outsideCutPath
10
209.8125
20
6
11
222.1875
21
6
0
LINE
8
top_outsideCutPath
10
222.1875
20
6
11
222.1875
21
3
0
LINE
8
top_outsideCutPath
10
222.1875
20
3
11
234.5625
21
3
0
LINE
8
top_outsideCutPath
10
234.5625
20
3
11
234.5625
21
6
0
LINE
8
top_outsideCutPath
10
234.5625
20
6
11
243
21
6
0
LINE
8
top_outsideCutPath
10
243
20
6
11
243
21
19.6875
0
LINE
8
top_outsideCutPath
10
243
20
19.6875
11
246
21
19.6875
0
LINE
8
top_outsideCutPath
10
246
20
19.6875
11
246
21
32.0625
0
LINE
8
top_outsideCutPath
10
246
20
32.0625
11
243
21
32.0625
0
LINE
8
top_outsideCutPath
10
243
20
32.0625
11
243
21
44.4375
0
LINE
8
top_outsideCutPath
10
243
20
44.4375
11
246
21
44.4375
0
LINE
8
top_outsideCutPath
10
246
20
44.4375
11
246
21
56.8125
0
LINE
8
top_outsideCutPath
10
246
20
56.8125
11
243
21
56.8125
0
LINE
8
top_outsideCutPath
10
243
20
56.8125
11
243
21
69.1875
0
LINE
8
top_outsideCutPath
10
243
20
69.1875
11
246
21
69.1875
0
LINE
8
top_outsideCutPath
10
246
20
69.1875
11
246
21
81.5625
0
LINE
8
top_outsideCutPath
10
246
20
81.5625
11
243
21
81.5625
0
LINE
8
top_outsideCutPath
10
243
20
81.5625
11
243
21
93.9375
0
LINE
8
top_outsideCutPath
10
243
20
93.9375
11
246
21
93.9375
0
LINE
8
top_outsideCutPath
10
246
20
93.9375
11
246
21
106.3125
0
LINE
8
top_outsideCutPath
10
246
20
106.3125
11
243
21
106.3125
0
LINE
8
top_outsideCutPath
10
243
20
106.3125
11
243
21
118.6875
0
LINE
8
top_outsideCutPath
10
243
20
118.6875
11
243
21
120
0
LINE
8
top_outsideCutPath
10
243
20
120
11
234.5625
21
120
0
LINE
8
top_outsideCutPath
10
234.5625
20
120
11
234.5625
21
123
0
LINE
8
top_outsideCutPath
10
234.5625
20
123
11
222.1875
21
123
0
LINE
8
top_outsideCutPath
10
222.1875
20
123
11
222.1875
21
120
0
LINE
8
top_outsideCutPath
10
222.1875
20
120
11
209.8125
21
120
0
LINE
8
top_outsideCutPath
10
209.8125
20
120
11
209.8125
21
123
0
LINE
8
top_outsideCutPath
10
209.8125
20
123
11
197.4375
21
123
0
LINE
8
top_outsideCutPath
10
197.4375
20
123
11
197.4375
21
120
0
LINE
8
top_outsideCutPath
10
197.4375
20
120
11
189
21
120
0
LINE
8
top_labelLayer
10
210.8085441
20
61.2890625
11
210.8085441
21
60.5449219
0
LINE
8
top_labelLayer
10
207.9257316
20
62.3320313
11
207.9257316
21
66.1523438
0
LINE
8
top_labelLayer
10
207.9257316
20
66.1523438
11
207.0058097
21
66.1523438
0
LINE
8
top_labelLayer
10
207.0058097
20
66.1523438
11
207.0058097
21
66.6210938
0
LINE
8
top_labelLayer
10
207.0058097
20
66.6210938
11
207.9257316
21
67.0253906
0
LINE
8
top_labelLayer
10
207.9257316
20
67.0253906
11
208.3358879
21
68.3964844
0
LINE
8
top_labelLayer
10
208.3358879
20
68.3964844
11
208.8983879
21
68.3964844
0
LINE
8
top_labelLayer
10
208.8983879
20
68.3964844
11
208.8983879
21
66.9082031
0
LINE
8
top_labelLayer
10
208.8983879
20
66.9082031
11
210.7616691
21
66.9082031
0
LINE
8
top_labelLayer
10
210.7616691
20
66.9082031
11
210.7616691
21
66.1523438
0
LINE
8
top_labelLayer
10
210.7616691
20
66.1523438
11
208.8983879
21
66.1523438
0
LINE
8
top_labelLayer
10
208.8983879
20
66.1523438
11
208.8983879
21
62.3730469
0
ARC
8
top_labelLayer
10
209.9363096
20
64.366203
40
3.1943349
50
269.8803316
51
278.3028128
0
ARC
8
top_labelLayer
10
209.9668345
20
64.1169623
40
2.9433042
50
278.4154565
51
279.0081992
0
ARC
8
top_labelLayer
10
209.6082632
20
66.4076489
40
5.261883
50
278.9590101
51
280.5103943
0
ARC
8
top_labelLayer
10
209.9499016
20
64.5745587
40
3.3972294
50
280.4846699
51
282.6267916
0
ARC
8
top_labelLayer
10
210.2494416
20
63.2437835
40
2.0331605
50
282.58766
51
285.5794473
0
ARC
8
top_labelLayer
10
210.3989897
20
62.6936281
40
1.4630582
50
285.7245036
51
286.256048
0
ARC
8
top_labelLayer
10
210.399608
20
61.4098441
40
0.9567231
50
287.9889364
51
295.3048339
0
ARC
8
top_labelLayer
10
210.1688715
20
62.1079301
40
1.6919474
50
283.3068834
51
288.1198185
0
ARC
8
top_labelLayer
10
209.9250925
20
63.1248058
40
2.7376329
50
280.0070235
51
283.3735007
0
ARC
8
top_labelLayer
10
209.7618765
20
64.010565
40
3.6382848
50
279.1865037
51
280.114353
0
ARC
8
top_labelLayer
10
209.6618715
20
64.5794468
40
4.215843
50
275.5260628
51
279.2938845
0
ARC
8
top_labelLayer
10
209.7747046
20
63.4009005
40
3.0319087
50
270.8932098
51
275.5484296
0
ARC
8
top_labelLayer
10
209.7888606
20
62.8626716
40
2.4935312
50
270.0034988
51
270.760768
0
ARC
8
top_labelLayer
10
209.7497626
20
62.9092711
40
2.5404337
50
253.7847948
51
270.8852676
0
ARC
8
top_labelLayer
10
209.448789
20
61.8828371
40
1.4707878
50
190.3817671
51
253.8772449
0
ARC
8
top_labelLayer
10
210.9828406
20
62.297619
40
3.0573026
50
179.3550796
51
192.847783
0
ARC
8
top_labelLayer
10
210.85695
20
62.3607972
40
1.9586004
50
179.6416535
51
189.7506216
0
ARC
8
top_labelLayer
10
210.1655287
20
62.2374725
40
1.2562889
50
189.5479422
51
205.7873769
0
ARC
8
top_labelLayer
10
209.8813882
20
62.1064472
40
0.9434612
50
206.1294926
51
221.4083587
0
ARC
8
top_labelLayer
10
209.849523
20
62.082269
40
0.9035747
50
221.5949308
51
262.3505242
0
ARC
8
top_labelLayer
10
209.9252958
20
62.4719064
40
1.3000387
50
261.3265388
51
270.1913673
0
ARC
8
top_labelLayer
10
212.6106596
20
63.6692553
40
5.0241705
50
349.1761875
51
0.3862535
0
ARC
8
top_labelLayer
10
214.3021851
20
63.3320456
40
3.2994421
50
330.2506911
51
349.411657
0
ARC
8
top_labelLayer
10
214.8227528
20
63.0614727
40
2.7133237
50
318.1439518
51
329.7566409
0
ARC
8
top_labelLayer
10
214.9166991
20
62.9861837
40
2.5931213
50
278.8959193
51
317.9979088
0
ARC
8
top_labelLayer
10
214.6746155
20
64.1460296
40
3.7769247
50
269.750271
51
279.803316
0
ARC
8
top_labelLayer
10
214.6353524
20
63.4925239
40
3.1234665
50
253.5436764
51
270.4182587
0
ARC
8
top_labelLayer
10
214.5313813
20
63.0903361
40
2.7083379
50
238.8115625
51
253.2428149
0
ARC
8
top_labelLayer
10
214.4978217
20
63.0228493
40
2.6332335
50
207.7946953
51
238.6758065
0
ARC
8
top_labelLayer
10
214.9792632
20
63.3177124
40
3.196831
50
205.655927
51
208.4461015
0
ARC
8
top_labelLayer
10
215.3502084
20
63.4722825
40
3.5981914
50
188.9102556
51
205.3171442
0
ARC
8
top_labelLayer
10
216.6001037
20
63.6839732
40
4.8658161
50
179.7744843
51
189.0932809
0
ARC
8
top_labelLayer
10
216.7844719
20
63.7373312
40
5.0502623
50
169.2443
51
180.3880763
0
ARC
8
top_labelLayer
10
215.0694402
20
64.0763302
40
3.3021215
50
150.7111397
51
169.4695388
0
ARC
8
top_labelLayer
10
214.5219445
20
64.3574911
40
2.6871631
50
138.1759262
51
150.2287565
0
ARC
8
top_labelLayer
10
214.4308803
20
64.4273719
40
2.5727172
50
99.1759448
51
137.9832664
0
ARC
8
top_labelLayer
10
214.6815419
20
63.2477216
40
3.7777102
50
89.7326505
51
100.0759651
0
ARC
8
top_labelLayer
10
214.7316393
20
63.7571773
40
3.2683746
50
73.5222866
51
90.569223
0
ARC
8
top_labelLayer
10
214.9233108
20
64.4535712
40
2.5462523
50
41.1445648
51
73.2133944
0
ARC
8
top_labelLayer
10
214.5574257
20
64.1390982
40
3.0286962
50
13.5014373
51
41.0703389
0
ARC
8
top_labelLayer
10
213.1438419
20
63.7691819
40
4.4896766
50
1.1277128
51
13.8800049
0
ARC
8
top_labelLayer
10
211.9265011
20
63.703932
40
5.708215
50
359.9918997
51
1.5420485
0
ARC
8
top_labelLayer
10
217.6676112
20
63.6778491
40
4.9255382
50
179.7059797
51
187.9160518
0
ARC
8
top_labelLayer
10
215.8610525
20
63.41834
40
3.1004651
50
187.7639021
51
200.0976972
0
ARC
8
top_labelLayer
10
214.8658569
20
63.053699
40
2.0405702
50
200.0846077
51
216.9131468
0
ARC
8
top_labelLayer
10
214.5024392
20
62.7942026
40
1.5941828
50
217.3009662
51
261.7099026
0
ARC
8
top_labelLayer
10
214.6711473
20
63.5992501
40
2.4156789
50
260.5032791
51
270.2477068
0
ARC
8
top_labelLayer
10
214.7033507
20
63.4427141
40
2.2592252
50
269.4481468
51
284.7255902
0
ARC
8
top_labelLayer
10
214.8822002
20
62.7794229
40
1.5722645
50
284.5662271
51
322.6333828
0
ARC
8
top_labelLayer
10
214.4640423
20
63.081524
40
2.0879971
50
323.0089098
51
342.6390598
0
ARC
8
top_labelLayer
10
213.2679955
20
63.472425
40
3.346237
50
342.3615989
51
353.7537324
0
ARC
8
top_labelLayer
10
211.5035013
20
63.6851123
40
5.1234339
50
353.5362881
51
0.2014378
0
ARC
8
top_labelLayer
10
211.7738296
20
63.7278952
40
4.8531371
50
359.7075639
51
7.8972796
0
ARC
8
top_labelLayer
10
213.5511881
20
63.9826975
40
3.0576369
50
7.7439775
51
20.0690373
0
ARC
8
top_labelLayer
10
214.5415929
20
64.34614
40
2.0026542
50
20.0257017
51
37.4350446
0
ARC
8
top_labelLayer
10
214.8702046
20
64.5793176
40
1.6000491
50
37.9577657
51
80.4006236
0
ARC
8
top_labelLayer
10
214.6834654
20
63.746104
40
2.4531524
50
79.3453553
51
90.3174832
0
ARC
8
top_labelLayer
10
214.6488881
20
63.8845069
40
2.3148069
50
89.4805965
51
103.8805171
0
ARC
8
top_labelLayer
10
214.4543842
20
64.6251749
40
1.5491469
50
103.468522
51
142.3118961
0
ARC
8
top_labelLayer
10
214.83251
20
64.3592485
40
2.0110614
50
142.9025417
51
162.3749821
0
ARC
8
top_labelLayer
10
216.024006
20
63.9621851
40
3.2668997
50
162.0653194
51
173.1674902
0
ARC
8
top_labelLayer
10
217.8818736
20
63.7252255
40
5.1397833
50
173.008626
51
180.2463668
0
LINE
8
top_labelLayer
10
220.3124504
20
61.3125
11
220.2421379
21
61.3125
0
LINE
8
top_labelLayer
10
220.3124504
20
60.2460938
11
220.3124504
21
57.6035156
0
LINE
8
top_labelLayer
10
220.3124504
20
57.6035156
11
219.3397941
21
57.6035156
0
LINE
8
top_labelLayer
10
219.3397941
20
57.6035156
11
219.3397941
21
66.9082031
0
LINE
8
top_labelLayer
10
219.3397941
20
66.9082031
11
220.1308097
21
66.9082031
0
LINE
8
top_labelLayer
10
220.1308097
20
66.9082031
11
220.2655754
21
66.0292969
0
LINE
8
top_labelLayer
10
220.2655754
20
66.0292969
11
220.3124504
21
66.0292969
0
LINE
8
top_labelLayer
10
220.3124504
20
63.9199219
11
220.3124504
21
63.703125
0
ARC
8
top_labelLayer
10
222.3116721
20
63.3193704
40
2.9502753
50
255.775545
51
270.3185612
0
ARC
8
top_labelLayer
10
222.227484
20
62.9453228
40
2.5670296
50
245.9801732
51
255.5455494
0
ARC
8
top_labelLayer
10
222.0644083
20
62.5660867
40
2.1542601
50
215.5850365
51
245.8361552
0
ARC
8
top_labelLayer
10
211.1097812
20
60.1584791
40
9.2049825
50
2.95034
51
7.2020746
0
ARC
8
top_labelLayer
10
212.5990778
20
60.2418055
40
7.7133739
50
0.0318538
51
2.9016024
0
ARC
8
top_labelLayer
10
222.4550121
20
64.5245744
40
2.6181597
50
132.3564871
51
144.9196074
0
ARC
8
top_labelLayer
10
222.0539363
20
64.9621378
40
2.024594
50
115.4006125
51
132.3118484
0
ARC
8
top_labelLayer
10
222.2103856
20
64.5812803
40
2.435842
50
97.7066308
51
114.8821495
0
ARC
8
top_labelLayer
10
222.3196476
20
63.8726689
40
3.1527329
50
89.8468383
51
97.9474232
0
ARC
8
top_labelLayer
10
222.3581794
20
64.0441021
40
2.9814406
50
74.1923644
51
90.5785342
0
ARC
8
top_labelLayer
10
222.5644777
20
64.7940415
40
2.2036726
50
38.0523474
51
74.041734
0
ARC
8
top_labelLayer
10
221.9954679
20
64.3579201
40
2.9205642
50
16.3356052
51
37.9090567
0
ARC
8
top_labelLayer
10
220.5006755
20
63.8975142
40
4.4845591
50
4.5766418
51
16.608886
0
ARC
8
top_labelLayer
10
218.6604278
20
63.7141441
40
6.3336728
50
359.9003186
51
4.9018308
0
ARC
8
top_labelLayer
10
219.2912883
20
63.6694794
40
5.7029019
50
350.6562674
51
0.3380322
0
ARC
8
top_labelLayer
10
221.2794018
20
63.331322
40
3.6862806
50
335.8306125
51
350.8254761
0
ARC
8
top_labelLayer
10
222.1539508
20
62.9538548
40
2.7338811
50
321.3161481
51
335.5436283
0
ARC
8
top_labelLayer
10
222.4882924
20
62.6814172
40
2.302615
50
274.0640048
51
321.408102
0
ARC
8
top_labelLayer
10
222.3325354
20
63.6680288
40
3.2988911
50
269.9225382
51
275.548169
0
ARC
8
top_labelLayer
10
222.1674166
20
63.3966832
40
2.8026071
50
89.5904304
51
100.3501539
0
ARC
8
top_labelLayer
10
221.9675701
20
64.4465627
40
1.7339243
50
100.0868041
51
118.1917835
0
ARC
8
top_labelLayer
10
221.7628445
20
64.8458458
40
1.2853163
50
118.5569536
51
141.02436
0
ARC
8
top_labelLayer
10
222.0748061
20
64.6257918
40
1.6664411
50
141.8890253
51
160.5972976
0
ARC
8
top_labelLayer
10
223.1711467
20
64.2235103
40
2.8341981
50
160.289525
51
171.2453283
0
ARC
8
top_labelLayer
10
224.9737793
20
63.9328669
40
4.6600832
50
171.0868543
51
178.3247649
0
ARC
8
top_labelLayer
10
226.5016149
20
63.8602324
40
6.1894524
50
178.0661381
51
179.4474457
0
ARC
8
top_labelLayer
10
226.7435238
20
63.6780108
40
6.4311224
50
179.7762537
51
185.7075129
0
ARC
8
top_labelLayer
10
224.2079616
20
63.4167602
40
3.8821564
50
185.5924947
51
194.2050809
0
ARC
8
top_labelLayer
10
222.5837077
20
62.995209
40
2.2041437
50
193.9430385
51
208.0218289
0
ARC
8
top_labelLayer
10
221.9265341
20
62.6608871
40
1.4670075
50
208.5536459
51
217.5604811
0
ARC
8
top_labelLayer
10
221.8729849
20
62.6386139
40
1.4110603
50
218.169049
51
253.8047254
0
ARC
8
top_labelLayer
10
222.1347078
20
63.4455268
40
2.2591027
50
253.1382111
51
266.8483427
0
ARC
8
top_labelLayer
10
222.2081014
20
64.3110612
40
3.1274686
50
266.377576
51
270.0510487
0
ARC
8
top_labelLayer
10
222.2330356
20
62.8223304
40
1.6388864
50
269.2256865
51
292.0430639
0
ARC
8
top_labelLayer
10
222.2551489
20
62.6905503
40
1.5087181
50
293.1429574
51
324.1353963
0
ARC
8
top_labelLayer
10
221.9265649
20
62.9687418
40
1.9382681
50
323.1616539
51
325.0153374
0
ARC
8
top_labelLayer
10
221.5747984
20
63.1868555
40
2.3516419
50
325.5753824
51
344.1504648
0
ARC
8
top_labelLayer
10
220.3578648
20
63.546592
40
3.6205846
50
343.9336468
51
355.1137251
0
ARC
8
top_labelLayer
10
218.8044255
20
63.7042201
40
5.1818639
50
354.8402191
51
0.1174659
0
ARC
8
top_labelLayer
10
219.0780169
20
63.7396151
40
4.9083241
50
359.7108383
51
7.8610307
0
ARC
8
top_labelLayer
10
220.8626863
20
63.9940138
40
3.1056415
50
7.7149645
51
19.8859601
0
ARC
8
top_labelLayer
10
221.8442073
20
64.3485433
40
2.0620542
50
19.8991327
51
35.8980216
0
ARC
8
top_labelLayer
10
222.2820071
20
64.6800993
40
1.5130499
50
35.448169
51
85.2266503
0
ARC
8
top_labelLayer
10
222.1905465
20
64.1065403
40
2.0926808
50
84.0378979
51
90.084769
0
LINE
8
back_outsideCutPath
10
0
20
126
11
0
21
114.5625
0
LINE
8
back_outsideCutPath
10
0
20
114.5625
11
3
21
114.5625
0
LINE
8
back_outsideCutPath
10
3
20
114.5625
11
3
21
102.1875
0
LINE
8
back_outsideCutPath
10
3
20
102.1875
11
0
21
102.1875
0
LINE
8
back_outsideCutPath
10
0
20
102.1875
11
0
21
89.8125
0
LINE
8
back_outsideCutPath
10
0
20
89.8125
11
3
21
89.8125
0
LINE
8
back_outsideCutPath
10
3
20
89.8125
11
3
21
77.4375
0
LINE
8
back_outsideCutPath
10
3
20
77.4375
11
0
21
77.4375
0
LINE
8
back_outsideCutPath
10
0
20
77.4375
11
0
21
66
0
LINE
8
back_outsideCutPath
10
0
20
66
11
11.4375
21
66
0
LINE
8
back_outsideCutPath
10
11.4375
20
66
11
11.4375
21
69
0
LINE
8
back_outsideCutPath
10
11.4375
20
69
11
23.8125
21
69
0
LINE
8
back_outsideCutPath
10
23.8125
20
69
11
23.8125
21
66
0
LINE
8
back_outsideCutPath
10
23.8125
20
66
11
36.1875
21
66
0
LINE
8
back_outsideCutPath
10
36.1875
20
66
11
36.1875
21
69
0
LINE
8
back_outsideCutPath
10
36.1875
20
69
11
48.5625
21
69
0
LINE
8
back_outsideCutPath
10
48.5625
20
69
11
48.5625
21
66
0
LINE
8
back_outsideCutPath
10
48.5625
20
66
11
60
21
66
0
LINE
8
back_outsideCutPath
10
60
20
66
11
60
21
77.4375
0
LINE
8
back_outsideCutPath
10
60
20
77.4375
11
57
21
77.4375
0
LINE
8
back_outsideCutPath
10
57
20
77.4375
11
57
21
89.8125
0
LINE
8
back_outsideCutPath
10
57
20
89.8125
11
60
21
89.8125
0
LINE
8
back_outsideCutPath
10
60
20
89.8125
11
60
21
102.1875
0
LINE
8
back_outsideCutPath
10
60
20
102.1875
11
57
21
102.1875
0
LINE
8
back_outsideCutPath
10
57
20
102.1875
11
57
21
114.5625
0
LINE
8
back_outsideCutPath
10
57
20
114.5625
11
60
21
114.5625
0
LINE
8
back_outsideCutPath
10
60
20
114.5625
11
60
21
126
0
LINE
8
back_outsideCutPath
10
60
20
126
11
48.5625
21
126
0
LINE
8
back_outsideCutPath
10
48.5625
20
126
11
48.5625
21
123
0
LINE
8
back_outsideCutPath
10
48.5625
20
123
11
36.1875
21
123
0
LINE
8
back_outsideCutPath
10
36.1875
20
123
11
36.1875
21
126
0
LINE
8
back_outsideCutPath
10
36.1875
20
126
11
23.8125
21
126
0
LINE
8
back_outsideCutPath
10
23.8125
20
126
11
23.8125
21
123
0
LINE
8
back_outsideCutPath
10
23.8125
20
123
11
11.4375
21
123
0
LINE
8
back_outsideCutPath
10
11.4375
20
123
11
11.4375
21
126
0
LINE
8
back_outsideCutPath
10
11.4375
20
126
11
0
21
126
0
LINE
8
back_labelLayer
10
18.5332031
20
92.3262381
11
18.4628906
21
92.3262381
0
LINE
8
back_labelLayer
10
18.4628906
20
92.3262381
11
18.2578125
21
91.5000662
0
LINE
8
back_labelLayer
10
18.2578125
20
91.5000662
11
17.5605469
21
91.5000662
0
LINE
8
back_labelLayer
10
17.5605469
20
91.5000662
11
17.5605469
21
100.6172537
0
LINE
8
back_labelLayer
10
17.5605469
20
100.6172537
11
18.5332031
21
100.6172537
0
LINE
8
back_labelLayer
10
18.5332031
20
100.6172537
11
18.5332031
21
98.4024099
0
LINE
8
back_labelLayer
10
18.4863281
20
97.0664724
11
18.5332031
21
97.0664724
0
ARC
8
back_labelLayer
10
20.5780065
20
95.0547779
40
2.9727752
50
74.2393332
51
90.5623791
0
ARC
8
back_labelLayer
10
20.7745759
20
95.7759025
40
2.2253795
50
38.5631365
51
74.0670293
0
ARC
8
back_labelLayer
10
20.2687086
20
95.382563
40
2.8661373
50
16.470949
51
38.4075058
0
ARC
8
back_labelLayer
10
18.8113969
20
94.9255931
40
4.3932818
50
5.1338576
51
16.7973472
0
ARC
8
back_labelLayer
10
16.9716115
20
94.7301625
40
6.2432464
50
359.8779482
51
5.4093355
0
ARC
8
back_labelLayer
10
17.5120411
20
94.6832174
40
5.7029019
50
350.6562674
51
0.3380322
0
ARC
8
back_labelLayer
10
19.5001545
20
94.3450601
40
3.6862806
50
335.8306125
51
350.8254761
0
ARC
8
back_labelLayer
10
20.3747035
20
93.9675929
40
2.7338811
50
321.3161481
51
335.5436283
0
ARC
8
back_labelLayer
10
20.7090452
20
93.6951553
40
2.302615
50
274.0640048
51
321.408102
0
ARC
8
back_labelLayer
10
20.5532881
20
94.6817669
40
3.2988911
50
269.9225382
51
275.548169
0
ARC
8
back_labelLayer
10
20.5324249
20
94.3331084
40
2.9502753
50
255.775545
51
270.3185612
0
ARC
8
back_labelLayer
10
20.4482368
20
93.9590609
40
2.5670296
50
245.9801732
51
255.5455494
0
ARC
8
back_labelLayer
10
20.285161
20
93.5798248
40
2.1542601
50
215.5850365
51
245.8361552
0
ARC
8
back_labelLayer
10
-1.7455205
20
98.3852604
40
20.2787309
50
358.1123001
51
0.0484545
0
ARC
8
back_labelLayer
10
3.8982141
20
98.1957776
40
14.6318179
50
355.7238409
51
358.1258953
0
ARC
8
back_labelLayer
10
6.3235799
20
98.0296983
40
12.2008297
50
355.4719252
51
355.6523316
0
ARC
8
back_labelLayer
10
20.3471649
20
95.8015479
40
2.2114456
50
95.1835189
51
145.1108942
0
ARC
8
back_labelLayer
10
20.5415407
20
94.7054365
40
3.3219812
50
89.8743098
51
96.8145131
0
ARC
8
back_labelLayer
10
20.3878399
20
94.4797847
40
2.733248
50
89.5731324
51
100.7324144
0
ARC
8
back_labelLayer
10
20.1855044
20
95.5020583
40
1.6911979
50
100.4469533
51
119.6700583
0
ARC
8
back_labelLayer
10
19.9978763
20
95.852852
40
1.2935634
50
120.1402921
51
142.4249147
0
ARC
8
back_labelLayer
10
20.3082927
20
95.647501
40
1.6650202
50
143.3382407
51
161.2559637
0
ARC
8
back_labelLayer
10
21.6063952
20
95.1866334
40
3.0424327
50
160.892661
51
171.2333996
0
ARC
8
back_labelLayer
10
23.7734056
20
94.8370466
40
5.2374293
50
171.0667963
51
177.8456831
0
ARC
8
back_labelLayer
10
26.0271442
20
94.7224218
40
7.4939433
50
177.6176651
51
180.0425001
0
ARC
8
back_labelLayer
10
24.9642765
20
94.6917489
40
6.4311224
50
179.7762537
51
185.7075129
0
ARC
8
back_labelLayer
10
22.4287143
20
94.4304983
40
3.8821564
50
185.5924947
51
194.2050809
0
ARC
8
back_labelLayer
10
20.8044605
20
94.008947
40
2.2041437
50
193.9430385
51
208.0218289
0
ARC
8
back_labelLayer
10
20.1472868
20
93.6746252
40
1.4670075
50
208.5536459
51
217.5604811
0
ARC
8
back_labelLayer
10
20.0937376
20
93.652352
40
1.4110603
50
218.169049
51
253.8047254
0
ARC
8
back_labelLayer
10
20.3554605
20
94.4592649
40
2.2591027
50
253.1382111
51
266.8483427
0
ARC
8
back_labelLayer
10
20.4288541
20
95.3247992
40
3.1274686
50
266.377576
51
270.0510487
0
ARC
8
back_labelLayer
10
20.4523894
20
94.1361975
40
1.9389767
50
269.386872
51
285.8630812
0
ARC
8
back_labelLayer
10
20.5964424
20
93.6155708
40
1.3988063
50
286.0163031
51
326.8497346
0
ARC
8
back_labelLayer
10
19.9011617
20
94.076169
40
2.2328013
50
326.7105011
51
343.6661615
0
ARC
8
back_labelLayer
10
18.5996596
20
94.4738672
40
3.5936539
50
343.4171074
51
353.636939
0
ARC
8
back_labelLayer
10
16.6338487
20
94.7071274
40
5.5732239
50
353.4934644
51
0.2205633
0
ARC
8
back_labelLayer
10
16.4605071
20
94.7518408
40
5.7465713
50
359.7680977
51
6.3095029
0
ARC
8
back_labelLayer
10
18.6251515
20
95.0002452
40
3.5677506
50
6.1648536
51
16.0396515
0
ARC
8
back_labelLayer
10
20.0195473
20
95.4111738
40
2.114119
50
15.7779489
51
32.0151334
0
ARC
8
back_labelLayer
10
20.4543041
20
95.6601393
40
1.6136143
50
32.7034147
51
35.5241062
0
ARC
8
back_labelLayer
10
20.6134045
20
95.7732167
40
1.418424
50
35.5408339
51
79.8011224
0
ARC
8
back_labelLayer
10
20.4229237
20
94.9634367
40
2.2495683
50
78.6781706
51
90.3749311
0
LINE
8
back_labelLayer
10
29.5839844
20
91.5000662
11
28.8632813
21
91.5000662
0
LINE
8
back_labelLayer
10
28.8632813
20
91.5000662
11
28.6699219
21
92.4141287
0
LINE
8
back_labelLayer
10
28.6699219
20
92.4141287
11
28.6230469
21
92.4141287
0
LINE
8
back_labelLayer
10
27.5449219
20
95.3145193
11
28.6347656
21
95.3496756
0
LINE
8
back_labelLayer
10
28.6347656
20
95.3496756
11
28.6347656
21
95.7481131
0
LINE
8
back_labelLayer
10
25.453125
20
96.7324881
11
25.1542969
21
97.4766287
0
LINE
8
back_labelLayer
10
29.5839844
20
95.8828787
11
29.5839844
21
91.5000662
0
LINE
8
back_labelLayer
10
28.6113281
20
94.0781912
11
28.6113281
21
94.6582693
0
LINE
8
back_labelLayer
10
28.6113281
20
94.6582693
11
27.6386719
21
94.6172537
0
ARC
8
back_labelLayer
10
25.4584029
20
94.9127703
40
4.0321435
50
314.7445046
51
321.7071778
0
ARC
8
back_labelLayer
10
26.4490369
20
93.9062082
40
2.6198811
50
304.8485825
51
314.8530935
0
ARC
8
back_labelLayer
10
26.9249155
20
93.2288455
40
1.792075
50
294.393314
51
304.7371502
0
ARC
8
back_labelLayer
10
26.7623398
20
93.6500974
40
2.2430155
50
281.2979345
51
293.7313643
0
ARC
8
back_labelLayer
10
26.5474189
20
94.6917002
40
3.3065461
50
272.9334734
51
281.4139438
0
ARC
8
back_labelLayer
10
26.4761806
20
95.760023
40
4.3771457
50
269.9538677
51
273.1490891
0
ARC
8
back_labelLayer
10
26.4515696
20
94.3677506
40
2.9849464
50
258.6719706
51
270.4047602
0
ARC
8
back_labelLayer
10
26.2442337
20
93.3759352
40
1.9717449
50
238.3273386
51
258.9183453
0
ARC
8
back_labelLayer
10
26.101344
20
93.1152513
40
1.67493
50
227.7689098
51
237.8050375
0
ARC
8
back_labelLayer
10
26.0566586
20
93.0528703
40
1.598731
50
192.0827705
51
227.4520684
0
ARC
8
back_labelLayer
10
26.8809044
20
93.2560537
40
2.4473875
50
179.5457484
51
192.6949147
0
ARC
8
back_labelLayer
10
26.1151855
20
93.3446667
40
1.6830154
50
115.4904586
51
182.3568144
0
ARC
8
back_labelLayer
10
26.9580558
20
91.7986717
40
3.4425815
50
101.3568001
51
117.0798788
0
ARC
8
back_labelLayer
10
27.6349622
20
88.6354309
40
6.6773054
50
92.4696209
51
101.7064895
0
ARC
8
back_labelLayer
10
27.8295276
20
85.8173898
40
9.5013931
50
91.7165003
51
92.9095693
0
ARC
8
back_labelLayer
10
25.8411057
20
95.7630673
40
2.7937
50
359.6933036
51
8.0035545
0
ARC
8
back_labelLayer
10
26.8979043
20
95.9170193
40
1.7257677
50
7.8272768
51
20.6041678
0
ARC
8
back_labelLayer
10
27.4959323
20
96.1457945
40
1.0854913
50
20.409421
51
41.4479502
0
ARC
8
back_labelLayer
10
27.5842913
20
96.1943622
40
0.9873594
50
42.7295771
51
71.0380235
0
ARC
8
back_labelLayer
10
27.3762653
20
95.6287334
40
1.5899429
50
70.5716508
51
83.9928608
0
ARC
8
back_labelLayer
10
27.2768861
20
94.8214917
40
2.4031951
50
83.6506448
51
90.1753505
0
ARC
8
back_labelLayer
10
27.2943185
20
94.0580143
40
3.1667583
50
90.4484768
51
103.7665587
0
ARC
8
back_labelLayer
10
27.6667172
20
92.4875952
40
4.7806981
50
103.6226649
51
112.431976
0
ARC
8
back_labelLayer
10
28.3049729
20
90.876035
40
6.5139142
50
112.2121803
51
115.9641468
0
ARC
8
back_labelLayer
10
27.2828099
20
93.5293239
40
4.4846162
50
106.3568591
51
118.3349664
0
ARC
8
back_labelLayer
10
27.4738255
20
92.9392631
40
5.1046175
50
104.5161785
51
106.5489317
0
ARC
8
back_labelLayer
10
27.333741
20
93.5229299
40
4.5044833
50
90.0714346
51
104.6520951
0
ARC
8
back_labelLayer
10
27.3514185
20
93.9195054
40
4.1079706
50
81.5679708
51
90.3248874
0
ARC
8
back_labelLayer
10
27.5889369
20
95.4668648
40
2.5425215
50
68.2273531
51
81.7494287
0
ARC
8
back_labelLayer
10
27.9197563
20
96.2899746
40
1.6554219
50
47.8683504
51
68.2933959
0
ARC
8
back_labelLayer
10
27.9734534
20
96.3971876
40
1.5402246
50
19.2330748
51
46.6741427
0
ARC
8
back_labelLayer
10
27.0790144
20
96.0644542
40
2.4944244
50
6.3378902
51
19.6815283
0
ARC
8
back_labelLayer
10
25.756784
20
95.8960575
40
3.8272231
50
359.802705
51
6.6583281
0
ARC
8
back_labelLayer
10
26.6856835
20
94.8635466
40
2.6780057
50
269.5792024
51
282.0413563
0
ARC
8
back_labelLayer
10
26.8810266
20
93.9970892
40
1.7898903
50
281.7120698
51
306.4594187
0
ARC
8
back_labelLayer
10
26.9676418
20
93.854646
40
1.6239241
50
306.988121
51
313.8559335
0
ARC
8
back_labelLayer
10
26.9573371
20
93.851695
40
1.6289633
50
314.1892037
51
347.4269676
0
ARC
8
back_labelLayer
10
26.1413591
20
94.0561766
40
2.4699835
50
346.9177285
51
0.2824826
0
ARC
8
back_labelLayer
10
25.5135717
20
94.0782481
40
3.0977565
50
359.817002
51
359.9989473
0
ARC
8
back_labelLayer
10
27.870043
20
87.4791292
40
7.1418733
50
91.8565033
51
96.4478297
0
ARC
8
back_labelLayer
10
27.5479669
20
90.2661613
40
4.3363077
50
96.3545538
51
102.9952934
0
ARC
8
back_labelLayer
10
27.1107707
20
92.1236882
40
2.4280561
50
102.7995518
51
113.2432871
0
ARC
8
back_labelLayer
10
26.7503591
20
92.9856587
40
1.4938409
50
113.5886773
51
121.6805132
0
ARC
8
back_labelLayer
10
26.4999549
20
93.3670178
40
1.0378795
50
120.9734143
51
172.4179896
0
ARC
8
back_labelLayer
10
26.9893887
20
93.2692556
40
1.5362738
50
171.2121787
51
180.2057777
0
ARC
8
back_labelLayer
10
26.8431168
20
93.252253
40
1.3900392
50
179.5265923
51
192.7787119
0
ARC
8
back_labelLayer
10
26.3728893
20
93.1382682
40
0.9062749
50
192.3264384
51
222.0580014
0
ARC
8
back_labelLayer
10
26.3378976
20
93.1173357
40
0.8663085
50
222.5804076
51
229.254767
0
ARC
8
back_labelLayer
10
26.4561056
20
93.2695214
40
1.0588064
50
229.7837093
51
254.2724202
0
ARC
8
back_labelLayer
10
26.6135203
20
93.7940904
40
1.6064327
50
253.9396607
51
266.4533898
0
ARC
8
back_labelLayer
10
26.663765
20
94.3732114
40
2.1875996
50
266.0782307
51
270.0589456
0
LINE
8
back_labelLayer
10
35.8710938
20
97.7051443
11
35.5722656
21
96.8789724
0
LINE
8
back_labelLayer
10
35.7773438
20
92.5781912
11
35.7773438
21
91.7168631
0
ARC
8
back_labelLayer
10
34.1232738
20
95.0179612
40
3.6352149
50
256.424394
51
270.4889698
0
ARC
8
back_labelLayer
10
33.8327866
20
93.8842072
40
2.4650047
50
221.7976422
51
256.8020409
0
ARC
8
back_labelLayer
10
34.1140892
20
94.0920505
40
2.8134329
50
196.0166703
51
221.1349315
0
ARC
8
back_labelLayer
10
35.5278995
20
94.5241828
40
4.2916679
50
183.5913751
51
196.3539482
0
ARC
8
back_labelLayer
10
37.1117342
20
94.6637141
40
5.8812689
50
179.938879
51
183.9815045
0
ARC
8
back_labelLayer
10
36.5970909
20
94.7045419
40
5.3667334
50
169.897848
51
180.3689025
0
ARC
8
back_labelLayer
10
34.7288103
20
95.0501449
40
3.46682
50
153.0875062
51
170.1051237
0
ARC
8
back_labelLayer
10
34.0199437
20
95.3888614
40
2.6814778
50
138.6550104
51
152.6853581
0
ARC
8
back_labelLayer
10
33.8876403
20
95.4852755
40
2.518506
50
101.4912894
51
138.3133959
0
ARC
8
back_labelLayer
10
34.1913736
20
94.2211713
40
3.8180555
50
89.589172
51
102.1787765
0
ARC
8
back_labelLayer
10
34.21473
20
93.6498031
40
4.3893274
50
77.7702497
51
89.9475253
0
ARC
8
back_labelLayer
10
34.1316475
20
93.1914485
40
4.8549058
50
74.6797288
51
77.9578633
0
ARC
8
back_labelLayer
10
34.580428
20
94.8173033
40
3.1682547
50
70.0945641
51
74.738659
0
ARC
8
back_labelLayer
10
35.0072764
20
95.9870872
40
1.9230324
50
63.5033897
51
70.1860855
0
ARC
8
back_labelLayer
10
35.2132121
20
96.417959
40
1.4455638
50
62.9283816
51
63.1892037
0
ARC
8
back_labelLayer
10
33.9744407
20
92.8578016
40
4.326992
50
68.3294447
51
74.8831287
0
ARC
8
back_labelLayer
10
33.7461509
20
92.0483115
40
5.1680141
50
74.7801998
51
77.4497259
0
ARC
8
back_labelLayer
10
33.9858308
20
93.17332
40
4.0178191
50
77.2998899
51
81.73451
0
ARC
8
back_labelLayer
10
34.1606364
20
94.3913529
40
2.7873091
50
81.6910386
51
87.507868
0
ARC
8
back_labelLayer
10
34.1943707
20
95.0217562
40
2.1560444
50
87.6750501
51
89.9749727
0
ARC
8
back_labelLayer
10
34.1470956
20
95.0208438
40
2.1574956
50
88.7194153
51
112.5667653
0
ARC
8
back_labelLayer
10
33.9937903
20
95.5277097
40
1.631466
50
114.4265695
51
161.6632823
0
ARC
8
back_labelLayer
10
35.5167168
20
94.9316187
40
3.2657465
50
160.1418231
51
175.1368058
0
ARC
8
back_labelLayer
10
37.6128409
20
94.6962396
40
5.3745794
50
174.5309694
51
180.1549277
0
ARC
8
back_labelLayer
10
36.9487461
20
94.657381
40
4.7105276
50
179.7041152
51
188.0743712
0
ARC
8
back_labelLayer
10
35.2520746
20
94.4091396
40
2.9958176
50
187.931529
51
200.3885643
0
ARC
8
back_labelLayer
10
34.3346716
20
94.0692871
40
2.0174894
50
200.4183306
51
216.6392485
0
ARC
8
back_labelLayer
10
33.9500701
20
93.7943456
40
1.5448292
50
216.9695252
51
261.3103063
0
ARC
8
back_labelLayer
10
34.1198031
20
94.5856776
40
2.3532155
50
260.1359782
51
270.2691969
0
ARC
8
back_labelLayer
10
34.1119683
20
96.3040992
40
4.071655
50
270.2658342
51
286.2891394
0
ARC
8
back_labelLayer
10
33.8644355
20
97.2272255
40
5.0271998
50
286.0460783
51
292.3653814
0
ARC
8
back_labelLayer
10
34.5236383
20
94.1832006
40
2.7666945
50
282.0344333
51
296.9454504
0
ARC
8
back_labelLayer
10
34.2391042
20
95.465479
40
4.0801314
50
272.5980297
51
282.1878686
0
ARC
8
back_labelLayer
10
34.157504
20
96.7169204
40
5.3340428
50
269.9655509
51
272.8643153
0
LINE
8
back_labelLayer
10
38.2148438
20
94.7871756
11
38.2617188
21
94.7871756
0
LINE
8
back_labelLayer
10
39.0292969
20
95.7246756
11
41.1035156
21
97.9219412
0
LINE
8
back_labelLayer
10
41.1035156
20
97.9219412
11
42.2578125
21
97.9219412
0
LINE
8
back_labelLayer
10
42.2578125
20
97.9219412
11
39.65625
21
95.1856131
0
LINE
8
back_labelLayer
10
39.65625
20
95.1856131
11
42.4394531
21
91.5000662
0
LINE
8
back_labelLayer
10
42.4394531
20
91.5000662
11
41.2617188
21
91.5000662
0
LINE
8
back_labelLayer
10
41.2617188
20
91.5000662
11
38.9941406
21
94.5352224
0
LINE
8
back_labelLayer
10
38.9941406
20
94.5352224
11
38.2617188
21
93.9024099
0
LINE
8
back_labelLayer
10
38.2617188
20
93.9024099
11
38.2617188
21
91.5000662
0
LINE
8
back_labelLayer
10
38.2617188
20
91.5000662
11
37.3007813
21
91.5000662
0
LINE
8
back_labelLayer
10
37.3007813
20
91.5000662
11
37.3007813
21
100.6172537
0
LINE
8
back_labelLayer
10
37.3007813
20
100.6172537
11
38.2617188
21
100.6172537
0
LINE
8
back_labelLayer
10
38.2617188
20
100.6172537
11
38.2617188
21
95.7832693
0
ARC
8
back_labelLayer
10
42.9613981
20
91.4605407
40
5.7579063
50
142.3233098
51
144.7075007
0
ARC
8
back_labelLayer
10
46.0278146
20
89.0953581
40
9.6305021
50
140.433157
51
142.3365947
0
ARC
8
back_labelLayer
10
50.0245086
20
85.80535
40
14.8071472
50
139.2799497
51
140.4702965
0
ARC
8
back_labelLayer
10
54.6430178
20
81.8337452
40
20.8984743
50
138.3417333
51
139.2877472
0
ARC
8
back_labelLayer
10
31.7799073
20
95.7953991
40
6.4818228
50
358.2739657
51
359.8927793
0
ARC
8
back_labelLayer
10
26.7380391
20
95.9359007
40
11.525641
50
357.5041615
51
358.330763
0
ARC
8
back_labelLayer
10
19.1889895
20
96.2693472
40
19.0820504
50
356.6325274
51
357.490971
0
ARC
8
back_labelLayer
10
6.6489128
20
97.000698
40
31.6434346
50
356.0328996
51
356.6443179
0
ARC
8
back_labelLayer
10
-2.9135494
20
97.6479644
40
41.2277678
50
356.0210568
51
356.0549279
0
LINE
8
right_outsideCutPath
10
66
20
126
11
66
21
114.5625
0
LINE
8
right_outsideCutPath
10
66
20
114.5625
11
63
21
114.5625
0
LINE
8
right_outsideCutPath
10
63
20
114.5625
11
63
21
102.1875
0
LINE
8
right_outsideCutPath
10
63
20
102.1875
11
66
21
102.1875
0
LINE
8
right_outsideCutPath
10
66
20
102.1875
11
66
21
89.8125
0
LINE
8
right_outsideCutPath
10
66
20
89.8125
11
63
21
89.8125
0
LINE
8
right_outsideCutPath
10
63
20
89.8125
11
63
21
77.4375
0
LINE
8
right_outsideCutPath
10
63
20
77.4375
11
66
21
77.4375
0
LINE
8
right_outsideCutPath
10
66
20
77.4375
11
66
21
66
0
LINE
8
right_outsideCutPath
10
66
20
66
11
79.6875
21
66
0
LINE
8
right_outsideCutPath
10
79.6875
20
66
11
79.6875
21
69
0
LINE
8
right_outsideCutPath
10
79.6875
20
69
11
92.0625
21
69
0
LINE
8
right_outsideCutPath
10
92.0625
20
69
11
92.0625
21
66
0
LINE
8
right_outsideCutPath
10
92.0625
20
66
11
104.4375
21
66
0
LINE
8
right_outsideCutPath
10
104.4375
20
66
11
104.4375
21
69
0
LINE
8
right_outsideCutPath
10
104.4375
20
69
11
116.8125
21
69
0
LINE
8
right_outsideCutPath
10
116.8125
20
69
11
116.8125
21
66
0
LINE
8
right_outsideCutPath
10
116.8125
20
66
11
129.1875
21
66
0
LINE
8
right_outsideCutPath
10
129.1875
20
66
11
129.1875
21
69
0
LINE
8
right_outsideCutPath
10
129.1875
20
69
11
141.5625
21
69
0
LINE
8
right_outsideCutPath
10
141.5625
20
69
11
141.5625
21
66
0
LINE
8
right_outsideCutPath
10
141.5625
20
66
11
153.9375
21
66
0
LINE
8
right_outsideCutPath
10
153.9375
20
66
11
153.9375
21
69
0
LINE
8
right_outsideCutPath
10
153.9375
20
69
11
166.3125
21
69
0
LINE
8
right_outsideCutPath
10
166.3125
20
69
11
166.3125
21
66
0
LINE
8
right_outsideCutPath
10
166.3125
20
66
11
178.6875
21
66
0
LINE
8
right_outsideCutPath
10
178.6875
20
66
11
180
21
66
0
LINE
8
right_outsideCutPath
10
180
20
66
11
180
21
77.4375
0
LINE
8
right_outsideCutPath
10
180
20
77.4375
11
183
21
77.4375
0
LINE
8
right_outsideCutPath
10
183
20
77.4375
11
183
21
89.8125
0
LINE
8
right_outsideCutPath
10
183
20
89.8125
11
180
21
89.8125
0
LINE
8
right_outsideCutPath
10
180
20
89.8125
11
180
21
102.1875
0
LINE
8
right_outsideCutPath
10
180
20
102.1875
11
183
21
102.1875
0
LINE
8
right_outsideCutPath
10
183
20
102.1875
11
183
21
114.5625
0
LINE
8
right_outsideCutPath
10
183
20
114.5625
11
180
21
114.5625
0
LINE
8
right_outsideCutPath
10
180
20
114.5625
11
180
21
126
0
LINE
8
right_outsideCutPath
10
180
20
126
11
166.3125
21
126
0
LINE
8
right_outsideCutPath
10
166.3125
20
126
11
166.3125
21
123
0
LINE
8
right_outsideCutPath
10
166.3125
20
123
11
153.9375
21
123
0
LINE
8
right_outsideCutPath
10
153.9375
20
123
11
153.9375
21
126
0
LINE
8
right_outsideCutPath
10
153.9375
20
126
11
141.5625
21
126
0
LINE
8
right_outsideCutPath
10
141.5625
20
126
11
141.5625
21
123
0
LINE
8
right_outsideCutPath
10
141.5625
20
123
11
129.1875
21
123
0
LINE
8
right_outsideCutPath
10
129.1875
20
123
11
129.1875
21
126
0
LINE
8
right_outsideCutPath
10
129.1875
20
126
11
116.8125
21
126
0
LINE
8
right_outsideCutPath
10
116.8125
20
126
11
116.8125
21
123
0
LINE
8
right_outsideCutPath
10
116.8125
20
123
11
104.4375
21
123
0
LINE
8
right_outsideCutPath
10
104.4375
20
123
11
104.4375
21
126
0
LINE
8
right_outsideCutPath
10
104.4375
20
126
11
92.0625
21
126
0
LINE
8
right_outsideCutPath
10
92.0625
20
126
11
92.0625
21
123
0
LINE
8
right_outsideCutPath
10
92.0625
20
123
11
79.6875
21
123
0
LINE
8
right_outsideCutPath
10
79.6875
20
123
11
79.6875
21
126
0
LINE
8
right_outsideCutPath
10
79.6875
20
126
11
67.3125
21
126
0
LINE
8
right_outsideCutPath
10
67.3125
20
126
11
66
21
126
0
LINE
8
right_labelLayer
10
114.2841797
20
99.3515978
11
114.1494141
21
98.4492541
0
LINE
8
right_labelLayer
10
111.5595703
20
96.3281603
11
111.5595703
21
92.8828478
0
LINE
8
right_labelLayer
10
111.5595703
20
92.8828478
11
110.5869141
21
92.8828478
0
LINE
8
right_labelLayer
10
110.5869141
20
92.8828478
11
110.5869141
21
99.3047228
0
LINE
8
right_labelLayer
10
110.5869141
20
99.3047228
11
111.3896484
21
99.3047228
0
LINE
8
right_labelLayer
10
111.3896484
20
99.3047228
11
111.5009766
21
98.1152697
0
LINE
8
right_labelLayer
10
111.5009766
20
98.1152697
11
111.5478516
21
98.1152697
0
ARC
8
right_labelLayer
10
113.5265872
20
94.9566308
40
4.4652907
50
84.9922934
51
90.1281292
0
ARC
8
right_labelLayer
10
113.633818
20
96.1580478
40
3.2590999
50
78.489206
51
85.026578
0
ARC
8
right_labelLayer
10
113.2175864
20
94.2649205
40
4.2868345
50
77.4454139
51
81.6359922
0
ARC
8
right_labelLayer
10
113.4043702
20
95.5523689
40
2.9859107
50
81.5884597
51
87.1916805
0
ARC
8
right_labelLayer
10
113.4449301
20
96.2556505
40
2.2814946
50
87.3437172
51
89.965871
0
ARC
8
right_labelLayer
10
113.4355096
20
96.8518542
40
1.685325
50
89.633529
51
137.0880829
0
ARC
8
right_labelLayer
10
113.8489861
20
96.3868589
40
2.3055145
50
135.6207307
51
138.8377984
0
ARC
8
right_labelLayer
10
113.7885143
20
96.4458957
40
2.2211354
50
138.9575867
51
174.5422106
0
ARC
8
right_labelLayer
10
114.5118885
20
96.3327107
40
2.9523215
50
173.6907919
51
180.0883096
0
ARC
8
right_labelLayer
10
114.409626
20
96.5029568
40
3.2847079
50
139.413952
51
150.6032546
0
ARC
8
right_labelLayer
10
113.820661
20
97.0076374
40
2.5090906
50
124.2321211
51
139.416124
0
ARC
8
right_labelLayer
10
113.5057614
20
97.4829789
40
1.9389618
50
89.679674
51
124.4405597
0
LINE
8
right_labelLayer
10
116.4580078
20
99.3047228
11
116.4580078
21
92.8828478
0
LINE
8
right_labelLayer
10
116.4580078
20
92.8828478
11
115.4853516
21
92.8828478
0
LINE
8
right_labelLayer
10
115.4853516
20
92.8828478
11
115.4853516
21
99.3047228
0
LINE
8
right_labelLayer
10
115.4853516
20
99.3047228
11
116.4580078
21
99.3047228
0
ARC
8
right_labelLayer
10
116.4811336
20
101.0516243
40
1.0778339
50
170.8452476
51
180.3544122
0
ARC
8
right_labelLayer
10
116.077635
20
101.1190881
40
0.6687457
50
155.9679298
51
171.0514946
0
ARC
8
right_labelLayer
10
115.8821946
20
101.2057937
40
0.4549362
50
133.7879252
51
155.9171857
0
ARC
8
right_labelLayer
10
115.9543503
20
101.1260228
40
0.5624631
50
92.6446546
51
133.4710021
0
ARC
8
right_labelLayer
10
115.9771405
20
100.9470152
40
0.7424733
50
89.9692443
51
93.7641536
0
ARC
8
right_labelLayer
10
115.9864197
20
101.1164804
40
0.5730769
50
46.3708348
51
90.8879139
0
ARC
8
right_labelLayer
10
116.0434537
20
101.1753607
40
0.4911058
50
17.7252486
51
46.4473265
0
ARC
8
right_labelLayer
10
115.7775004
20
101.0837753
40
0.7723423
50
4.9426659
51
18.1901932
0
ARC
8
right_labelLayer
10
115.439142
20
101.0471947
40
1.1126181
50
359.8847744
51
5.31818
0
ARC
8
right_labelLayer
10
115.545434
20
101.0381222
40
1.006347
50
349.8344246
51
0.3891471
0
ARC
8
right_labelLayer
10
115.9117974
20
100.9697765
40
0.6336776
50
332.632169
51
350.0706087
0
ARC
8
right_labelLayer
10
116.0543948
20
100.8993616
40
0.4746805
50
313.6153908
51
332.2678154
0
ARC
8
right_labelLayer
10
115.9856713
20
100.9619375
40
0.5674292
50
269.1788288
51
314.280739
0
ARC
8
right_labelLayer
10
115.9710919
20
101.012381
40
0.617848
50
250.5000603
51
270.5978888
0
ARC
8
right_labelLayer
10
115.9523935
20
100.942462
40
0.5457276
50
225.1300567
51
249.900185
0
ARC
8
right_labelLayer
10
115.9231211
20
100.9101255
40
0.5021629
50
197.7934066
51
224.894131
0
ARC
8
right_labelLayer
10
116.1971184
20
101.0040213
40
0.791767
50
184.9925882
51
198.2040513
0
ARC
8
right_labelLayer
10
116.5516778
20
101.042563
40
1.1483601
50
179.8805448
51
185.3687518
0
LINE
8
right_labelLayer
10
121.5556641
20
99.3047228
11
123.7763672
21
99.3047228
0
LINE
8
right_labelLayer
10
123.7763672
20
99.3047228
11
123.7763672
21
98.6894884
0
LINE
8
right_labelLayer
10
123.7763672
20
98.6894884
11
122.5869141
21
98.5488634
0
LINE
8
right_labelLayer
10
120.3955078
20
93.9023791
11
121.5322266
21
93.9023791
0
LINE
8
right_labelLayer
10
121.2216797
20
93.0293322
11
120.0556641
21
93.0293322
0
ARC
8
right_labelLayer
10
121.3474189
20
97.5679414
40
1.5806822
50
29.4583921
51
38.3576804
0
ARC
8
right_labelLayer
10
120.7014822
20
97.1992019
40
2.3244532
50
23.1845517
51
29.542204
0
ARC
8
right_labelLayer
10
120.0847944
20
96.9257358
40
2.9990126
50
21.2507909
51
23.3487608
0
ARC
8
right_labelLayer
10
121.1327629
20
97.3425219
40
1.8712583
50
6.8505143
51
20.9871995
0
ARC
8
right_labelLayer
10
120.6057665
20
97.2710691
40
2.4030286
50
359.8710362
51
7.0432357
0
ARC
8
right_labelLayer
10
120.7791384
20
97.2424754
40
2.2297712
50
342.5649978
51
0.5957657
0
ARC
8
right_labelLayer
10
121.1903784
20
97.1289172
40
1.8034611
50
310.6097657
51
342.0923769
0
ARC
8
right_labelLayer
10
120.9597717
20
97.3971542
40
2.1571989
50
284.931571
51
310.6222763
0
ARC
8
right_labelLayer
10
120.6711955
20
98.408359
40
3.2086678
50
272.5334736
51
285.2579877
0
ARC
8
right_labelLayer
10
120.5970018
20
99.4216782
40
4.2243779
50
269.9691413
51
272.931276
0
ARC
8
right_labelLayer
10
120.5877884
20
98.323227
40
3.1259338
50
263.4836445
51
270.1271716
0
ARC
8
right_labelLayer
10
120.5368529
20
97.8394975
40
2.6395524
50
259.4962766
51
263.3905106
0
ARC
8
right_labelLayer
10
120.8520017
20
93.7074561
40
1.7307979
50
117.3934666
51
128.4095245
0
ARC
8
right_labelLayer
10
120.4064291
20
94.2602217
40
1.0208477
50
128.088195
51
147.1400144
0
ARC
8
right_labelLayer
10
120.1663791
20
94.4213147
40
0.7318163
50
147.5369392
51
180.2591989
0
ARC
8
right_labelLayer
10
119.9386479
20
94.4117739
40
0.5041161
50
179.291892
51
198.3580686
0
ARC
8
right_labelLayer
10
119.8442616
20
94.3869683
40
0.4067678
50
199.2291879
51
239.5691196
0
ARC
8
right_labelLayer
10
119.9223912
20
94.4948882
40
0.539543
50
238.2197789
51
239.8462927
0
ARC
8
right_labelLayer
10
119.984955
20
94.6235378
40
0.6822922
50
240.7302324
51
254.5026952
0
ARC
8
right_labelLayer
10
120.1711716
20
95.2652271
40
1.3504311
50
254.1636384
51
262.2123264
0
ARC
8
right_labelLayer
10
120.3186714
20
96.2954334
40
2.3911312
50
262.05552
51
267.2084009
0
ARC
8
right_labelLayer
10
120.3899334
20
97.6023523
40
3.6999776
50
267.0918559
51
270.0863228
0
ARC
8
right_labelLayer
10
121.5534897
20
89.9209616
40
3.9814742
50
81.574402
51
90.3059903
0
ARC
8
right_labelLayer
10
121.7718843
20
91.3452733
40
2.5405456
50
68.3671191
51
81.7399437
0
ARC
8
right_labelLayer
10
122.0571253
20
92.0742438
40
1.7577673
50
52.1879451
51
68.2500743
0
ARC
8
right_labelLayer
10
122.2567182
20
92.3431804
40
1.4229537
50
8.6201291
51
51.8982617
0
ARC
8
right_labelLayer
10
121.5571832
20
92.1951652
40
2.1371744
50
359.7430879
51
9.7326459
0
ARC
8
right_labelLayer
10
121.5885171
20
92.1591121
40
2.1059852
50
340.5268813
51
0.7201681
0
ARC
8
right_labelLayer
10
121.8979356
20
92.0820714
40
1.7888436
50
302.9903728
51
339.5494431
0
ARC
8
right_labelLayer
10
121.5738636
20
92.4937101
40
2.3110592
50
303.1867453
51
304.1726087
0
ARC
8
right_labelLayer
10
121.2704103
20
93.0189379
40
2.9169114
50
286.2542199
51
302.5279884
0
ARC
8
right_labelLayer
10
120.7195213
20
94.8360292
40
4.8156087
50
276.4939992
51
286.4953466
0
ARC
8
right_labelLayer
10
120.3758064
20
97.7093072
40
7.7093426
50
269.7544984
51
276.6169554
0
ARC
8
right_labelLayer
10
120.317102
20
95.4495131
40
5.4495383
50
262.5634902
51
270.2699068
0
ARC
8
right_labelLayer
10
120.0501961
20
93.4712004
40
3.453331
50
251.2102033
51
262.7063923
0
ARC
8
right_labelLayer
10
119.6654916
20
92.3420339
40
2.2604294
50
235.9668216
51
251.2229017
0
ARC
8
right_labelLayer
10
119.2577377
20
91.7603284
40
1.5502024
50
208.903617
51
236.423153
0
ARC
8
right_labelLayer
10
119.2951708
20
91.7446374
40
1.5757101
50
182.2079908
51
207.7461672
0
ARC
8
right_labelLayer
10
119.7716622
20
91.7922349
40
2.0538891
50
179.9785438
51
183.0227078
0
ARC
8
right_labelLayer
10
119.204783
20
91.8190966
40
1.4872385
50
138.3916167
51
181.0052657
0
ARC
8
right_labelLayer
10
119.3618371
20
91.6779515
40
1.6983938
50
113.8121326
51
138.3496219
0
ARC
8
right_labelLayer
10
119.6597485
20
91.0346394
40
2.4072561
50
102.2870611
51
114.1172949
0
ARC
8
right_labelLayer
10
119.5661398
20
94.305328
40
1.0094899
50
216.5861421
51
245.4968716
0
ARC
8
right_labelLayer
10
119.7104839
20
94.4278079
40
1.1984578
50
215.4649337
51
217.1748205
0
ARC
8
right_labelLayer
10
119.4699457
20
94.2540712
40
0.9017458
50
182.1767379
51
215.341533
0
ARC
8
right_labelLayer
10
119.6843304
20
94.2770649
40
1.1169477
50
179.9838832
51
182.9377112
0
ARC
8
right_labelLayer
10
119.6796322
20
94.2867814
40
1.1122892
50
161.7226161
51
180.4843343
0
ARC
8
right_labelLayer
10
119.5573344
20
94.3201532
40
0.9857178
50
144.4963509
51
161.3351101
0
ARC
8
right_labelLayer
10
119.8833248
20
94.0771985
40
1.3922222
50
132.7258731
51
144.1480304
0
ARC
8
right_labelLayer
10
120.4058229
20
93.5192314
40
2.1566263
50
125.2212676
51
132.8654987
0
ARC
8
right_labelLayer
10
120.9310562
20
92.7898872
40
3.0553827
50
121.2352113
51
125.3795488
0
ARC
8
right_labelLayer
10
119.9999036
20
96.9774405
40
1.7051452
50
215.1640888
51
247.4747894
0
ARC
8
right_labelLayer
10
120.3181527
20
97.2342822
40
2.1134043
50
212.4712708
51
215.8875177
0
ARC
8
right_labelLayer
10
120.2344963
20
97.1744342
40
2.0107037
50
183.0160731
51
212.3123155
0
ARC
8
right_labelLayer
10
120.6757767
20
97.2236175
40
2.4540974
50
179.9760181
51
183.6206942
0
ARC
8
right_labelLayer
10
121.0317483
20
97.2483805
40
2.8101689
50
166.819593
51
180.4839499
0
ARC
8
right_labelLayer
10
120.0995037
20
97.4837511
40
1.8488881
50
132.3287739
51
167.3340751
0
ARC
8
right_labelLayer
10
120.2242255
20
97.3044734
40
2.0656095
50
106.2189005
51
131.5377521
0
ARC
8
right_labelLayer
10
120.539795
20
96.2826833
40
3.1349245
50
93.6329817
51
106.5408696
0
ARC
8
right_labelLayer
10
120.6428145
20
95.1260881
40
4.2958247
50
89.9380282
51
94.0267731
0
ARC
8
right_labelLayer
10
120.6594943
20
95.6936692
40
3.7282605
50
82.5852258
51
90.1849288
0
ARC
8
right_labelLayer
10
120.7734146
20
96.5750909
40
2.8395079
50
74.0089192
51
82.5694669
0
ARC
8
right_labelLayer
10
119.6320579
20
91.7914378
40
0.9768748
50
179.2207828
51
200.9355106
0
ARC
8
right_labelLayer
10
119.5158857
20
91.7645384
40
0.8589166
50
202.0286872
51
236.1457594
0
ARC
8
right_labelLayer
10
119.6910194
20
91.9869196
40
1.1413622
50
235.0635676
51
238.5039582
0
ARC
8
right_labelLayer
10
119.894505
20
92.350389
40
1.5576789
50
239.1066008
51
254.4863109
0
ARC
8
right_labelLayer
10
120.1658886
20
93.2861161
40
2.5319258
50
254.2324423
51
263.4937082
0
ARC
8
right_labelLayer
10
120.3363525
20
94.7299304
40
3.9857609
50
263.4108489
51
270.1457342
0
ARC
8
right_labelLayer
10
120.3544876
20
95.7406754
40
4.9964994
50
269.9082945
51
270.0000525
0
ARC
8
right_labelLayer
10
120.3778009
20
97.2828717
40
6.5387373
50
269.7957564
51
275.3990873
0
ARC
8
right_labelLayer
10
120.6225237
20
94.7705227
40
4.0145143
50
275.2957006
51
283.3515841
0
ARC
8
right_labelLayer
10
121.0212298
20
93.1283227
40
2.3246455
50
283.1370735
51
295.8573035
0
ARC
8
right_labelLayer
10
121.3166536
20
92.4833678
40
1.6154917
50
296.404847
51
301.8009309
0
ARC
8
right_labelLayer
10
121.4324895
20
92.3237054
40
1.4188276
50
301.2230521
51
318.6238272
0
ARC
8
right_labelLayer
10
121.6937353
20
92.0823831
40
1.0633115
50
319.0765393
51
1.1406878
0
ARC
8
right_labelLayer
10
121.4409016
20
92.1139761
40
1.3159757
50
359.5460992
51
10.9904864
0
ARC
8
right_labelLayer
10
121.9492121
20
92.2173655
40
0.7972906
50
10.6609371
51
30.9361145
0
ARC
8
right_labelLayer
10
122.1103846
20
92.306809
40
0.6130957
50
31.509603
51
58.0777113
0
ARC
8
right_labelLayer
10
121.9593334
20
92.0363448
40
0.9226463
50
58.9971827
51
73.8586696
0
ARC
8
right_labelLayer
10
121.6540124
20
91.0368203
40
1.9677104
50
73.4099726
51
81.5906809
0
ARC
8
right_labelLayer
10
121.395327
20
89.3627891
40
3.6615911
50
81.4171898
51
86.5757103
0
ARC
8
right_labelLayer
10
121.2367905
20
86.840366
40
6.1889847
50
86.5054417
51
90.1398913
0
ARC
8
right_labelLayer
10
120.0417539
20
90.7935102
40
2.2358652
50
89.6435401
51
100.0208816
0
ARC
8
right_labelLayer
10
119.9012268
20
91.5579767
40
1.4586183
50
99.8103054
51
116.8229444
0
ARC
8
right_labelLayer
10
119.7643364
20
91.8466605
40
1.1392544
50
117.2304444
51
130.502363
0
ARC
8
right_labelLayer
10
119.6940534
20
91.93699
40
1.0249358
50
130.794473
51
169.0413581
0
ARC
8
right_labelLayer
10
120.2116279
20
91.8150994
40
1.5563891
50
168.2580642
51
180.3819984
0
ARC
8
right_labelLayer
10
121.081154
20
97.2335596
40
1.8985924
50
179.5617319
51
191.652928
0
ARC
8
right_labelLayer
10
120.4210423
20
97.0909391
40
1.2232958
50
191.355523
51
213.3660168
0
ARC
8
right_labelLayer
10
120.2625136
20
96.9994034
40
1.0406088
50
213.9573784
51
227.7971132
0
ARC
8
right_labelLayer
10
120.4004363
20
97.1666832
40
1.2572167
50
228.2620821
51
254.7341102
0
ARC
8
right_labelLayer
10
120.5766399
20
97.7707121
40
1.8863578
50
254.4016348
51
267.4348936
0
ARC
8
right_labelLayer
10
120.6226153
20
98.3873149
40
2.5044676
50
267.0154665
51
270.0322156
0
ARC
8
right_labelLayer
10
120.65266
20
98.0016275
40
2.1189732
50
269.2256608
51
284.3773503
0
ARC
8
right_labelLayer
10
120.9414727
20
96.995405
40
1.0729672
50
282.7796786
51
346.4828402
0
ARC
8
right_labelLayer
10
120.0779919
20
97.2399906
40
1.9700268
50
345.4362465
51
0.7465919
0
ARC
8
right_labelLayer
10
119.9566173
20
97.2955677
40
2.0914481
50
359.180651
51
15.0431737
0
ARC
8
right_labelLayer
10
120.9042908
20
97.5720142
40
1.1046999
50
13.9535587
51
77.667375
0
ARC
8
right_labelLayer
10
120.6323938
20
96.5976451
40
2.11544
50
76.1095378
51
90.7028214
0
ARC
8
right_labelLayer
10
120.5916961
20
96.6720771
40
2.0409021
50
89.585931
51
101.333435
0
ARC
8
right_labelLayer
10
120.4458459
20
97.3677135
40
1.3301833
50
101.0620337
51
121.9739087
0
ARC
8
right_labelLayer
10
120.3433456
20
97.5521069
40
1.1195381
50
122.5211393
51
134.9967207
0
ARC
8
right_labelLayer
10
120.3855474
20
97.5268215
40
1.1673195
50
135.5839838
51
163.0015985
0
ARC
8
right_labelLayer
10
121.0019801
20
97.3247761
40
1.8159356
50
162.5911813
51
175.7343048
0
ARC
8
right_labelLayer
10
121.7412821
20
97.2519428
40
2.5586679
50
175.339271
51
180.0864506
0
LINE
8
right_labelLayer
10
130.4619141
20
92.8828478
11
129.4892578
21
92.8828478
0
LINE
8
right_labelLayer
10
129.4892578
20
92.8828478
11
129.4892578
21
97.0371447
0
LINE
8
right_labelLayer
10
126.0673828
20
96.2402697
11
126.0673828
21
92.8828478
0
LINE
8
right_labelLayer
10
126.0673828
20
92.8828478
11
125.0947266
21
92.8828478
0
LINE
8
right_labelLayer
10
125.0947266
20
92.8828478
11
125.0947266
21
102.0000353
0
LINE
8
right_labelLayer
10
125.0947266
20
102.0000353
11
126.0673828
21
102.0000353
0
LINE
8
right_labelLayer
10
126.0673828
20
102.0000353
11
126.0673828
21
99.2402697
0
LINE
8
right_labelLayer
10
126.0205078
20
98.4140978
11
126.0791016
21
98.4140978
0
LINE
8
right_labelLayer
10
130.4619141
20
97.0723009
11
130.4619141
21
92.8828478
0
ARC
8
right_labelLayer
10
126.7398417
20
97.0529114
40
2.7494613
50
359.6714377
51
8.6877277
0
ARC
8
right_labelLayer
10
127.7588689
20
97.2145216
40
1.7177251
50
8.4931688
51
22.6579712
0
ARC
8
right_labelLayer
10
128.276608
20
97.4296768
40
1.1570609
50
22.7024636
51
42.3419466
0
ARC
8
right_labelLayer
10
128.334806
20
97.4558569
40
1.0965906
50
43.3790826
51
71.5386074
0
ARC
8
right_labelLayer
10
128.1171846
20
96.8477702
40
1.7423518
50
71.0827676
51
84.3691548
0
ARC
8
right_labelLayer
10
128.0194921
20
96.0171511
40
2.5785963
50
84.019816
51
90.1510225
0
ARC
8
right_labelLayer
10
127.9917331
20
95.6524151
40
2.943398
50
89.5919484
51
100.3595211
0
ARC
8
right_labelLayer
10
127.7833127
20
96.74769
40
1.8285162
50
100.1067785
51
118.0847599
0
ARC
8
right_labelLayer
10
127.5713359
20
97.16364
40
1.3617782
50
118.4551334
51
139.6705879
0
ARC
8
right_labelLayer
10
127.784151
20
97.0181784
40
1.6183774
50
140.6208301
51
160.5048649
0
ARC
8
right_labelLayer
10
128.9059017
20
96.6029099
40
2.814456
50
160.1566894
51
171.5313037
0
ARC
8
right_labelLayer
10
130.7209333
20
96.3153373
40
4.6520795
50
171.3202155
51
178.3406773
0
ARC
8
right_labelLayer
10
132.3447627
20
96.242791
40
6.2773802
50
178.1079722
51
180.0230129
0
ARC
8
right_labelLayer
10
117.3177391
20
99.2298349
40
8.7496499
50
357.8674237
51
0.0683305
0
ARC
8
right_labelLayer
10
120.2902866
20
99.1164211
40
5.7749414
50
354.9828039
51
357.894422
0
ARC
8
right_labelLayer
10
122.2529561
20
98.9455135
40
3.8048454
50
351.9713565
51
354.9618426
0
ARC
8
right_labelLayer
10
127.7266158
20
97.3835206
40
1.9432942
50
119.8315832
51
147.9725932
0
ARC
8
right_labelLayer
10
127.9619228
20
97.0220477
40
2.3740474
50
116.6658011
51
120.4183294
0
ARC
8
right_labelLayer
10
128.0058668
20
96.9066195
40
2.4969514
50
96.6652577
51
116.378227
0
ARC
8
right_labelLayer
10
128.1005352
20
96.2534532
40
3.1567438
50
89.8927306
51
96.995895
0
ARC
8
right_labelLayer
10
128.1308084
20
95.4640761
40
3.9461906
50
80.686286
51
90.3537369
0
ARC
8
right_labelLayer
10
128.3765255
20
96.9093333
40
2.4802343
50
65.6022834
51
80.8844314
0
ARC
8
right_labelLayer
10
128.6715813
20
97.5738677
40
1.7531739
50
46.7401012
51
65.4130355
0
ARC
8
right_labelLayer
10
128.6916388
20
97.637191
40
1.6935578
50
19.2204257
51
45.7660745
0
ARC
8
right_labelLayer
10
127.7151095
20
97.2751849
40
2.7349038
50
6.4734097
51
19.6467774
0
ARC
8
right_labelLayer
10
126.2559831
20
97.0873863
40
4.205958
50
359.7944994
51
6.7744191
0
LINE
8
right_labelLayer
10
135.4130859
20
93.6855822
11
135.4130859
21
92.9414416
0
LINE
8
right_labelLayer
10
132.5302734
20
94.7285509
11
132.5302734
21
98.5488634
0
LINE
8
right_labelLayer
10
132.5302734
20
98.5488634
11
131.6103516
21
98.5488634
0
LINE
8
right_labelLayer
10
131.6103516
20
98.5488634
11
131.6103516
21
99.0176134
0
LINE
8
right_labelLayer
10
131.6103516
20
99.0176134
11
132.5302734
21
99.4219103
0
LINE
8
right_labelLayer
10
132.5302734
20
99.4219103
11
132.9404297
21
100.7930041
0
LINE
8
right_labelLayer
10
132.9404297
20
100.7930041
11
133.5029297
21
100.7930041
0
LINE
8
right_labelLayer
10
133.5029297
20
100.7930041
11
133.5029297
21
99.3047228
0
LINE
8
right_labelLayer
10
133.5029297
20
99.3047228
11
135.3662109
21
99.3047228
0
LINE
8
right_labelLayer
10
135.3662109
20
99.3047228
11
135.3662109
21
98.5488634
0
LINE
8
right_labelLayer
10
135.3662109
20
98.5488634
11
133.5029297
21
98.5488634
0
LINE
8
right_labelLayer
10
133.5029297
20
98.5488634
11
133.5029297
21
94.7695666
0
ARC
8
right_labelLayer
10
134.5408514
20
96.7627227
40
3.1943349
50
269.8803316
51
278.3028128
0
ARC
8
right_labelLayer
10
134.5713763
20
96.513482
40
2.9433042
50
278.4154565
51
279.0081992
0
ARC
8
right_labelLayer
10
134.212805
20
98.8041686
40
5.261883
50
278.9590101
51
280.5103943
0
ARC
8
right_labelLayer
10
134.5544435
20
96.9710784
40
3.3972294
50
280.4846699
51
282.6267916
0
ARC
8
right_labelLayer
10
134.8539834
20
95.6403032
40
2.0331605
50
282.58766
51
285.5794473
0
ARC
8
right_labelLayer
10
135.0035315
20
95.0901478
40
1.4630582
50
285.7245036
51
286.256048
0
ARC
8
right_labelLayer
10
135.0041498
20
93.8063637
40
0.9567231
50
287.9889364
51
295.3048339
0
ARC
8
right_labelLayer
10
134.7734133
20
94.5044497
40
1.6919474
50
283.3068834
51
288.1198185
0
ARC
8
right_labelLayer
10
134.5296343
20
95.5213255
40
2.7376329
50
280.0070235
51
283.3735007
0
ARC
8
right_labelLayer
10
134.3664184
20
96.4070847
40
3.6382848
50
279.1865037
51
280.114353
0
ARC
8
right_labelLayer
10
134.2664134
20
96.9759665
40
4.215843
50
275.5260628
51
279.2938845
0
ARC
8
right_labelLayer
10
134.3792464
20
95.7974202
40
3.0319087
50
270.8932098
51
275.5484296
0
ARC
8
right_labelLayer
10
134.3934024
20
95.2591913
40
2.4935312
50
270.0034988
51
270.760768
0
ARC
8
right_labelLayer
10
134.3543044
20
95.3057908
40
2.5404337
50
253.7847948
51
270.8852676
0
ARC
8
right_labelLayer
10
134.0533309
20
94.2793568
40
1.4707878
50
190.3817671
51
253.8772449
0
ARC
8
right_labelLayer
10
135.5873824
20
94.6941387
40
3.0573026
50
179.3550796
51
192.847783
0
ARC
8
right_labelLayer
10
135.4614918
20
94.7573169
40
1.9586004
50
179.6416535
51
189.7506216
0
ARC
8
right_labelLayer
10
134.7700706
20
94.6339921
40
1.2562889
50
189.5479422
51
205.7873769
0
ARC
8
right_labelLayer
10
134.48593
20
94.5029669
40
0.9434612
50
206.1294926
51
221.4083587
0
ARC
8
right_labelLayer
10
134.4540648
20
94.4787887
40
0.9035747
50
221.5949308
51
262.3505242
0
ARC
8
right_labelLayer
10
134.5298376
20
94.8684261
40
1.3000387
50
261.3265388
51
270.1913673
0
LINE
8
bottom_outsideCutPath
10
189
20
243
11
189
21
229.3125
0
LINE
8
bottom_outsideCutPath
10
189
20
229.3125
11
186
21
229.3125
0
LINE
8
bottom_outsideCutPath
10
186
20
229.3125
11
186
21
216.9375
0
LINE
8
bottom_outsideCutPath
10
186
20
216.9375
11
189
21
216.9375
0
LINE
8
bottom_outsideCutPath
10
189
20
216.9375
11
189
21
204.5625
0
LINE
8
bottom_outsideCutPath
10
189
20
204.5625
11
186
21
204.5625
0
LINE
8
bottom_outsideCutPath
10
186
20
204.5625
11
186
21
192.1875
0
LINE
8
bottom_outsideCutPath
10
186
20
192.1875
11
189
21
192.1875
0
LINE
8
bottom_outsideCutPath
10
189
20
192.1875
11
189
21
179.8125
0
LINE
8
bottom_outsideCutPath
10
189
20
179.8125
11
186
21
179.8125
0
LINE
8
bottom_outsideCutPath
10
186
20
179.8125
11
186
21
167.4375
0
LINE
8
bottom_outsideCutPath
10
186
20
167.4375
11
189
21
167.4375
0
LINE
8
bottom_outsideCutPath
10
189
20
167.4375
11
189
21
155.0625
0
LINE
8
bottom_outsideCutPath
10
189
20
155.0625
11
186
21
155.0625
0
LINE
8
bottom_outsideCutPath
10
186
20
155.0625
11
186
21
142.6875
0
LINE
8
bottom_outsideCutPath
10
186
20
142.6875
11
189
21
142.6875
0
LINE
8
bottom_outsideCutPath
10
189
20
142.6875
11
189
21
130.3125
0
LINE
8
bottom_outsideCutPath
10
189
20
130.3125
11
189
21
129
0
LINE
8
bottom_outsideCutPath
10
189
20
129
11
197.4375
21
129
0
LINE
8
bottom_outsideCutPath
10
197.4375
20
129
11
197.4375
21
126
0
LINE
8
bottom_outsideCutPath
10
197.4375
20
126
11
209.8125
21
126
0
LINE
8
bottom_outsideCutPath
10
209.8125
20
126
11
209.8125
21
129
0
LINE
8
bottom_outsideCutPath
10
209.8125
20
129
11
222.1875
21
129
0
LINE
8
bottom_outsideCutPath
10
222.1875
20
129
11
222.1875
21
126
0
LINE
8
bottom_outsideCutPath
10
222.1875
20
126
11
234.5625
21
126
0
LINE
8
bottom_outsideCutPath
10
234.5625
20
126
11
234.5625
21
129
0
LINE
8
bottom_outsideCutPath
10
234.5625
20
129
11
243
21
129
0
LINE
8
bottom_outsideCutPath
10
243
20
129
11
243
21
142.6875
0
LINE
8
bottom_outsideCutPath
10
243
20
142.6875
11
246
21
142.6875
0
LINE
8
bottom_outsideCutPath
10
246
20
142.6875
11
246
21
155.0625
0
LINE
8
bottom_outsideCutPath
10
246
20
155.0625
11
243
21
155.0625
0
LINE
8
bottom_outsideCutPath
10
243
20
155.0625
11
243
21
167.4375
0
LINE
8
bottom_outsideCutPath
10
243
20
167.4375
11
246
21
167.4375
0
LINE
8
bottom_outsideCutPath
10
246
20
167.4375
11
246
21
179.8125
0
LINE
8
bottom_outsideCutPath
10
246
20
179.8125
11
243
21
179.8125
0
LINE
8
bottom_outsideCutPath
10
243
20
179.8125
11
243
21
192.1875
0
LINE
8
bottom_outsideCutPath
10
243
20
192.1875
11
246
21
192.1875
0
LINE
8
bottom_outsideCutPath
10
246
20
192.1875
11
246
21
204.5625
0
LINE
8
bottom_outsideCutPath
10
246
20
204.5625
11
243
21
204.5625
0
LINE
8
bottom_outsideCutPath
10
243
20
204.5625
11
243
21
216.9375
0
LINE
8
bottom_outsideCutPath
10
243
20
216.9375
11
246
21
216.9375
0
LINE
8
bottom_outsideCutPath
10
246
20
216.9375
11
246
21
229.3125
0
LINE
8
bottom_outsideCutPath
10
246
20
229.3125
11
243
21
229.3125
0
LINE
8
bottom_outsideCutPath
10
243
20
229.3125
11
243
21
241.6875
0
LINE
8
bottom_outsideCutPath
10
243
20
241.6875
11
243
21
243
0
LINE
8
bottom_outsideCutPath
10
243
20
243
11
234.5625
21
243
0
LINE
8
bottom_outsideCutPath
10
234.5625
20
243
11
234.5625
21
246
0
LINE
8
bottom_outsideCutPath
10
234.5625
20
246
11
222.1875
21
246
0
LINE
8
bottom_outsideCutPath
10
222.1875
20
246
11
222.1875
21
243
0
LINE
8
bottom_outsideCutPath
10
222.1875
20
243
11
209.8125
21
243
0
LINE
8
bottom_outsideCutPath
10
209.8125
20
243
11
209.8125
21
246
0
LINE
8
bottom_outsideCutPath
10
209.8125
20
246
11
197.4375
21
246
0
LINE
8
bottom_outsideCutPath
10
197.4375
20
246
11
197.4375
21
243
0
LINE
8
bottom_outsideCutPath
10
197.4375
20
243
11
189
21
243
0
LINE
8
bottom_labelLayer
10
197.2323934
20
182.3263235
11
197.1620809
21
182.3263235
0
LINE
8
bottom_labelLayer
10
197.1620809
20
182.3263235
11
196.9570028
21
181.5001516
0
LINE
8
bottom_labelLayer
10
196.9570028
20
181.5001516
11
196.2597371
21
181.5001516
0
LINE
8
bottom_labelLayer
10
196.2597371
20
181.5001516
11
196.2597371
21
190.6173391
0
LINE
8
bottom_labelLayer
10
196.2597371
20
190.6173391
11
197.2323934
21
190.6173391
0
LINE
8
bottom_labelLayer
10
197.2323934
20
190.6173391
11
197.2323934
21
188.4024954
0
LINE
8
bottom_labelLayer
10
197.1855184
20
187.0665579
11
197.2323934
21
187.0665579
0
ARC
8
bottom_labelLayer
10
199.2771968
20
185.0548633
40
2.9727752
50
74.2393332
51
90.5623791
0
ARC
8
bottom_labelLayer
10
199.4737662
20
185.775988
40
2.2253795
50
38.5631365
51
74.0670293
0
ARC
8
bottom_labelLayer
10
198.9678989
20
185.3826485
40
2.8661373
50
16.470949
51
38.4075058
0
ARC
8
bottom_labelLayer
10
197.5105872
20
184.9256785
40
4.3932818
50
5.1338576
51
16.7973472
0
ARC
8
bottom_labelLayer
10
195.6708018
20
184.7302479
40
6.2432464
50
359.8779482
51
5.4093355
0
ARC
8
bottom_labelLayer
10
196.2112314
20
184.6833028
40
5.7029019
50
350.6562674
51
0.3380322
0
ARC
8
bottom_labelLayer
10
198.1993448
20
184.3451455
40
3.6862806
50
335.8306125
51
350.8254761
0
ARC
8
bottom_labelLayer
10
199.0738938
20
183.9676783
40
2.7338811
50
321.3161481
51
335.5436283
0
ARC
8
bottom_labelLayer
10
199.4082354
20
183.6952407
40
2.302615
50
274.0640048
51
321.408102
0
ARC
8
bottom_labelLayer
10
199.2524784
20
184.6818523
40
3.2988911
50
269.9225382
51
275.548169
0
ARC
8
bottom_labelLayer
10
199.2316151
20
184.3331938
40
2.9502753
50
255.775545
51
270.3185612
0
ARC
8
bottom_labelLayer
10
199.1474271
20
183.9591463
40
2.5670296
50
245.9801732
51
255.5455494
0
ARC
8
bottom_labelLayer
10
198.9843513
20
183.5799102
40
2.1542601
50
215.5850365
51
245.8361552
0
ARC
8
bottom_labelLayer
10
176.9536697
20
188.3853458
40
20.2787309
50
358.1123001
51
0.0484545
0
ARC
8
bottom_labelLayer
10
182.5974043
20
188.195863
40
14.6318179
50
355.7238409
51
358.1258953
0
ARC
8
bottom_labelLayer
10
185.0227702
20
188.0297838
40
12.2008297
50
355.4719252
51
355.6523316
0
ARC
8
bottom_labelLayer
10
199.0463552
20
185.8016333
40
2.2114456
50
95.1835189
51
145.1108942
0
ARC
8
bottom_labelLayer
10
199.2407309
20
184.7055219
40
3.3219812
50
89.8743098
51
96.8145131
0
ARC
8
bottom_labelLayer
10
199.0870302
20
184.4798701
40
2.733248
50
89.5731324
51
100.7324144
0
ARC
8
bottom_labelLayer
10
198.8846946
20
185.5021437
40
1.6911979
50
100.4469533
51
119.6700583
0
ARC
8
bottom_labelLayer
10
198.6970666
20
185.8529374
40
1.2935634
50
120.1402921
51
142.4249147
0
ARC
8
bottom_labelLayer
10
199.007483
20
185.6475864
40
1.6650202
50
143.3382407
51
161.2559637
0
ARC
8
bottom_labelLayer
10
200.3055855
20
185.1867188
40
3.0424327
50
160.892661
51
171.2333996
0
ARC
8
bottom_labelLayer
10
202.4725959
20
184.837132
40
5.2374293
50
171.0667963
51
177.8456831
0
ARC
8
bottom_labelLayer
10
204.7263345
20
184.7225072
40
7.4939433
50
177.6176651
51
180.0425001
0
ARC
8
bottom_labelLayer
10
203.6634668
20
184.6918343
40
6.4311224
50
179.7762537
51
185.7075129
0
ARC
8
bottom_labelLayer
10
201.1279046
20
184.4305837
40
3.8821564
50
185.5924947
51
194.2050809
0
ARC
8
bottom_labelLayer
10
199.5036507
20
184.0090325
40
2.2041437
50
193.9430385
51
208.0218289
0
ARC
8
bottom_labelLayer
10
198.8464771
20
183.6747106
40
1.4670075
50
208.5536459
51
217.5604811
0
ARC
8
bottom_labelLayer
10
198.7929279
20
183.6524374
40
1.4110603
50
218.169049
51
253.8047254
0
ARC
8
bottom_labelLayer
10
199.0546508
20
184.4593503
40
2.2591027
50
253.1382111
51
266.8483427
0
ARC
8
bottom_labelLayer
10
199.1280444
20
185.3248847
40
3.1274686
50
266.377576
51
270.0510487
0
ARC
8
bottom_labelLayer
10
199.1515797
20
184.1362829
40
1.9389767
50
269.386872
51
285.8630812
0
ARC
8
bottom_labelLayer
10
199.2956327
20
183.6156562
40
1.3988063
50
286.0163031
51
326.8497346
0
ARC
8
bottom_labelLayer
10
198.600352
20
184.0762544
40
2.2328013
50
326.7105011
51
343.6661615
0
ARC
8
bottom_labelLayer
10
197.2988499
20
184.4739526
40
3.5936539
50
343.4171074
51
353.636939
0
ARC
8
bottom_labelLayer
10
195.333039
20
184.7072129
40
5.5732239
50
353.4934644
51
0.2205633
0
ARC
8
bottom_labelLayer
10
195.1596973
20
184.7519262
40
5.7465713
50
359.7680977
51
6.3095029
0
ARC
8
bottom_labelLayer
10
197.3243417
20
185.0003306
40
3.5677506
50
6.1648536
51
16.0396515
0
ARC
8
bottom_labelLayer
10
198.7187376
20
185.4112592
40
2.114119
50
15.7779489
51
32.0151334
0
ARC
8
bottom_labelLayer
10
199.1534944
20
185.6602247
40
1.6136143
50
32.7034147
51
35.5241062
0
ARC
8
bottom_labelLayer
10
199.3125947
20
185.7733021
40
1.418424
50
35.5408339
51
79.8011224
0
ARC
8
bottom_labelLayer
10
199.122114
20
184.9635221
40
2.2495683
50
78.6781706
51
90.3749311
0
ARC
8
bottom_labelLayer
10
204.1321652
20
184.6830788
40
5.0241705
50
349.1761875
51
0.3862535
0
ARC
8
bottom_labelLayer
10
205.8236906
20
184.3458691
40
3.2994421
50
330.2506911
51
349.411657
0
ARC
8
bottom_labelLayer
10
206.3442583
20
184.0752962
40
2.7133237
50
318.1439518
51
329.7566409
0
ARC
8
bottom_labelLayer
10
206.4382046
20
184.0000072
40
2.5931213
50
278.8959193
51
317.9979088
0
ARC
8
bottom_labelLayer
10
206.1961211
20
185.1598531
40
3.7769247
50
269.750271
51
279.803316
0
ARC
8
bottom_labelLayer
10
206.1568579
20
184.5063474
40
3.1234665
50
253.5436764
51
270.4182587
0
ARC
8
bottom_labelLayer
10
206.0528868
20
184.1041595
40
2.7083379
50
238.8115625
51
253.2428149
0
ARC
8
bottom_labelLayer
10
206.0193272
20
184.0366728
40
2.6332335
50
207.7946953
51
238.6758065
0
ARC
8
bottom_labelLayer
10
206.5007688
20
184.3315359
40
3.196831
50
205.655927
51
208.4461015
0
ARC
8
bottom_labelLayer
10
206.871714
20
184.486106
40
3.5981914
50
188.9102556
51
205.3171442
0
ARC
8
bottom_labelLayer
10
208.1216092
20
184.6977967
40
4.8658161
50
179.7744843
51
189.0932809
0
ARC
8
bottom_labelLayer
10
208.3059774
20
184.7511547
40
5.0502623
50
169.2443
51
180.3880763
0
ARC
8
bottom_labelLayer
10
206.5909457
20
185.0901537
40
3.3021215
50
150.7111397
51
169.4695388
0
ARC
8
bottom_labelLayer
10
206.04345
20
185.3713145
40
2.6871631
50
138.1759262
51
150.2287565
0
ARC
8
bottom_labelLayer
10
205.9523858
20
185.4411954
40
2.5727172
50
99.1759448
51
137.9832664
0
ARC
8
bottom_labelLayer
10
206.2030474
20
184.2615451
40
3.7777102
50
89.7326505
51
100.0759651
0
ARC
8
bottom_labelLayer
10
206.2531448
20
184.7710008
40
3.2683746
50
73.5222866
51
90.569223
0
ARC
8
bottom_labelLayer
10
206.4448163
20
185.4673947
40
2.5462523
50
41.1445648
51
73.2133944
0
ARC
8
bottom_labelLayer
10
206.0789313
20
185.1529216
40
3.0286962
50
13.5014373
51
41.0703389
0
ARC
8
bottom_labelLayer
10
204.6653474
20
184.7830054
40
4.4896766
50
1.1277128
51
13.8800049
0
ARC
8
bottom_labelLayer
10
203.4480067
20
184.7177555
40
5.708215
50
359.9918997
51
1.5420485
0
ARC
8
bottom_labelLayer
10
209.1891168
20
184.6916726
40
4.9255382
50
179.7059797
51
187.9160518
0
ARC
8
bottom_labelLayer
10
207.3825581
20
184.4321635
40
3.1004651
50
187.7639021
51
200.0976972
0
ARC
8
bottom_labelLayer
10
206.3873624
20
184.0675225
40
2.0405702
50
200.0846077
51
216.9131468
0
ARC
8
bottom_labelLayer
10
206.0239447
20
183.8080261
40
1.5941828
50
217.3009662
51
261.7099026
0
ARC
8
bottom_labelLayer
10
206.1926529
20
184.6130736
40
2.4156789
50
260.5032791
51
270.2477068
0
ARC
8
bottom_labelLayer
10
206.2248563
20
184.4565376
40
2.2592252
50
269.4481468
51
284.7255902
0
ARC
8
bottom_labelLayer
10
206.4037058
20
183.7932464
40
1.5722645
50
284.5662271
51
322.6333828
0
ARC
8
bottom_labelLayer
10
205.9855479
20
184.0953475
40
2.0879971
50
323.0089098
51
342.6390598
0
ARC
8
bottom_labelLayer
10
204.789501
20
184.4862485
40
3.346237
50
342.3615989
51
353.7537324
0
ARC
8
bottom_labelLayer
10
203.0250068
20
184.6989358
40
5.1234339
50
353.5362881
51
0.2014378
0
ARC
8
bottom_labelLayer
10
203.2953351
20
184.7417187
40
4.8531371
50
359.7075639
51
7.8972796
0
ARC
8
bottom_labelLayer
10
205.0726937
20
184.9965209
40
3.0576369
50
7.7439775
51
20.0690373
0
ARC
8
bottom_labelLayer
10
206.0630984
20
185.3599635
40
2.0026542
50
20.0257017
51
37.4350446
0
ARC
8
bottom_labelLayer
10
206.3917101
20
185.5931411
40
1.6000491
50
37.9577657
51
80.4006236
0
ARC
8
bottom_labelLayer
10
206.2049709
20
184.7599275
40
2.4531524
50
79.3453553
51
90.3174832
0
ARC
8
bottom_labelLayer
10
206.1703936
20
184.8983304
40
2.3148069
50
89.4805965
51
103.8805171
0
ARC
8
bottom_labelLayer
10
205.9758897
20
185.6389984
40
1.5491469
50
103.468522
51
142.3118961
0
ARC
8
bottom_labelLayer
10
206.3540156
20
185.373072
40
2.0110614
50
142.9025417
51
162.3749821
0
ARC
8
bottom_labelLayer
10
207.5455115
20
184.9760086
40
3.2668997
50
162.0653194
51
173.1674902
0
ARC
8
bottom_labelLayer
10
209.4033791
20
184.739049
40
5.1397833
50
173.008626
51
180.2463668
0
LINE
8
bottom_labelLayer
10
213.8144246
20
182.302886
11
213.8144246
21
181.5587454
0
LINE
8
bottom_labelLayer
10
210.9316121
20
183.3458547
11
210.9316121
21
187.1661672
0
LINE
8
bottom_labelLayer
10
210.9316121
20
187.1661672
11
210.0116903
21
187.1661672
0
LINE
8
bottom_labelLayer
10
210.0116903
20
187.1661672
11
210.0116903
21
187.6349172
0
LINE
8
bottom_labelLayer
10
210.0116903
20
187.6349172
11
210.9316121
21
188.0392141
0
LINE
8
bottom_labelLayer
10
210.9316121
20
188.0392141
11
211.3417684
21
189.4103079
0
LINE
8
bottom_labelLayer
10
211.3417684
20
189.4103079
11
211.9042684
21
189.4103079
0
LINE
8
bottom_labelLayer
10
211.9042684
20
189.4103079
11
211.9042684
21
187.9220266
0
LINE
8
bottom_labelLayer
10
211.9042684
20
187.9220266
11
213.7675496
21
187.9220266
0
LINE
8
bottom_labelLayer
10
213.7675496
20
187.9220266
11
213.7675496
21
187.1661672
0
LINE
8
bottom_labelLayer
10
213.7675496
20
187.1661672
11
211.9042684
21
187.1661672
0
LINE
8
bottom_labelLayer
10
211.9042684
20
187.1661672
11
211.9042684
21
183.3868704
0
ARC
8
bottom_labelLayer
10
212.9421901
20
185.3800265
40
3.1943349
50
269.8803316
51
278.3028128
0
ARC
8
bottom_labelLayer
10
212.972715
20
185.1307858
40
2.9433042
50
278.4154565
51
279.0081992
0
ARC
8
bottom_labelLayer
10
212.6141437
20
187.4214724
40
5.261883
50
278.9590101
51
280.5103943
0
ARC
8
bottom_labelLayer
10
212.9557822
20
185.5883822
40
3.3972294
50
280.4846699
51
282.6267916
0
ARC
8
bottom_labelLayer
10
213.2553221
20
184.257607
40
2.0331605
50
282.58766
51
285.5794473
0
ARC
8
bottom_labelLayer
10
213.4048702
20
183.7074516
40
1.4630582
50
285.7245036
51
286.256048
0
ARC
8
bottom_labelLayer
10
213.4054885
20
182.4236675
40
0.9567231
50
287.9889364
51
295.3048339
0
ARC
8
bottom_labelLayer
10
213.1747521
20
183.1217536
40
1.6919474
50
283.3068834
51
288.1198185
0
ARC
8
bottom_labelLayer
10
212.930973
20
184.1386293
40
2.7376329
50
280.0070235
51
283.3735007
0
ARC
8
bottom_labelLayer
10
212.7677571
20
185.0243885
40
3.6382848
50
279.1865037
51
280.114353
0
ARC
8
bottom_labelLayer
10
212.6677521
20
185.5932703
40
4.215843
50
275.5260628
51
279.2938845
0
ARC
8
bottom_labelLayer
10
212.7805852
20
184.414724
40
3.0319087
50
270.8932098
51
275.5484296
0
ARC
8
bottom_labelLayer
10
212.7947411
20
183.8764951
40
2.4935312
50
270.0034988
51
270.760768
0
ARC
8
bottom_labelLayer
10
212.7556431
20
183.9230946
40
2.5404337
50
253.7847948
51
270.8852676
0
ARC
8
bottom_labelLayer
10
212.4546696
20
182.8966606
40
1.4707878
50
190.3817671
51
253.8772449
0
ARC
8
bottom_labelLayer
10
213.9887211
20
183.3114425
40
3.0573026
50
179.3550796
51
192.847783
0
ARC
8
bottom_labelLayer
10
213.8628305
20
183.3746207
40
1.9586004
50
179.6416535
51
189.7506216
0
ARC
8
bottom_labelLayer
10
213.1714093
20
183.2512959
40
1.2562889
50
189.5479422
51
205.7873769
0
ARC
8
bottom_labelLayer
10
212.8872687
20
183.1202707
40
0.9434612
50
206.1294926
51
221.4083587
0
ARC
8
bottom_labelLayer
10
212.8554035
20
183.0960925
40
0.9035747
50
221.5949308
51
262.3505242
0
ARC
8
bottom_labelLayer
10
212.9311763
20
183.4857299
40
1.3000387
50
261.3265388
51
270.1913673
0
LINE
8
bottom_labelLayer
10
218.0507528
20
182.302886
11
218.0507528
21
181.5587454
0
LINE
8
bottom_labelLayer
10
215.1679403
20
183.3458547
11
215.1679403
21
187.1661672
0
LINE
8
bottom_labelLayer
10
215.1679403
20
187.1661672
11
214.2480184
21
187.1661672
0
LINE
8
bottom_labelLayer
10
214.2480184
20
187.1661672
11
214.2480184
21
187.6349172
0
LINE
8
bottom_labelLayer
10
214.2480184
20
187.6349172
11
215.1679403
21
188.0392141
0
LINE
8
bottom_labelLayer
10
215.1679403
20
188.0392141
11
215.5780965
21
189.4103079
0
LINE
8
bottom_labelLayer
10
215.5780965
20
189.4103079
11
216.1405965
21
189.4103079
0
LINE
8
bottom_labelLayer
10
216.1405965
20
189.4103079
11
216.1405965
21
187.9220266
0
LINE
8
bottom_labelLayer
10
216.1405965
20
187.9220266
11
218.0038778
21
187.9220266
0
LINE
8
bottom_labelLayer
10
218.0038778
20
187.9220266
11
218.0038778
21
187.1661672
0
LINE
8
bottom_labelLayer
10
218.0038778
20
187.1661672
11
216.1405965
21
187.1661672
0
LINE
8
bottom_labelLayer
10
216.1405965
20
187.1661672
11
216.1405965
21
183.3868704
0
ARC
8
bottom_labelLayer
10
217.1785182
20
185.3800265
40
3.1943349
50
269.8803316
51
278.3028128
0
ARC
8
bottom_labelLayer
10
217.2090432
20
185.1307858
40
2.9433042
50
278.4154565
51
279.0081992
0
ARC
8
bottom_labelLayer
10
216.8504718
20
187.4214724
40
5.261883
50
278.9590101
51
280.5103943
0
ARC
8
bottom_labelLayer
10
217.1921103
20
185.5883822
40
3.3972294
50
280.4846699
51
282.6267916
0
ARC
8
bottom_labelLayer
10
217.4916502
20
184.257607
40
2.0331605
50
282.58766
51
285.5794473
0
ARC
8
bottom_labelLayer
10
217.6411984
20
183.7074516
40
1.4630582
50
285.7245036
51
286.256048
0
ARC
8
bottom_labelLayer
10
217.6418167
20
182.4236675
40
0.9567231
50
287.9889364
51
295.3048339
0
ARC
8
bottom_labelLayer
10
217.4110802
20
183.1217536
40
1.6919474
50
283.3068834
51
288.1198185
0
ARC
8
bottom_labelLayer
10
217.1673011
20
184.1386293
40
2.7376329
50
280.0070235
51
283.3735007
0
ARC
8
bottom_labelLayer
10
217.0040852
20
185.0243885
40
3.6382848
50
279.1865037
51
280.114353
0
ARC
8
bottom_labelLayer
10
216.9040802
20
185.5932703
40
4.215843
50
275.5260628
51
279.2938845
0
ARC
8
bottom_labelLayer
10
217.0169133
20
184.414724
40
3.0319087
50
270.8932098
51
275.5484296
0
ARC
8
bottom_labelLayer
10
217.0310693
20
183.8764951
40
2.4935312
50
270.0034988
51
270.760768
0
ARC
8
bottom_labelLayer
10
216.9919713
20
183.9230946
40
2.5404337
50
253.7847948
51
270.8852676
0
ARC
8
bottom_labelLayer
10
216.6909977
20
182.8966606
40
1.4707878
50
190.3817671
51
253.8772449
0
ARC
8
bottom_labelLayer
10
218.2250492
20
183.3114425
40
3.0573026
50
179.3550796
51
192.847783
0
ARC
8
bottom_labelLayer
10
218.0991587
20
183.3746207
40
1.9586004
50
179.6416535
51
189.7506216
0
ARC
8
bottom_labelLayer
10
217.4077374
20
183.2512959
40
1.2562889
50
189.5479422
51
205.7873769
0
ARC
8
bottom_labelLayer
10
217.1235969
20
183.1202707
40
0.9434612
50
206.1294926
51
221.4083587
0
ARC
8
bottom_labelLayer
10
217.0917316
20
183.0960925
40
0.9035747
50
221.5949308
51
262.3505242
0
ARC
8
bottom_labelLayer
10
217.1675044
20
183.4857299
40
1.3000387
50
261.3265388
51
270.1913673
0
ARC
8
bottom_labelLayer
10
219.8528683
20
184.6830788
40
5.0241705
50
349.1761875
51
0.3862535
0
ARC
8
bottom_labelLayer
10
221.5443937
20
184.3458691
40
3.2994421
50
330.2506911
51
349.411657
0
ARC
8
bottom_labelLayer
10
222.0649614
20
184.0752962
40
2.7133237
50
318.1439518
51
329.7566409
0
ARC
8
bottom_labelLayer
10
222.1589077
20
184.0000072
40
2.5931213
50
278.8959193
51
317.9979088
0
ARC
8
bottom_labelLayer
10
221.9168242
20
185.1598531
40
3.7769247
50
269.750271
51
279.803316
0
ARC
8
bottom_labelLayer
10
221.8775611
20
184.5063474
40
3.1234665
50
253.5436764
51
270.4182587
0
ARC
8
bottom_labelLayer
10
221.7735899
20
184.1041595
40
2.7083379
50
238.8115625
51
253.2428149
0
ARC
8
bottom_labelLayer
10
221.7400304
20
184.0366728
40
2.6332335
50
207.7946953
51
238.6758065
0
ARC
8
bottom_labelLayer
10
222.2214719
20
184.3315359
40
3.196831
50
205.655927
51
208.4461015
0
ARC
8
bottom_labelLayer
10
222.5924171
20
184.486106
40
3.5981914
50
188.9102556
51
205.3171442
0
ARC
8
bottom_labelLayer
10
223.8423124
20
184.6977967
40
4.8658161
50
179.7744843
51
189.0932809
0
ARC
8
bottom_labelLayer
10
224.0266805
20
184.7511547
40
5.0502623
50
169.2443
51
180.3880763
0
ARC
8
bottom_labelLayer
10
222.3116488
20
185.0901537
40
3.3021215
50
150.7111397
51
169.4695388
0
ARC
8
bottom_labelLayer
10
221.7641532
20
185.3713145
40
2.6871631
50
138.1759262
51
150.2287565
0
ARC
8
bottom_labelLayer
10
221.6730889
20
185.4411954
40
2.5727172
50
99.1759448
51
137.9832664
0
ARC
8
bottom_labelLayer
10
221.9237506
20
184.2615451
40
3.7777102
50
89.7326505
51
100.0759651
0
ARC
8
bottom_labelLayer
10
221.9738479
20
184.7710008
40
3.2683746
50
73.5222866
51
90.569223
0
ARC
8
bottom_labelLayer
10
222.1655194
20
185.4673947
40
2.5462523
50
41.1445648
51
73.2133944
0
ARC
8
bottom_labelLayer
10
221.7996344
20
185.1529216
40
3.0286962
50
13.5014373
51
41.0703389
0
ARC
8
bottom_labelLayer
10
220.3860505
20
184.7830054
40
4.4896766
50
1.1277128
51
13.8800049
0
ARC
8
bottom_labelLayer
10
219.1687098
20
184.7177555
40
5.708215
50
359.9918997
51
1.5420485
0
ARC
8
bottom_labelLayer
10
224.9098199
20
184.6916726
40
4.9255382
50
179.7059797
51
187.9160518
0
ARC
8
bottom_labelLayer
10
223.1032612
20
184.4321635
40
3.1004651
50
187.7639021
51
200.0976972
0
ARC
8
bottom_labelLayer
10
222.1080655
20
184.0675225
40
2.0405702
50
200.0846077
51
216.9131468
0
ARC
8
bottom_labelLayer
10
221.7446478
20
183.8080261
40
1.5941828
50
217.3009662
51
261.7099026
0
ARC
8
bottom_labelLayer
10
221.913356
20
184.6130736
40
2.4156789
50
260.5032791
51
270.2477068
0
ARC
8
bottom_labelLayer
10
221.9455594
20
184.4565376
40
2.2592252
50
269.4481468
51
284.7255902
0
ARC
8
bottom_labelLayer
10
222.1244089
20
183.7932464
40
1.5722645
50
284.5662271
51
322.6333828
0
ARC
8
bottom_labelLayer
10
221.706251
20
184.0953475
40
2.0879971
50
323.0089098
51
342.6390598
0
ARC
8
bottom_labelLayer
10
220.5102042
20
184.4862485
40
3.346237
50
342.3615989
51
353.7537324
0
ARC
8
bottom_labelLayer
10
218.74571
20
184.6989358
40
5.1234339
50
353.5362881
51
0.2014378
0
ARC
8
bottom_labelLayer
10
219.0160383
20
184.7417187
40
4.8531371
50
359.7075639
51
7.8972796
0
ARC
8
bottom_labelLayer
10
220.7933968
20
184.9965209
40
3.0576369
50
7.7439775
51
20.0690373
0
ARC
8
bottom_labelLayer
10
221.7838015
20
185.3599635
40
2.0026542
50
20.0257017
51
37.4350446
0
ARC
8
bottom_labelLayer
10
222.1124132
20
185.5931411
40
1.6000491
50
37.9577657
51
80.4006236
0
ARC
8
bottom_labelLayer
10
221.9256741
20
184.7599275
40
2.4531524
50
79.3453553
51
90.3174832
0
ARC
8
bottom_labelLayer
10
221.8910968
20
184.8983304
40
2.3148069
50
89.4805965
51
103.8805171
0
ARC
8
bottom_labelLayer
10
221.6965929
20
185.6389984
40
1.5491469
50
103.468522
51
142.3118961
0
ARC
8
bottom_labelLayer
10
222.0747187
20
185.373072
40
2.0110614
50
142.9025417
51
162.3749821
0
ARC
8
bottom_labelLayer
10
223.2662147
20
184.9760086
40
3.2668997
50
162.0653194
51
173.1674902
0
ARC
8
bottom_labelLayer
10
225.1240823
20
184.739049
40
5.1397833
50
173.008626
51
180.2463668
0
LINE
8
bottom_labelLayer
10
235.7402059
20
181.5001516
11
234.7675496
21
181.5001516
0
LINE
8
bottom_labelLayer
10
234.7675496
20
181.5001516
11
234.7675496
21
185.677886
0
LINE
8
bottom_labelLayer
10
231.6445028
20
185.0860891
11
231.6445028
21
181.5001516
0
LINE
8
bottom_labelLayer
10
231.6445028
20
181.5001516
11
230.6718465
21
181.5001516
0
LINE
8
bottom_labelLayer
10
230.6718465
20
181.5001516
11
230.6718465
21
185.677886
0
LINE
8
bottom_labelLayer
10
227.554659
20
184.8692922
11
227.554659
21
181.5001516
0
LINE
8
bottom_labelLayer
10
227.554659
20
181.5001516
11
226.5820028
21
181.5001516
0
LINE
8
bottom_labelLayer
10
226.5820028
20
181.5001516
11
226.5820028
21
187.9220266
0
LINE
8
bottom_labelLayer
10
226.5820028
20
187.9220266
11
227.3730184
21
187.9220266
0
LINE
8
bottom_labelLayer
10
227.3730184
20
187.9220266
11
227.5312215
21
187.0431204
0
LINE
8
bottom_labelLayer
10
227.5312215
20
187.0431204
11
227.5780965
21
187.0431204
0
LINE
8
bottom_labelLayer
10
231.445284
20
186.9493704
11
231.492159
21
186.9493704
0
LINE
8
bottom_labelLayer
10
235.7402059
20
185.6896047
11
235.7402059
21
181.5001516
0
ARC
8
bottom_labelLayer
10
231.8981783
20
185.693169
40
2.8694121
50
359.6948304
51
8.1471504
0
ARC
8
bottom_labelLayer
10
232.9550717
20
185.8495777
40
1.801027
50
7.9864489
51
20.794943
0
ARC
8
bottom_labelLayer
10
233.5392948
20
186.0733709
40
1.1754112
50
20.7071431
51
40.0217931
0
ARC
8
bottom_labelLayer
10
233.6674596
20
186.157229
40
1.0234972
50
41.0407776
51
73.1792709
0
ARC
8
bottom_labelLayer
10
233.4820056
20
185.5963206
40
1.6141449
50
72.639557
51
86.2568171
0
ARC
8
bottom_labelLayer
10
233.4225964
20
184.9553156
40
2.2577283
50
85.8143586
51
90.0685964
0
ARC
8
bottom_labelLayer
10
233.4007676
20
184.7103125
40
2.5028028
50
89.5621555
51
101.2961666
0
ARC
8
bottom_labelLayer
10
233.2122637
20
185.6127456
40
1.5809484
50
101.003223
51
121.7840423
0
ARC
8
bottom_labelLayer
10
233.0689585
20
185.8685896
40
1.2880543
50
122.3597811
51
140.2884042
0
ARC
8
bottom_labelLayer
10
233.3267847
20
185.6795439
40
1.6072941
50
140.976557
51
161.169956
0
ARC
8
bottom_labelLayer
10
234.2980724
20
185.3338836
40
2.6382002
50
160.8731639
51
172.5272647
0
ARC
8
bottom_labelLayer
10
235.9210799
20
185.1097323
40
4.2765897
50
172.3776367
51
180.1829646
0
ARC
8
bottom_labelLayer
10
237.05822
20
185.0859868
40
5.4137174
50
179.8932242
51
179.9989173
0
ARC
8
bottom_labelLayer
10
227.8024752
20
185.693169
40
2.8694121
50
359.6948304
51
8.1471504
0
ARC
8
bottom_labelLayer
10
228.8593685
20
185.8495777
40
1.801027
50
7.9864489
51
20.794943
0
ARC
8
bottom_labelLayer
10
229.4435916
20
186.0733709
40
1.1754112
50
20.7071431
51
40.0217931
0
ARC
8
bottom_labelLayer
10
229.5744207
20
186.1590691
40
1.0202796
50
41.0610751
51
72.8993491
0
ARC
8
bottom_labelLayer
10
229.3854554
20
185.5965022
40
1.6136122
50
72.3600654
51
85.9562175
0
ARC
8
bottom_labelLayer
10
229.3214877
20
184.9354299
40
2.2776145
50
85.5237685
51
90.0794128
0
ARC
8
bottom_labelLayer
10
229.2996662
20
184.7973168
40
2.4157975
50
89.5573226
51
101.4832212
0
ARC
8
bottom_labelLayer
10
229.1142445
20
185.6660551
40
1.5275599
50
101.1546179
51
123.0655775
0
ARC
8
bottom_labelLayer
10
228.9882081
20
185.8856059
40
1.2748795
50
123.7020683
51
142.3021869
0
ARC
8
bottom_labelLayer
10
229.283448
20
185.6853123
40
1.6311151
50
143.076987
51
161.3913594
0
ARC
8
bottom_labelLayer
10
230.4735445
20
185.2649989
40
2.8931763
50
161.0234597
51
171.4468874
0
ARC
8
bottom_labelLayer
10
232.4437241
20
184.9563797
40
4.8873592
50
171.3042197
51
178.3501556
0
ARC
8
bottom_labelLayer
10
234.327037
20
184.8722789
40
6.7723786
50
178.0976764
51
180.025268
0
ARC
8
bottom_labelLayer
10
229.2259089
20
186.0741246
40
1.9116063
50
117.1209668
51
149.5423508
0
ARC
8
bottom_labelLayer
10
229.421003
20
185.7273704
40
2.3092236
50
93.8343236
51
117.5072297
0
ARC
8
bottom_labelLayer
10
229.4748859
20
185.2501075
40
2.789107
50
89.9661429
51
94.2831235
0
ARC
8
bottom_labelLayer
10
229.5071755
20
184.8548834
40
3.1844781
50
77.5572216
51
90.551316
0
ARC
8
bottom_labelLayer
10
229.8026607
20
186.1258167
40
1.8797878
50
52.7026965
51
78.0053953
0
ARC
8
bottom_labelLayer
10
229.9079366
20
186.3216843
40
1.6605502
50
22.2097834
51
51.4970719
0
ARC
8
bottom_labelLayer
10
233.2541675
20
185.9395601
40
2.0308595
50
119.4041718
51
150.1828994
0
ARC
8
bottom_labelLayer
10
233.4795039
20
185.5968686
40
2.4401989
50
118.258518
51
120.0629842
0
ARC
8
bottom_labelLayer
10
233.4787597
20
185.5720072
40
2.4617763
50
95.8635248
51
117.9693088
0
ARC
8
bottom_labelLayer
10
233.5620734
20
184.9696156
40
3.0696016
50
89.9196561
51
96.261811
0
ARC
8
bottom_labelLayer
10
233.5888241
20
184.6582917
40
3.3809969
50
79.9360885
51
90.3803879
0
ARC
8
bottom_labelLayer
10
233.8141031
20
185.8783756
40
2.1403365
50
62.9723566
51
80.1665003
0
ARC
8
bottom_labelLayer
10
234.0496051
20
186.3615377
40
1.6029546
50
44.2290334
51
62.6229039
0
ARC
8
bottom_labelLayer
10
233.9795637
20
186.3305984
40
1.6749368
50
19.5611923
51
43.3161255
0
ARC
8
bottom_labelLayer
10
232.9622876
20
185.9485096
40
2.7614971
50
7.5042151
51
19.9645098
0
ARC
8
bottom_labelLayer
10
231.2790155
20
185.7121276
40
4.4612474
50
359.7107378
51
7.690742
0
ENDSEC
0
EOF