0
SECTION
2
HEADER
9
$INSUNITS
70
4
0
ENDSEC
0
SECTION
2
TABLES
0
TABLE
2
LTYPE
0
LTYPE
72
65
70
64
2
CONTINUOUS
3
______
73
0
40
0
0
ENDTAB
0
TABLE
2
LAYER
0
ENDTAB
0
ENDSEC
0
SECTION
2
ENTITIES
0
LINE
8
front_outsideCutPath
10
0
20
59
11
0
21
50.125
0
LINE
8
front_outsideCutPath
10
0
20
50.125
11
3
21
50.125
0
LINE
8
front_outsideCutPath
10
3
20
50.125
11
3
21
37.375
0
LINE
8
front_outsideCutPath
10
3
20
37.375
11
0
21
37.375
0
LINE
8
front_outsideCutPath
10
0
20
37.375
11
0
21
24.625
0
LINE
8
front_outsideCutPath
10
0
20
24.625
11
3
21
24.625
0
LINE
8
front_outsideCutPath
10
3
20
24.625
11
3
21
11.875
0
LINE
8
front_outsideCutPath
10
3
20
11.875
11
0
21
11.875
0
LINE
8
front_outsideCutPath
10
0
20
11.875
11
0
21
3
0
LINE
8
front_outsideCutPath
10
0
20
3
11
18.875
21
3
0
LINE
8
front_outsideCutPath
10
18.875
20
3
11
18.875
21
6
0
LINE
8
front_outsideCutPath
10
18.875
20
6
11
31.625
21
6
0
LINE
8
front_outsideCutPath
10
31.625
20
6
11
31.625
21
3
0
LINE
8
front_outsideCutPath
10
31.625
20
3
11
44.375
21
3
0
LINE
8
front_outsideCutPath
10
44.375
20
3
11
44.375
21
6
0
LINE
8
front_outsideCutPath
10
44.375
20
6
11
57.125
21
6
0
LINE
8
front_outsideCutPath
10
57.125
20
6
11
57.125
21
3
0
LINE
8
front_outsideCutPath
10
57.125
20
3
11
69.875
21
3
0
LINE
8
front_outsideCutPath
10
69.875
20
3
11
76
21
3
0
LINE
8
front_outsideCutPath
10
76
20
3
11
76
21
11.875
0
LINE
8
front_outsideCutPath
10
76
20
11.875
11
73
21
11.875
0
LINE
8
front_outsideCutPath
10
73
20
11.875
11
73
21
24.625
0
LINE
8
front_outsideCutPath
10
73
20
24.625
11
76
21
24.625
0
LINE
8
front_outsideCutPath
10
76
20
24.625
11
76
21
37.375
0
LINE
8
front_outsideCutPath
10
76
20
37.375
11
73
21
37.375
0
LINE
8
front_outsideCutPath
10
73
20
37.375
11
73
21
50.125
0
LINE
8
front_outsideCutPath
10
73
20
50.125
11
76
21
50.125
0
LINE
8
front_outsideCutPath
10
76
20
50.125
11
76
21
59
0
LINE
8
front_outsideCutPath
10
76
20
59
11
57.125
21
59
0
LINE
8
front_outsideCutPath
10
57.125
20
59
11
57.125
21
56
0
LINE
8
front_outsideCutPath
10
57.125
20
56
11
44.375
21
56
0
LINE
8
front_outsideCutPath
10
44.375
20
56
11
44.375
21
59
0
LINE
8
front_outsideCutPath
10
44.375
20
59
11
31.625
21
59
0
LINE
8
front_outsideCutPath
10
31.625
20
59
11
31.625
21
56
0
LINE
8
front_outsideCutPath
10
31.625
20
56
11
18.875
21
56
0
LINE
8
front_outsideCutPath
10
18.875
20
56
11
18.875
21
59
0
LINE
8
front_outsideCutPath
10
18.875
20
59
11
6.125
21
59
0
LINE
8
front_outsideCutPath
10
6.125
20
59
11
0
21
59
0
LINE
8
front_labelLayer
10
28.7222656
20
32.7637904
11
28.7222656
21
32.0583217
0
LINE
8
front_labelLayer
10
28.7222656
20
32.0583217
11
27.1964843
21
32.0583217
0
LINE
8
front_labelLayer
10
27.1964843
20
32.0583217
11
27.1964843
21
26.7700404
0
LINE
8
front_labelLayer
10
27.1964843
20
26.7700404
11
26.2886718
21
26.7700404
0
LINE
8
front_labelLayer
10
26.2886718
20
26.7700404
11
26.2886718
21
32.0583217
0
LINE
8
front_labelLayer
10
26.2886718
20
32.0583217
11
25.2167968
21
32.0583217
0
LINE
8
front_labelLayer
10
25.2167968
20
32.0583217
11
25.2167968
21
32.4684779
0
LINE
8
front_labelLayer
10
25.2167968
20
32.4684779
11
26.2886718
21
32.7966029
0
LINE
8
front_labelLayer
10
26.2886718
20
32.7966029
11
26.2886718
21
33.1301967
0
LINE
8
front_labelLayer
10
29.3347656
20
35.1481654
11
29.0996093
21
34.4208217
0
LINE
8
front_labelLayer
10
27.1964843
20
33.1520717
11
27.1964843
21
32.7637904
0
LINE
8
front_labelLayer
10
27.1964843
20
32.7637904
11
28.7222656
21
32.7637904
0
ARC
8
front_labelLayer
10
29.9677154
20
33.1724938
40
3.6792867
50
167.5775996
51
180.6586872
0
ARC
8
front_labelLayer
10
28.2375967
20
33.5758567
40
1.9030269
50
141.7433861
51
168.2321949
0
ARC
8
front_labelLayer
10
27.9558963
20
33.7228841
40
1.5918787
50
98.2551387
51
139.62035
0
ARC
8
front_labelLayer
10
28.2032332
20
32.5802855
40
2.759332
50
89.6696909
51
99.9314398
0
ARC
8
front_labelLayer
10
28.2039231
20
32.4162564
40
2.9233549
50
81.5640619
51
89.7017469
0
ARC
8
front_labelLayer
10
27.9984094
20
30.9824583
40
4.3717953
50
75.9739801
51
81.6564972
0
ARC
8
front_labelLayer
10
27.6457284
20
29.5196215
40
5.8765084
50
73.2963295
51
76.0945948
0
ARC
8
front_labelLayer
10
27.7345362
20
30.2291848
40
4.4083154
50
71.9613375
51
76.5918275
0
ARC
8
front_labelLayer
10
28.0765447
20
31.6800233
40
2.9177179
50
76.5183103
51
83.0217185
0
ARC
8
front_labelLayer
10
28.1956685
20
32.6379951
40
1.9523706
50
83.0761403
51
89.7926412
0
ARC
8
front_labelLayer
10
28.1917489
20
33.3661246
40
1.2242776
50
89.4858761
51
103.4197729
0
ARC
8
front_labelLayer
10
28.081372
20
33.7901783
40
0.7862366
50
102.7677484
51
144.3380062
0
ARC
8
front_labelLayer
10
28.303746
20
33.6471026
40
1.0504077
50
145.0689364
51
162.1800985
0
ARC
8
front_labelLayer
10
29.0661671
20
33.3905891
40
1.854782
50
161.8438136
51
171.7846784
0
ARC
8
front_labelLayer
10
30.3096189
20
33.2038239
40
3.1121695
50
171.6527277
51
178.4384088
0
ARC
8
front_labelLayer
10
31.4827716
20
33.153805
40
4.2862875
50
178.1973944
51
180.0231691
0
LINE
8
front_labelLayer
10
33.2667968
20
32.8075404
11
33.1410156
21
31.9653529
0
LINE
8
front_labelLayer
10
30.7238281
20
29.9856654
11
30.7238281
21
26.7700404
0
LINE
8
front_labelLayer
10
30.7238281
20
26.7700404
11
29.8160156
21
26.7700404
0
LINE
8
front_labelLayer
10
29.8160156
20
26.7700404
11
29.8160156
21
32.7637904
0
LINE
8
front_labelLayer
10
29.8160156
20
32.7637904
11
30.5652343
21
32.7637904
0
LINE
8
front_labelLayer
10
30.5652343
20
32.7637904
11
30.6691406
21
31.6536342
0
LINE
8
front_labelLayer
10
30.6691406
20
31.6536342
11
30.7128906
21
31.6536342
0
ARC
8
front_labelLayer
10
32.5597085
20
28.7055572
40
4.1676187
50
84.9922822
51
90.1281006
0
ARC
8
front_labelLayer
10
32.6597917
20
29.8268844
40
3.0418359
50
78.4892237
51
85.0265756
0
ARC
8
front_labelLayer
10
32.2713267
20
28.0600614
40
4.0009575
50
77.4453812
51
81.6360517
0
ARC
8
front_labelLayer
10
32.4456362
20
29.2615689
40
2.786875
50
81.5884309
51
87.1916016
0
ARC
8
front_labelLayer
10
32.4835059
20
29.9181761
40
2.1292083
50
87.3437187
51
89.9661024
0
ARC
8
front_labelLayer
10
32.474705
20
30.474446
40
1.5729704
50
89.6335396
51
137.0880791
0
ARC
8
front_labelLayer
10
32.8607202
20
30.0403591
40
2.151952
50
135.6209239
51
138.8377844
0
ARC
8
front_labelLayer
10
32.8041742
20
30.0955526
40
2.073058
50
138.9575726
51
174.5422266
0
ARC
8
front_labelLayer
10
33.4793436
20
29.9899091
40
2.7555188
50
173.690765
51
180.0882394
0
ARC
8
front_labelLayer
10
33.3838732
20
30.1488147
40
3.0657185
50
139.4139518
51
150.6032871
0
ARC
8
front_labelLayer
10
32.8341831
20
30.6198408
40
2.3418228
50
124.2321496
51
139.416121
0
ARC
8
front_labelLayer
10
32.5402724
20
31.0634977
40
1.8096959
50
89.6796521
51
124.4405711
0
ARC
8
front_labelLayer
10
34.8722116
20
29.7407707
40
4.689223
50
349.1762026
51
0.3862756
0
ARC
8
front_labelLayer
10
36.4509616
20
29.426045
40
3.0794838
50
330.2507046
51
349.4116421
0
ARC
8
front_labelLayer
10
36.9368251
20
29.1735112
40
2.5324402
50
318.1439705
51
329.7566382
0
ARC
8
front_labelLayer
10
37.0245126
20
29.1032384
40
2.4202459
50
278.895913
51
317.9979129
0
ARC
8
front_labelLayer
10
36.7985656
20
30.1857654
40
3.5251336
50
269.750304
51
279.8033385
0
ARC
8
front_labelLayer
10
36.7619233
20
29.5758302
40
2.9152425
50
253.543693
51
270.4182341
0
ARC
8
front_labelLayer
10
36.6648792
20
29.2004419
40
2.5277755
50
238.8115542
51
253.2428445
0
ARC
8
front_labelLayer
10
36.6335609
20
29.1374608
40
2.4576856
50
207.7947002
51
238.6757983
0
ARC
8
front_labelLayer
10
37.0830843
20
29.4127592
40
2.9839106
50
205.6560588
51
208.4460447
0
ARC
8
front_labelLayer
10
37.429118
20
29.5569298
40
3.3583087
50
188.9102415
51
205.3171459
0
ARC
8
front_labelLayer
10
38.5957013
20
29.7545093
40
4.5414396
50
179.7744866
51
189.0932601
0
ARC
8
front_labelLayer
10
38.7677655
20
29.8043101
40
4.7135768
50
169.244298
51
180.3880776
0
ARC
8
front_labelLayer
10
37.1670657
20
30.1207112
40
3.0819748
50
150.7111298
51
169.4695617
0
ARC
8
front_labelLayer
10
36.6560801
20
30.383122
40
2.5080255
50
138.1759441
51
150.2287426
0
ARC
8
front_labelLayer
10
36.5710806
20
30.4483495
40
2.4012011
50
99.1759313
51
137.9832801
0
ARC
8
front_labelLayer
10
36.8050324
20
29.3473397
40
3.5258641
50
89.7326526
51
100.0759634
0
ARC
8
front_labelLayer
10
36.8517892
20
29.8228338
40
3.0504822
50
73.5222721
51
90.569212
0
ARC
8
front_labelLayer
10
37.0306824
20
30.4728001
40
2.3765029
50
41.1445616
51
73.2133789
0
ARC
8
front_labelLayer
10
36.6891918
20
30.1792933
40
2.8267816
50
13.5014265
51
41.0703426
0
ARC
8
front_labelLayer
10
35.369853
20
29.834038
40
4.1903574
50
1.1277054
51
13.8800202
0
ARC
8
front_labelLayer
10
34.2331546
20
29.7731302
40
5.3281736
50
359.9919782
51
1.5419797
0
ARC
8
front_labelLayer
10
39.5919984
20
29.7487922
40
4.597137
50
179.705963
51
187.9160921
0
ARC
8
front_labelLayer
10
37.905917
20
29.506588
40
2.8937759
50
187.7639424
51
200.0977009
0
ARC
8
front_labelLayer
10
36.9770587
20
29.1662526
40
1.9045311
50
200.0845996
51
216.9131484
0
ARC
8
front_labelLayer
10
36.6378696
20
28.9240567
40
1.4879038
50
217.3009709
51
261.7099087
0
ARC
8
front_labelLayer
10
36.7953306
20
29.6754328
40
2.2546322
50
260.5032751
51
270.247709
0
ARC
8
front_labelLayer
10
36.8253866
20
29.5293424
40
2.1086185
50
269.4481638
51
284.7255471
0
ARC
8
front_labelLayer
10
36.9923124
20
28.9102636
40
1.4674485
50
284.5662524
51
322.6333639
0
ARC
8
front_labelLayer
10
36.6020291
20
29.1922247
40
1.948801
50
323.0089386
51
342.63905
0
ARC
8
front_labelLayer
10
35.4857252
20
29.557064
40
3.1231517
50
342.3615863
51
353.7537301
0
ARC
8
front_labelLayer
10
33.8388463
20
29.7555739
40
4.7818864
50
353.5362895
51
0.2014186
0
ARC
8
front_labelLayer
10
34.0911564
20
29.7955017
40
4.5296057
50
359.7075807
51
7.8972763
0
ARC
8
front_labelLayer
10
35.7500397
20
30.0333197
40
2.85379
50
7.743964
51
20.0690431
0
ARC
8
front_labelLayer
10
36.6744189
20
30.3725347
40
1.8691374
50
20.0256689
51
37.4350725
0
ARC
8
front_labelLayer
10
36.9811169
20
30.590163
40
1.4933802
50
37.9577804
51
80.4006072
0
ARC
8
front_labelLayer
10
36.8068265
20
29.8124896
40
2.2896172
50
79.345367
51
90.3174551
0
ARC
8
front_labelLayer
10
36.7745561
20
29.941664
40
2.1604964
50
89.4806171
51
103.8804712
0
ARC
8
front_labelLayer
10
36.5930184
20
30.6329641
40
1.4458705
50
103.4685213
51
142.3118957
0
ARC
8
front_labelLayer
10
36.9459368
20
30.3847654
40
1.8769917
50
142.9025416
51
162.3749707
0
ARC
8
front_labelLayer
10
38.0579973
20
30.0141737
40
3.049105
50
162.0653123
51
173.1674883
0
ARC
8
front_labelLayer
10
39.7919838
20
29.7930127
40
4.7971064
50
173.0086059
51
180.246384
0
LINE
8
front_labelLayer
10
46.1621093
20
26.7700404
11
45.2542968
21
26.7700404
0
LINE
8
front_labelLayer
10
45.2542968
20
26.7700404
11
45.2542968
21
30.6473842
0
LINE
8
front_labelLayer
10
42.0605468
20
29.9145717
11
42.0605468
21
26.7700404
0
LINE
8
front_labelLayer
10
42.0605468
20
26.7700404
11
41.1527343
21
26.7700404
0
LINE
8
front_labelLayer
10
41.1527343
20
26.7700404
11
41.1527343
21
32.7637904
0
LINE
8
front_labelLayer
10
41.1527343
20
32.7637904
11
41.8910156
21
32.7637904
0
LINE
8
front_labelLayer
10
41.8910156
20
32.7637904
11
42.0386718
21
31.9434779
0
LINE
8
front_labelLayer
10
42.0386718
20
31.9434779
11
42.0824218
21
31.9434779
0
LINE
8
front_labelLayer
10
46.1621093
20
30.6801967
11
46.1621093
21
26.7700404
0
ARC
8
front_labelLayer
10
42.6881836
20
30.6620998
40
2.5661555
50
359.6714366
51
8.6877561
0
ARC
8
front_labelLayer
10
43.6392624
20
30.8129348
40
1.603215
50
8.4931872
51
22.6579457
0
ARC
8
front_labelLayer
10
44.1224916
20
31.0137483
40
1.0799221
50
22.7024541
51
42.3419638
0
ARC
8
front_labelLayer
10
44.1768099
20
31.038184
40
1.0234823
50
43.3790662
51
71.5386528
0
ARC
8
front_labelLayer
10
43.9736935
20
30.4706271
40
1.6262027
50
71.0827988
51
84.3691233
0
ARC
8
front_labelLayer
10
43.8825171
20
29.6954073
40
2.4066727
50
84.0198114
51
90.1510616
0
ARC
8
front_labelLayer
10
43.8566698
20
29.3546099
40
2.747531
50
89.5933099
51
100.371788
0
ARC
8
front_labelLayer
10
43.662503
20
30.3733369
40
1.7105098
50
100.1176218
51
118.160266
0
ARC
8
front_labelLayer
10
43.4668325
20
30.7570291
40
1.2799189
50
118.5439206
51
139.1926959
0
ARC
8
front_labelLayer
10
43.6374446
20
30.6425456
40
1.484082
50
140.1518937
51
160.3146686
0
ARC
8
front_labelLayer
10
44.6677374
20
30.2566425
40
2.5842057
50
159.9534654
51
171.3800809
0
ARC
8
front_labelLayer
10
46.3507178
20
29.986112
40
4.2887496
50
171.1765986
51
178.3217525
0
ARC
8
front_labelLayer
10
47.8758252
20
29.9169787
40
5.8152789
50
178.0809718
51
180.0237157
0
ARC
8
front_labelLayer
10
43.6353737
20
30.9599424
40
1.8382061
50
116.9442989
51
147.6525725
0
ARC
8
front_labelLayer
10
43.8264655
20
30.6404014
40
2.209796
50
115.8069232
51
117.606946
0
ARC
8
front_labelLayer
10
43.9245231
20
30.411853
40
2.4582644
50
94.3226754
51
115.5454546
0
ARC
8
front_labelLayer
10
43.9833594
20
29.9007276
40
2.9724387
50
89.9578357
51
94.7109615
0
ARC
8
front_labelLayer
10
44.0076818
20
29.2890438
40
3.58419
50
80.5585305
51
90.3538448
0
ARC
8
front_labelLayer
10
44.2316702
20
30.5864694
40
2.2676112
50
65.1094257
51
80.7638132
0
ARC
8
front_labelLayer
10
44.4935056
20
31.1664264
40
1.6313347
50
46.5584568
51
64.8782602
0
ARC
8
front_labelLayer
10
44.5144592
20
31.2268367
40
1.5732844
50
19.3849031
51
45.5997077
0
ARC
8
front_labelLayer
10
43.6042712
20
30.8853177
40
2.5453073
50
6.9633641
51
19.8363634
0
ARC
8
front_labelLayer
10
42.2004767
20
30.6965736
40
3.9616666
50
359.763148
51
7.2115914
0
LINE
8
front_labelLayer
10
50.7832031
20
27.5192592
11
50.7832031
21
26.8247279
0
LINE
8
front_labelLayer
10
48.0925781
20
28.4926967
11
48.0925781
21
32.0583217
0
LINE
8
front_labelLayer
10
48.0925781
20
32.0583217
11
47.2339843
21
32.0583217
0
LINE
8
front_labelLayer
10
47.2339843
20
32.0583217
11
47.2339843
21
32.4958217
0
LINE
8
front_labelLayer
10
47.2339843
20
32.4958217
11
48.0925781
21
32.8731654
0
LINE
8
front_labelLayer
10
48.0925781
20
32.8731654
11
48.4753906
21
34.1528529
0
LINE
8
front_labelLayer
10
48.4753906
20
34.1528529
11
49.0003906
21
34.1528529
0
LINE
8
front_labelLayer
10
49.0003906
20
34.1528529
11
49.0003906
21
32.7637904
0
LINE
8
front_labelLayer
10
49.0003906
20
32.7637904
11
50.7394531
21
32.7637904
0
LINE
8
front_labelLayer
10
50.7394531
20
32.7637904
11
50.7394531
21
32.0583217
0
LINE
8
front_labelLayer
10
50.7394531
20
32.0583217
11
49.0003906
21
32.0583217
0
LINE
8
front_labelLayer
10
49.0003906
20
32.0583217
11
49.0003906
21
28.5309779
0
ARC
8
front_labelLayer
10
49.9691163
20
30.3912566
40
2.9813789
50
269.8803555
51
278.3028375
0
ARC
8
front_labelLayer
10
49.9974575
20
30.1595625
40
2.7480261
50
278.4157119
51
279.0082513
0
ARC
8
front_labelLayer
10
49.662857
20
32.297101
40
4.9115922
50
278.9590784
51
280.5103042
0
ARC
8
front_labelLayer
10
49.9816644
20
30.5863807
40
3.1714201
50
280.484975
51
282.6266422
0
ARC
8
front_labelLayer
10
50.2613743
20
29.3436589
40
1.89761
50
282.5876969
51
285.5794944
0
ARC
8
front_labelLayer
10
50.400671
20
28.8312249
40
1.3665962
50
285.7240657
51
286.255192
0
ARC
8
front_labelLayer
10
50.4015306
20
27.6319872
40
0.8929397
50
287.9888912
51
295.3048036
0
ARC
8
front_labelLayer
10
50.1861702
20
28.283547
40
1.5791634
50
283.3069703
51
288.1198675
0
ARC
8
front_labelLayer
10
49.9586305
20
29.2327002
40
2.5552066
50
280.0071002
51
283.3734687
0
ARC
8
front_labelLayer
10
49.8064153
20
30.0587745
40
3.3951695
50
279.1862977
51
280.1143009
0
ARC
8
front_labelLayer
10
49.7129714
20
30.5903093
40
3.9348119
50
275.5260848
51
279.2938825
0
ARC
8
front_labelLayer
10
49.8182832
20
29.4903531
40
2.8298266
50
270.8932566
51
275.5484021
0
ARC
8
front_labelLayer
10
49.8315279
20
28.9852118
40
2.3245464
50
270.002777
51
270.7609419
0
ARC
8
front_labelLayer
10
49.7950075
20
29.0314554
40
2.3710729
50
253.7847933
51
270.885255
0
ARC
8
front_labelLayer
10
49.5140988
20
28.0734492
40
1.3727358
50
190.3817792
51
253.8772294
0
ARC
8
front_labelLayer
10
50.9458815
20
28.4605792
40
2.8534843
50
179.355092
51
192.8477869
0
ARC
8
front_labelLayer
10
50.8283772
20
28.5195439
40
1.8280224
50
179.6416195
51
189.750614
0
ARC
8
front_labelLayer
10
50.1830538
20
28.4044417
40
1.1725347
50
189.5479495
51
205.7874058
0
ARC
8
front_labelLayer
10
49.9178525
20
28.2821474
40
0.8805574
50
206.1293942
51
221.4083743
0
ARC
8
front_labelLayer
10
49.8881166
20
28.2595849
40
0.8433361
50
221.59492
51
262.3505302
0
ARC
8
front_labelLayer
10
49.958839
20
28.6232544
40
1.2133771
50
261.3265424
51
270.191315
0
LINE
8
left_outsideCutPath
10
82
20
59
11
82
21
50.125
0
LINE
8
left_outsideCutPath
10
82
20
50.125
11
79
21
50.125
0
LINE
8
left_outsideCutPath
10
79
20
50.125
11
79
21
37.375
0
LINE
8
left_outsideCutPath
10
79
20
37.375
11
82
21
37.375
0
LINE
8
left_outsideCutPath
10
82
20
37.375
11
82
21
24.625
0
LINE
8
left_outsideCutPath
10
82
20
24.625
11
79
21
24.625
0
LINE
8
left_outsideCutPath
10
79
20
24.625
11
79
21
11.875
0
LINE
8
left_outsideCutPath
10
79
20
11.875
11
82
21
11.875
0
LINE
8
left_outsideCutPath
10
82
20
11.875
11
82
21
3
0
LINE
8
left_outsideCutPath
10
82
20
3
11
92.375
21
3
0
LINE
8
left_outsideCutPath
10
92.375
20
3
11
92.375
21
6
0
LINE
8
left_outsideCutPath
10
92.375
20
6
11
105.125
21
6
0
LINE
8
left_outsideCutPath
10
105.125
20
6
11
105.125
21
3
0
LINE
8
left_outsideCutPath
10
105.125
20
3
11
117.875
21
3
0
LINE
8
left_outsideCutPath
10
117.875
20
3
11
117.875
21
6
0
LINE
8
left_outsideCutPath
10
117.875
20
6
11
130.625
21
6
0
LINE
8
left_outsideCutPath
10
130.625
20
6
11
130.625
21
3
0
LINE
8
left_outsideCutPath
10
130.625
20
3
11
143.375
21
3
0
LINE
8
left_outsideCutPath
10
143.375
20
3
11
143.375
21
6
0
LINE
8
left_outsideCutPath
10
143.375
20
6
11
156.125
21
6
0
LINE
8
left_outsideCutPath
10
156.125
20
6
11
156.125
21
3
0
LINE
8
left_outsideCutPath
10
156.125
20
3
11
168.875
21
3
0
LINE
8
left_outsideCutPath
10
168.875
20
3
11
168.875
21
6
0
LINE
8
left_outsideCutPath
10
168.875
20
6
11
181.625
21
6
0
LINE
8
left_outsideCutPath
10
181.625
20
6
11
181.625
21
3
0
LINE
8
left_outsideCutPath
10
181.625
20
3
11
192
21
3
0
LINE
8
left_outsideCutPath
10
192
20
3
11
192
21
11.875
0
LINE
8
left_outsideCutPath
10
192
20
11.875
11
195
21
11.875
0
LINE
8
left_outsideCutPath
10
195
20
11.875
11
195
21
24.625
0
LINE
8
left_outsideCutPath
10
195
20
24.625
11
192
21
24.625
0
LINE
8
left_outsideCutPath
10
192
20
24.625
11
192
21
37.375
0
LINE
8
left_outsideCutPath
10
192
20
37.375
11
195
21
37.375
0
LINE
8
left_outsideCutPath
10
195
20
37.375
11
195
21
50.125
0
LINE
8
left_outsideCutPath
10
195
20
50.125
11
192
21
50.125
0
LINE
8
left_outsideCutPath
10
192
20
50.125
11
192
21
59
0
LINE
8
left_outsideCutPath
10
192
20
59
11
181.625
21
59
0
LINE
8
left_outsideCutPath
10
181.625
20
59
11
181.625
21
56
0
LINE
8
left_outsideCutPath
10
181.625
20
56
11
168.875
21
56
0
LINE
8
left_outsideCutPath
10
168.875
20
56
11
168.875
21
59
0
LINE
8
left_outsideCutPath
10
168.875
20
59
11
156.125
21
59
0
LINE
8
left_outsideCutPath
10
156.125
20
59
11
156.125
21
56
0
LINE
8
left_outsideCutPath
10
156.125
20
56
11
143.375
21
56
0
LINE
8
left_outsideCutPath
10
143.375
20
56
11
143.375
21
59
0
LINE
8
left_outsideCutPath
10
143.375
20
59
11
130.625
21
59
0
LINE
8
left_outsideCutPath
10
130.625
20
59
11
130.625
21
56
0
LINE
8
left_outsideCutPath
10
130.625
20
56
11
117.875
21
56
0
LINE
8
left_outsideCutPath
10
117.875
20
56
11
117.875
21
59
0
LINE
8
left_outsideCutPath
10
117.875
20
59
11
105.125
21
59
0
LINE
8
left_outsideCutPath
10
105.125
20
59
11
105.125
21
56
0
LINE
8
left_outsideCutPath
10
105.125
20
56
11
92.375
21
56
0
LINE
8
left_outsideCutPath
10
92.375
20
56
11
92.375
21
59
0
LINE
8
left_outsideCutPath
10
92.375
20
59
11
82
21
59
0
LINE
8
left_labelLayer
10
130.0738281
20
35.2794154
11
130.0738281
21
26.7700404
0
LINE
8
left_labelLayer
10
130.0738281
20
26.7700404
11
129.1660156
21
26.7700404
0
LINE
8
left_labelLayer
10
129.1660156
20
26.7700404
11
129.1660156
21
35.2794154
0
LINE
8
left_labelLayer
10
129.1660156
20
35.2794154
11
130.0738281
21
35.2794154
0
LINE
8
left_labelLayer
10
136.7347656
20
30.1770717
11
136.7347656
21
29.6028529
0
LINE
8
left_labelLayer
10
136.7347656
20
29.6028529
11
132.6058593
21
29.6028529
0
LINE
8
left_labelLayer
10
136.4777343
20
27.8583217
11
136.4777343
21
27.0489467
0
LINE
8
left_labelLayer
10
132.6277343
20
30.3411342
11
135.7613281
21
30.3411342
0
ARC
8
left_labelLayer
10
134.5010095
20
30.1882519
40
3.5277127
50
256.0087753
51
270.4848151
0
ARC
8
left_labelLayer
10
134.2441219
20
29.1909664
40
2.4979188
50
223.5465692
51
256.1957048
0
ARC
8
left_labelLayer
10
134.385834
20
29.2939657
40
2.6716934
50
194.0877225
51
223.0538233
0
ARC
8
left_labelLayer
10
135.6843076
20
29.6490514
40
4.0176447
50
181.3574574
51
194.4920049
0
ARC
8
left_labelLayer
10
136.8502269
20
29.7166691
40
5.1849927
50
179.9886445
51
181.7992328
0
ARC
8
left_labelLayer
10
136.4320257
20
29.7496732
40
4.7668986
50
168.9539161
51
180.3843447
0
ARC
8
left_labelLayer
10
134.8751853
20
30.0666728
40
3.1781905
50
149.4071089
51
169.1853653
0
ARC
8
left_labelLayer
10
134.4414198
20
30.2958543
40
2.6882671
50
140.1056071
51
148.9067177
0
ARC
8
left_labelLayer
10
134.1749275
20
30.5415478
40
2.3262917
50
92.476262
51
140.5386384
0
ARC
8
left_labelLayer
10
134.2936792
20
29.6639171
40
3.209249
50
89.9638665
51
93.9175763
0
ARC
8
left_labelLayer
10
134.3220106
20
30.1075324
40
2.7657582
50
74.2125868
51
90.5449973
0
ARC
8
left_labelLayer
10
134.495239
20
30.7457803
40
2.1044679
50
41.2064641
51
74.02327
0
ARC
8
left_labelLayer
10
134.1671794
20
30.4618686
40
2.5383155
50
11.5994196
51
41.1496074
0
ARC
8
left_labelLayer
10
133.0399755
20
30.2019125
40
3.6948738
50
359.6147951
51
12.0336531
0
ARC
8
left_labelLayer
10
136.2487594
20
29.6756435
40
3.6436272
50
181.1447033
51
190.8006976
0
ARC
8
left_labelLayer
10
134.9633217
20
29.4221189
40
2.3334664
50
190.600556
51
206.0275377
0
ARC
8
left_labelLayer
10
134.3946076
20
29.1532551
40
1.7044697
50
206.2950129
51
222.5557816
0
ARC
8
left_labelLayer
10
134.344214
20
29.1268707
40
1.6495698
50
223.064511
51
258.1401298
0
ARC
8
left_labelLayer
10
134.544831
20
29.9529405
40
2.4993773
50
257.5312211
51
270.4319126
0
ARC
8
left_labelLayer
10
134.5470692
20
32.248264
40
4.7946585
50
270.1984005
51
292.2090402
0
ARC
8
left_labelLayer
10
134.316843
20
32.9094521
40
5.4939394
50
291.8255197
51
293.1614092
0
ARC
8
left_labelLayer
10
134.3057946
20
32.0473707
40
5.4499142
50
287.9022864
51
293.4861469
0
ARC
8
left_labelLayer
10
134.701122
20
30.8276493
40
4.1677279
50
281.9936204
51
287.8850913
0
ARC
8
left_labelLayer
10
134.7969431
20
30.4832762
40
3.8110248
50
275.9054802
51
281.660344
0
ARC
8
left_labelLayer
10
134.6051499
20
32.2734816
40
5.6114666
50
271.9119273
51
275.9727191
0
ARC
8
left_labelLayer
10
134.535124
20
34.057228
40
7.3965637
50
269.9669646
51
271.9930725
0
ARC
8
left_labelLayer
10
134.2673446
20
30.3235901
40
1.7895039
50
89.4422104
51
106.2089943
0
ARC
8
left_labelLayer
10
134.1596866
20
30.7161246
40
1.3825348
50
106.4657018
51
137.9176502
0
ARC
8
left_labelLayer
10
134.4683487
20
30.4450674
40
1.7932894
50
138.0994743
51
160.5866162
0
ARC
8
left_labelLayer
10
135.2617493
20
30.1531879
40
2.6386218
50
160.3353151
51
172.5315493
0
ARC
8
left_labelLayer
10
136.0432781
20
30.0279783
40
3.4298696
50
172.154615
51
174.761454
0
ARC
8
left_labelLayer
10
132.6678707
20
30.3587074
40
3.0935073
50
359.6745194
51
8.9224397
0
ARC
8
left_labelLayer
10
133.773263
20
30.5388145
40
1.9735677
50
8.7341902
51
23.2772207
0
ARC
8
left_labelLayer
10
134.2980139
20
30.7590911
40
1.4044896
50
23.4821904
51
39.7071475
0
ARC
8
left_labelLayer
10
134.426923
20
30.8555558
40
1.243716
50
40.0822877
51
80.6243259
0
ARC
8
left_labelLayer
10
134.2942404
20
30.2473422
40
1.8656912
50
79.6468378
51
90.2909744
0
LINE
8
left_labelLayer
10
140.9839843
20
32.7637904
11
140.9839843
21
32.0583217
0
LINE
8
left_labelLayer
10
140.9839843
20
32.0583217
11
139.4582031
21
32.0583217
0
LINE
8
left_labelLayer
10
139.4582031
20
32.0583217
11
139.4582031
21
26.7700404
0
LINE
8
left_labelLayer
10
139.4582031
20
26.7700404
11
138.5503906
21
26.7700404
0
LINE
8
left_labelLayer
10
138.5503906
20
26.7700404
11
138.5503906
21
32.0583217
0
LINE
8
left_labelLayer
10
138.5503906
20
32.0583217
11
137.4785156
21
32.0583217
0
LINE
8
left_labelLayer
10
137.4785156
20
32.0583217
11
137.4785156
21
32.4684779
0
LINE
8
left_labelLayer
10
137.4785156
20
32.4684779
11
138.5503906
21
32.7966029
0
LINE
8
left_labelLayer
10
138.5503906
20
32.7966029
11
138.5503906
21
33.1301967
0
LINE
8
left_labelLayer
10
141.5964843
20
35.1481654
11
141.3613281
21
34.4208217
0
LINE
8
left_labelLayer
10
139.4582031
20
33.1520717
11
139.4582031
21
32.7637904
0
LINE
8
left_labelLayer
10
139.4582031
20
32.7637904
11
140.9839843
21
32.7637904
0
ARC
8
left_labelLayer
10
142.2294342
20
33.1724938
40
3.6792867
50
167.5775996
51
180.6586872
0
ARC
8
left_labelLayer
10
140.4993154
20
33.5758567
40
1.9030269
50
141.7433861
51
168.2321949
0
ARC
8
left_labelLayer
10
140.2176151
20
33.7228841
40
1.5918787
50
98.2551387
51
139.62035
0
ARC
8
left_labelLayer
10
140.4649519
20
32.5802855
40
2.759332
50
89.6696909
51
99.9314398
0
ARC
8
left_labelLayer
10
140.4656419
20
32.4162564
40
2.9233549
50
81.5640619
51
89.7017469
0
ARC
8
left_labelLayer
10
140.2601282
20
30.9824583
40
4.3717953
50
75.9739801
51
81.6564972
0
ARC
8
left_labelLayer
10
139.9074472
20
29.5196215
40
5.8765084
50
73.2963295
51
76.0945948
0
ARC
8
left_labelLayer
10
139.996255
20
30.2291848
40
4.4083154
50
71.9613375
51
76.5918275
0
ARC
8
left_labelLayer
10
140.3382635
20
31.6800233
40
2.9177179
50
76.5183103
51
83.0217185
0
ARC
8
left_labelLayer
10
140.4573873
20
32.6379951
40
1.9523706
50
83.0761403
51
89.7926412
0
ARC
8
left_labelLayer
10
140.4534676
20
33.3661246
40
1.2242776
50
89.4858761
51
103.4197729
0
ARC
8
left_labelLayer
10
140.3430908
20
33.7901783
40
0.7862366
50
102.7677484
51
144.3380062
0
ARC
8
left_labelLayer
10
140.5654648
20
33.6471026
40
1.0504077
50
145.0689364
51
162.1800985
0
ARC
8
left_labelLayer
10
141.3278858
20
33.3905891
40
1.854782
50
161.8438136
51
171.7846784
0
ARC
8
left_labelLayer
10
142.5713377
20
33.2038239
40
3.1121695
50
171.6527277
51
178.4384088
0
ARC
8
left_labelLayer
10
143.7444903
20
33.153805
40
4.2862875
50
178.1973944
51
180.0231691
0
LINE
8
left_labelLayer
10
144.8339843
20
27.5192592
11
144.8339843
21
26.8247279
0
LINE
8
left_labelLayer
10
142.1433593
20
28.4926967
11
142.1433593
21
32.0583217
0
LINE
8
left_labelLayer
10
142.1433593
20
32.0583217
11
141.2847656
21
32.0583217
0
LINE
8
left_labelLayer
10
141.2847656
20
32.0583217
11
141.2847656
21
32.4958217
0
LINE
8
left_labelLayer
10
141.2847656
20
32.4958217
11
142.1433593
21
32.8731654
0
LINE
8
left_labelLayer
10
142.1433593
20
32.8731654
11
142.5261718
21
34.1528529
0
LINE
8
left_labelLayer
10
142.5261718
20
34.1528529
11
143.0511718
21
34.1528529
0
LINE
8
left_labelLayer
10
143.0511718
20
34.1528529
11
143.0511718
21
32.7637904
0
LINE
8
left_labelLayer
10
143.0511718
20
32.7637904
11
144.7902343
21
32.7637904
0
LINE
8
left_labelLayer
10
144.7902343
20
32.7637904
11
144.7902343
21
32.0583217
0
LINE
8
left_labelLayer
10
144.7902343
20
32.0583217
11
143.0511718
21
32.0583217
0
LINE
8
left_labelLayer
10
143.0511718
20
32.0583217
11
143.0511718
21
28.5309779
0
ARC
8
left_labelLayer
10
144.0198975
20
30.3912566
40
2.9813789
50
269.8803555
51
278.3028375
0
ARC
8
left_labelLayer
10
144.0482387
20
30.1595625
40
2.7480261
50
278.4157119
51
279.0082513
0
ARC
8
left_labelLayer
10
143.7136382
20
32.297101
40
4.9115922
50
278.9590784
51
280.5103042
0
ARC
8
left_labelLayer
10
144.0324457
20
30.5863807
40
3.1714201
50
280.484975
51
282.6266422
0
ARC
8
left_labelLayer
10
144.3121555
20
29.3436589
40
1.89761
50
282.5876969
51
285.5794944
0
ARC
8
left_labelLayer
10
144.4514522
20
28.8312249
40
1.3665962
50
285.7240657
51
286.255192
0
ARC
8
left_labelLayer
10
144.4523118
20
27.6319872
40
0.8929397
50
287.9888912
51
295.3048036
0
ARC
8
left_labelLayer
10
144.2369514
20
28.283547
40
1.5791634
50
283.3069703
51
288.1198675
0
ARC
8
left_labelLayer
10
144.0094118
20
29.2327002
40
2.5552066
50
280.0071002
51
283.3734687
0
ARC
8
left_labelLayer
10
143.8571965
20
30.0587745
40
3.3951695
50
279.1862977
51
280.1143009
0
ARC
8
left_labelLayer
10
143.7637527
20
30.5903093
40
3.9348119
50
275.5260848
51
279.2938825
0
ARC
8
left_labelLayer
10
143.8690645
20
29.4903531
40
2.8298266
50
270.8932566
51
275.5484021
0
ARC
8
left_labelLayer
10
143.8823092
20
28.9852118
40
2.3245464
50
270.002777
51
270.7609419
0
ARC
8
left_labelLayer
10
143.8457888
20
29.0314554
40
2.3710729
50
253.7847933
51
270.885255
0
ARC
8
left_labelLayer
10
143.5648801
20
28.0734492
40
1.3727358
50
190.3817792
51
253.8772294
0
ARC
8
left_labelLayer
10
144.9966628
20
28.4605792
40
2.8534843
50
179.355092
51
192.8477869
0
ARC
8
left_labelLayer
10
144.8791585
20
28.5195439
40
1.8280224
50
179.6416195
51
189.750614
0
ARC
8
left_labelLayer
10
144.233835
20
28.4044417
40
1.1725347
50
189.5479495
51
205.7874058
0
ARC
8
left_labelLayer
10
143.9686337
20
28.2821474
40
0.8805574
50
206.1293942
51
221.4083743
0
ARC
8
left_labelLayer
10
143.9388978
20
28.2595849
40
0.8433361
50
221.59492
51
262.3505302
0
ARC
8
left_labelLayer
10
144.0096203
20
28.6232544
40
1.2133771
50
261.3265424
51
270.191315
0
LINE
8
top_outsideCutPath
10
201
20
116
11
201
21
105.625
0
LINE
8
top_outsideCutPath
10
201
20
105.625
11
198
21
105.625
0
LINE
8
top_outsideCutPath
10
198
20
105.625
11
198
21
92.875
0
LINE
8
top_outsideCutPath
10
198
20
92.875
11
201
21
92.875
0
LINE
8
top_outsideCutPath
10
201
20
92.875
11
201
21
80.125
0
LINE
8
top_outsideCutPath
10
201
20
80.125
11
198
21
80.125
0
LINE
8
top_outsideCutPath
10
198
20
80.125
11
198
21
67.375
0
LINE
8
top_outsideCutPath
10
198
20
67.375
11
201
21
67.375
0
LINE
8
top_outsideCutPath
10
201
20
67.375
11
201
21
54.625
0
LINE
8
top_outsideCutPath
10
201
20
54.625
11
198
21
54.625
0
LINE
8
top_outsideCutPath
10
198
20
54.625
11
198
21
41.875
0
LINE
8
top_outsideCutPath
10
198
20
41.875
11
201
21
41.875
0
LINE
8
top_outsideCutPath
10
201
20
41.875
11
201
21
29.125
0
LINE
8
top_outsideCutPath
10
201
20
29.125
11
198
21
29.125
0
LINE
8
top_outsideCutPath
10
198
20
29.125
11
198
21
16.375
0
LINE
8
top_outsideCutPath
10
198
20
16.375
11
201
21
16.375
0
LINE
8
top_outsideCutPath
10
201
20
16.375
11
201
21
6
0
LINE
8
top_outsideCutPath
10
201
20
6
11
216.875
21
6
0
LINE
8
top_outsideCutPath
10
216.875
20
6
11
216.875
21
3
0
LINE
8
top_outsideCutPath
10
216.875
20
3
11
229.625
21
3
0
LINE
8
top_outsideCutPath
10
229.625
20
3
11
229.625
21
6
0
LINE
8
top_outsideCutPath
10
229.625
20
6
11
242.375
21
6
0
LINE
8
top_outsideCutPath
10
242.375
20
6
11
242.375
21
3
0
LINE
8
top_outsideCutPath
10
242.375
20
3
11
255.125
21
3
0
LINE
8
top_outsideCutPath
10
255.125
20
3
11
255.125
21
6
0
LINE
8
top_outsideCutPath
10
255.125
20
6
11
267.875
21
6
0
LINE
8
top_outsideCutPath
10
267.875
20
6
11
271
21
6
0
LINE
8
top_outsideCutPath
10
271
20
6
11
271
21
16.375
0
LINE
8
top_outsideCutPath
10
271
20
16.375
11
274
21
16.375
0
LINE
8
top_outsideCutPath
10
274
20
16.375
11
274
21
29.125
0
LINE
8
top_outsideCutPath
10
274
20
29.125
11
271
21
29.125
0
LINE
8
top_outsideCutPath
10
271
20
29.125
11
271
21
41.875
0
LINE
8
top_outsideCutPath
10
271
20
41.875
11
274
21
41.875
0
LINE
8
top_outsideCutPath
10
274
20
41.875
11
274
21
54.625
0
LINE
8
top_outsideCutPath
10
274
20
54.625
11
271
21
54.625
0
LINE
8
top_outsideCutPath
10
271
20
54.625
11
271
21
67.375
0
LINE
8
top_outsideCutPath
10
271
20
67.375
11
274
21
67.375
0
LINE
8
top_outsideCutPath
10
274
20
67.375
11
274
21
80.125
0
LINE
8
top_outsideCutPath
10
274
20
80.125
11
271
21
80.125
0
LINE
8
top_outsideCutPath
10
271
20
80.125
11
271
21
92.875
0
LINE
8
top_outsideCutPath
10
271
20
92.875
11
274
21
92.875
0
LINE
8
top_outsideCutPath
10
274
20
92.875
11
274
21
105.625
0
LINE
8
top_outsideCutPath
10
274
20
105.625
11
271
21
105.625
0
LINE
8
top_outsideCutPath
10
271
20
105.625
11
271
21
116
0
LINE
8
top_outsideCutPath
10
271
20
116
11
255.125
21
116
0
LINE
8
top_outsideCutPath
10
255.125
20
116
11
255.125
21
119
0
LINE
8
top_outsideCutPath
10
255.125
20
119
11
242.375
21
119
0
LINE
8
top_outsideCutPath
10
242.375
20
119
11
242.375
21
116
0
LINE
8
top_outsideCutPath
10
242.375
20
116
11
229.625
21
116
0
LINE
8
top_outsideCutPath
10
229.625
20
116
11
229.625
21
119
0
LINE
8
top_outsideCutPath
10
229.625
20
119
11
216.875
21
119
0
LINE
8
top_outsideCutPath
10
216.875
20
119
11
216.875
21
116
0
LINE
8
top_outsideCutPath
10
216.875
20
116
11
204.125
21
116
0
LINE
8
top_outsideCutPath
10
204.125
20
116
11
201
21
116
0
LINE
8
top_labelLayer
10
229.4241559
20
58.8328125
11
229.4241559
21
57.8902344
0
LINE
8
top_labelLayer
10
225.7725934
20
60.1539063
11
225.7725934
21
64.9929688
0
LINE
8
top_labelLayer
10
225.7725934
20
64.9929688
11
224.607359
21
64.9929688
0
LINE
8
top_labelLayer
10
224.607359
20
64.9929688
11
224.607359
21
65.5867188
0
LINE
8
top_labelLayer
10
224.607359
20
65.5867188
11
225.7725934
21
66.0988281
0
LINE
8
top_labelLayer
10
225.7725934
20
66.0988281
11
226.2921246
21
67.8355469
0
LINE
8
top_labelLayer
10
226.2921246
20
67.8355469
11
227.0046246
21
67.8355469
0
LINE
8
top_labelLayer
10
227.0046246
20
67.8355469
11
227.0046246
21
65.9503906
0
LINE
8
top_labelLayer
10
227.0046246
20
65.9503906
11
229.3647809
21
65.9503906
0
LINE
8
top_labelLayer
10
229.3647809
20
65.9503906
11
229.3647809
21
64.9929688
0
LINE
8
top_labelLayer
10
229.3647809
20
64.9929688
11
227.0046246
21
64.9929688
0
LINE
8
top_labelLayer
10
227.0046246
20
64.9929688
11
227.0046246
21
60.2058594
0
ARC
8
top_labelLayer
10
228.3193252
20
62.7305233
40
4.0461571
50
269.8803361
51
278.3028182
0
ARC
8
top_labelLayer
10
228.3577956
20
62.4161192
40
3.7295002
50
278.4154933
51
279.0080269
0
ARC
8
top_labelLayer
10
227.9038599
20
65.3160354
40
6.6647264
50
278.9589298
51
280.5103898
0
ARC
8
top_labelLayer
10
228.3365605
20
62.9943314
40
4.3030461
50
280.4846949
51
282.6268719
0
ARC
8
top_labelLayer
10
228.715925
20
61.3089288
40
2.5754772
50
282.5877444
51
285.5793685
0
ARC
8
top_labelLayer
10
228.9075536
20
60.6044132
40
1.8453854
50
285.7229911
51
286.2567885
0
ARC
8
top_labelLayer
10
228.9061814
20
58.9857779
40
1.2118222
50
287.9887871
51
295.3048477
0
ARC
8
top_labelLayer
10
228.6138973
20
59.8700735
40
2.1431627
50
283.3068788
51
288.1197477
0
ARC
8
top_labelLayer
10
228.3051296
20
61.1580409
40
3.4676203
50
280.0069543
51
283.3734781
0
ARC
8
top_labelLayer
10
228.0982559
20
62.2808312
40
4.6092855
50
279.1864374
51
280.1141274
0
ARC
8
top_labelLayer
10
227.9717393
20
63.0003469
40
5.3397802
50
275.5259809
51
279.2940056
0
ARC
8
top_labelLayer
10
228.1146233
20
61.5078863
40
3.8404966
50
270.8932291
51
275.5483531
0
ARC
8
top_labelLayer
10
228.1325608
20
60.8278725
40
3.1602944
50
270.0034237
51
270.7602564
0
ARC
8
top_labelLayer
10
228.083034
20
60.8850849
40
3.2178909
50
253.7848121
51
270.8852409
0
ARC
8
top_labelLayer
10
227.7017993
20
59.5849267
40
1.8629976
50
190.381759
51
253.8772481
0
ARC
8
top_labelLayer
10
229.6449431
20
60.1103191
40
3.8725952
50
179.3551066
51
192.8477689
0
ARC
8
top_labelLayer
10
229.4854661
20
60.1903421
40
2.48089
50
179.6416287
51
189.7506129
0
ARC
8
top_labelLayer
10
228.6096734
20
60.0341326
40
1.5913031
50
189.5479498
51
205.7873463
0
ARC
8
top_labelLayer
10
228.2497501
20
59.8681608
40
1.1950409
50
206.1294206
51
221.4084149
0
ARC
8
top_labelLayer
10
228.2093958
20
59.83754
40
1.1445275
50
221.5949023
51
262.3505171
0
ARC
8
top_labelLayer
10
228.3053773
20
60.3311099
40
1.6467442
50
261.3265959
51
270.1912707
0
ARC
8
top_labelLayer
10
231.7068381
20
61.8477223
40
6.3639468
50
349.1761933
51
0.386264
0
ARC
8
top_labelLayer
10
233.8494259
20
61.4205943
40
4.1793022
50
330.2507111
51
349.4116357
0
ARC
8
top_labelLayer
10
234.5088043
20
61.077877
40
3.4368962
50
318.143985
51
329.756608
0
ARC
8
top_labelLayer
10
234.6278198
20
60.9824974
40
3.2846182
50
278.8959079
51
317.997923
0
ARC
8
top_labelLayer
10
234.3211784
20
62.4516415
40
4.7841088
50
269.7502867
51
279.8033232
0
ARC
8
top_labelLayer
10
234.2714466
20
61.6238681
40
3.9563954
50
253.5436923
51
270.4182558
0
ARC
8
top_labelLayer
10
234.1397478
20
61.1144233
40
3.4305585
50
238.8115681
51
253.2428327
0
ARC
8
top_labelLayer
10
234.0972425
20
61.028944
40
3.3354313
50
207.7947061
51
238.6757962
0
ARC
8
top_labelLayer
10
234.7071504
20
61.402482
40
4.0494148
50
205.6560055
51
208.4461141
0
ARC
8
top_labelLayer
10
235.1769289
20
61.5982234
40
4.5577071
50
188.9102463
51
205.3171422
0
ARC
8
top_labelLayer
10
236.7601195
20
61.8663645
40
6.1633551
50
179.774469
51
189.0932837
0
ARC
8
top_labelLayer
10
236.993662
20
61.933953
40
6.3969965
50
169.2442973
51
180.3880777
0
ARC
8
top_labelLayer
10
234.8212954
20
62.3633507
40
4.1826918
50
150.7111587
51
169.4695376
0
ARC
8
top_labelLayer
10
234.127798
20
62.7194882
40
3.4037416
50
138.1759383
51
150.2287627
0
ARC
8
top_labelLayer
10
234.0124479
20
62.8080051
40
3.2587744
50
99.1759396
51
137.9832706
0
ARC
8
top_labelLayer
10
234.3299527
20
61.3137895
40
4.7850908
50
89.7326457
51
100.0759793
0
ARC
8
top_labelLayer
10
234.3934105
20
61.9590984
40
4.1399341
50
73.5222681
51
90.5692336
0
ARC
8
top_labelLayer
10
234.6361925
20
62.8411887
40
3.2252546
50
41.1445709
51
73.2133824
0
ARC
8
top_labelLayer
10
234.1727397
20
62.4428579
40
3.836348
50
13.501435
51
41.0703398
0
ARC
8
top_labelLayer
10
232.3821926
20
61.9742961
40
5.6869308
50
1.1277212
51
13.8799972
0
ARC
8
top_labelLayer
10
230.8400737
20
61.8916472
40
7.2305667
50
359.9919004
51
1.5420146
0
ARC
8
top_labelLayer
10
238.1122756
20
61.8586086
40
6.2389832
50
179.7059754
51
187.9160893
0
ARC
8
top_labelLayer
10
235.8240126
20
61.5299012
40
3.9272689
50
187.763934
51
200.0976875
0
ARC
8
top_labelLayer
10
234.5634149
20
61.0680164
40
2.5847178
50
200.084588
51
216.9131565
0
ARC
8
top_labelLayer
10
234.1030894
20
60.7393227
40
2.0192976
50
217.3009559
51
261.7099067
0
ARC
8
top_labelLayer
10
234.316787
20
61.7590584
40
3.0598682
50
260.5032986
51
270.2476999
0
ARC
8
top_labelLayer
10
234.3575762
20
61.5607788
40
2.8616928
50
269.448177
51
284.7255795
0
ARC
8
top_labelLayer
10
234.5841202
20
60.7206026
40
1.9915353
50
284.5662293
51
322.6333796
0
ARC
8
top_labelLayer
10
234.0544508
20
61.1032647
40
2.6447992
50
323.0089295
51
342.6390572
0
ARC
8
top_labelLayer
10
232.5394804
20
61.5984007
40
4.2385471
50
342.3615744
51
353.7537611
0
ARC
8
top_labelLayer
10
230.3043804
20
61.8678127
40
6.4897375
50
353.5363095
51
0.201403
0
ARC
8
top_labelLayer
10
230.6468648
20
61.9220019
40
6.147293
50
359.7075509
51
7.8972852
0
ARC
8
top_labelLayer
10
232.8981636
20
62.2447486
40
3.8730148
50
7.7439833
51
20.0690172
0
ARC
8
top_labelLayer
10
234.15268
20
62.7051081
40
2.5367002
50
20.0257232
51
37.4350319
0
ARC
8
top_labelLayer
10
234.5689261
20
63.0004694
40
2.0267285
50
37.9577614
51
80.4006289
0
ARC
8
top_labelLayer
10
234.3323905
20
61.9450721
40
3.1073192
50
79.3453488
51
90.3175019
0
ARC
8
top_labelLayer
10
234.288591
20
62.1203722
40
2.932092
50
89.4805842
51
103.8804895
0
ARC
8
top_labelLayer
10
234.0422208
20
63.0585534
40
1.9622544
50
103.4685342
51
142.311876
0
ARC
8
top_labelLayer
10
234.5211881
20
62.7217104
40
2.547354
50
142.9025826
51
162.3749487
0
ARC
8
top_labelLayer
10
236.0303957
20
62.2187702
40
4.1380608
50
162.0653003
51
173.1675038
0
ARC
8
top_labelLayer
10
238.3837123
20
61.9186196
40
6.5103978
50
173.0086367
51
180.2463712
0
LINE
8
top_labelLayer
10
241.4624371
20
58.8625
11
241.3733746
21
58.8625
0
LINE
8
top_labelLayer
10
241.4624371
20
57.5117188
11
241.4624371
21
54.1644531
0
LINE
8
top_labelLayer
10
241.4624371
20
54.1644531
11
240.2304059
21
54.1644531
0
LINE
8
top_labelLayer
10
240.2304059
20
54.1644531
11
240.2304059
21
65.9503906
0
LINE
8
top_labelLayer
10
240.2304059
20
65.9503906
11
241.232359
21
65.9503906
0
LINE
8
top_labelLayer
10
241.232359
20
65.9503906
11
241.4030621
21
64.8371094
0
LINE
8
top_labelLayer
10
241.4030621
20
64.8371094
11
241.4624371
21
64.8371094
0
LINE
8
top_labelLayer
10
241.4624371
20
62.1652344
11
241.4624371
21
61.890625
0
ARC
8
top_labelLayer
10
243.9947865
20
61.4045394
40
3.737019
50
255.7755315
51
270.318533
0
ARC
8
top_labelLayer
10
243.8881372
20
60.9307178
40
3.2515449
50
245.9801477
51
255.5456005
0
ARC
8
top_labelLayer
10
243.6815818
20
60.4503739
40
2.7287261
50
215.5850159
51
245.8361713
0
ARC
8
top_labelLayer
10
229.805802
20
57.4007458
40
11.6595652
50
2.9503326
51
7.2020962
0
ARC
8
top_labelLayer
10
231.6922479
20
57.506288
40
9.7701909
50
0.0318476
51
2.9016205
0
ARC
8
top_labelLayer
10
244.1763576
20
62.9311205
40
3.3163471
50
132.356519
51
144.919596
0
ARC
8
top_labelLayer
10
243.6683222
20
63.485369
40
2.5644917
50
115.4006198
51
132.3118152
0
ARC
8
top_labelLayer
10
243.8664889
20
63.0029545
40
3.0854006
50
97.7066393
51
114.8821545
0
ARC
8
top_labelLayer
10
244.0048868
20
62.105394
40
3.9934485
50
89.8468363
51
97.9474482
0
ARC
8
top_labelLayer
10
244.0536936
20
62.322533
40
3.7764876
50
74.1923442
51
90.5785299
0
ARC
8
top_labelLayer
10
244.3150052
20
63.2724529
40
2.7913182
50
38.0523433
51
74.0417342
0
ARC
8
top_labelLayer
10
243.5942592
20
62.7200318
40
3.6993817
50
16.3356092
51
37.9090587
0
ARC
8
top_labelLayer
10
241.7008536
20
62.1368509
40
5.6804436
50
4.5766441
51
16.608884
0
ARC
8
top_labelLayer
10
239.3697616
20
61.9045775
40
8.0227658
50
359.9003561
51
4.9017975
0
ARC
8
top_labelLayer
10
240.1689503
20
61.8480082
40
7.2236906
50
350.6562786
51
0.3380236
0
ARC
8
top_labelLayer
10
242.6872514
20
61.4196724
40
4.6692793
50
335.830591
51
350.8254849
0
ARC
8
top_labelLayer
10
243.7949997
20
60.9415525
40
3.4629215
50
321.3161562
51
335.5436139
0
ARC
8
top_labelLayer
10
244.2185038
20
60.5964618
40
2.9166456
50
274.0640033
51
321.4081016
0
ARC
8
top_labelLayer
10
244.0212087
20
61.8461809
40
4.1786067
50
269.922576
51
275.5481918
0
ARC
8
top_labelLayer
10
243.8120619
20
61.5024734
40
3.5499611
50
89.5904449
51
100.350192
0
ARC
8
top_labelLayer
10
243.5589229
20
62.8323127
40
2.1963043
50
100.086823
51
118.1918002
0
ARC
8
top_labelLayer
10
243.2996027
20
63.3380707
40
1.6280677
50
118.5569327
51
141.0243356
0
ARC
8
top_labelLayer
10
243.6947564
20
63.0593358
40
2.1108272
50
141.889049
51
160.5973045
0
ARC
8
top_labelLayer
10
245.0834861
20
62.5497723
40
3.5900184
50
160.2895952
51
171.2452934
0
ARC
8
top_labelLayer
10
247.3667862
20
62.181631
40
5.9027713
50
171.0868488
51
178.3247603
0
ARC
8
top_labelLayer
10
249.3039122
20
62.0895916
40
7.8418399
50
178.0663351
51
179.4473138
0
ARC
8
top_labelLayer
10
249.608469
20
61.8588178
40
8.146094
50
179.7762823
51
185.7075373
0
ARC
8
top_labelLayer
10
246.3967654
20
61.5278975
40
4.9174123
50
185.5924926
51
194.2050542
0
ARC
8
top_labelLayer
10
244.3393622
20
60.9939315
40
2.7919145
50
193.9430451
51
208.0218393
0
ARC
8
top_labelLayer
10
243.5069425
20
60.5704589
40
1.8582097
50
208.5537059
51
217.5605392
0
ARC
8
top_labelLayer
10
243.439114
20
60.5422438
40
1.7873425
50
218.1690389
51
253.804726
0
ARC
8
top_labelLayer
10
243.7706334
20
61.5643553
40
2.8615516
50
253.1382669
51
266.8482949
0
ARC
8
top_labelLayer
10
243.8635919
20
62.6606316
40
3.9614143
50
266.3775809
51
270.0510962
0
ARC
8
top_labelLayer
10
243.8951784
20
60.774955
40
2.0759258
50
269.2256905
51
292.0430342
0
ARC
8
top_labelLayer
10
243.9231871
20
60.6080322
40
1.911045
50
293.1429758
51
324.1353786
0
ARC
8
top_labelLayer
10
243.5070844
20
60.9603371
40
2.4550164
50
323.1615154
51
325.015292
0
ARC
8
top_labelLayer
10
243.0614145
20
61.2366823
40
2.9787429
50
325.5753689
51
344.1504731
0
ARC
8
top_labelLayer
10
241.5199642
20
61.6923497
40
4.5860718
50
343.9336423
51
355.1137257
0
ARC
8
top_labelLayer
10
239.5522284
20
61.8920142
40
6.5637382
50
354.8402355
51
0.1174469
0
ARC
8
top_labelLayer
10
239.8988495
20
61.936847
40
6.2171825
50
359.7108255
51
7.8610547
0
ARC
8
top_labelLayer
10
242.1594039
20
62.259084
40
3.9338113
50
7.714968
51
19.8859673
0
ARC
8
top_labelLayer
10
243.4026588
20
62.7081527
40
2.6119396
50
19.8991478
51
35.8980107
0
ARC
8
top_labelLayer
10
243.9572094
20
63.1281263
40
1.9165292
50
35.4481645
51
85.2266614
0
ARC
8
top_labelLayer
10
243.841361
20
62.4016267
40
2.6507199
50
84.0379239
51
90.0848156
0
LINE
8
back_outsideCutPath
10
0
20
118
11
0
21
109.125
0
LINE
8
back_outsideCutPath
10
0
20
109.125
11
3
21
109.125
0
LINE
8
back_outsideCutPath
10
3
20
109.125
11
3
21
96.375
0
LINE
8
back_outsideCutPath
10
3
20
96.375
11
0
21
96.375
0
LINE
8
back_outsideCutPath
10
0
20
96.375
11
0
21
83.625
0
LINE
8
back_outsideCutPath
10
0
20
83.625
11
3
21
83.625
0
LINE
8
back_outsideCutPath
10
3
20
83.625
11
3
21
70.875
0
LINE
8
back_outsideCutPath
10
3
20
70.875
11
0
21
70.875
0
LINE
8
back_outsideCutPath
10
0
20
70.875
11
0
21
62
0
LINE
8
back_outsideCutPath
10
0
20
62
11
18.875
21
62
0
LINE
8
back_outsideCutPath
10
18.875
20
62
11
18.875
21
65
0
LINE
8
back_outsideCutPath
10
18.875
20
65
11
31.625
21
65
0
LINE
8
back_outsideCutPath
10
31.625
20
65
11
31.625
21
62
0
LINE
8
back_outsideCutPath
10
31.625
20
62
11
44.375
21
62
0
LINE
8
back_outsideCutPath
10
44.375
20
62
11
44.375
21
65
0
LINE
8
back_outsideCutPath
10
44.375
20
65
11
57.125
21
65
0
LINE
8
back_outsideCutPath
10
57.125
20
65
11
57.125
21
62
0
LINE
8
back_outsideCutPath
10
57.125
20
62
11
69.875
21
62
0
LINE
8
back_outsideCutPath
10
69.875
20
62
11
76
21
62
0
LINE
8
back_outsideCutPath
10
76
20
62
11
76
21
70.875
0
LINE
8
back_outsideCutPath
10
76
20
70.875
11
73
21
70.875
0
LINE
8
back_outsideCutPath
10
73
20
70.875
11
73
21
83.625
0
LINE
8
back_outsideCutPath
10
73
20
83.625
11
76
21
83.625
0
LINE
8
back_outsideCutPath
10
76
20
83.625
11
76
21
96.375
0
LINE
8
back_outsideCutPath
10
76
20
96.375
11
73
21
96.375
0
LINE
8
back_outsideCutPath
10
73
20
96.375
11
73
21
109.125
0
LINE
8
back_outsideCutPath
10
73
20
109.125
11
76
21
109.125
0
LINE
8
back_outsideCutPath
10
76
20
109.125
11
76
21
118
0
LINE
8
back_outsideCutPath
10
76
20
118
11
57.125
21
118
0
LINE
8
back_outsideCutPath
10
57.125
20
118
11
57.125
21
115
0
LINE
8
back_outsideCutPath
10
57.125
20
115
11
44.375
21
115
0
LINE
8
back_outsideCutPath
10
44.375
20
115
11
44.375
21
118
0
LINE
8
back_outsideCutPath
10
44.375
20
118
11
31.625
21
118
0
LINE
8
back_outsideCutPath
10
31.625
20
118
11
31.625
21
115
0
LINE
8
back_outsideCutPath
10
31.625
20
115
11
18.875
21
115
0
LINE
8
back_outsideCutPath
10
18.875
20
115
11
18.875
21
118
0
LINE
8
back_outsideCutPath
10
18.875
20
118
11
6.125
21
118
0
LINE
8
back_outsideCutPath
10
6.125
20
118
11
0
21
118
0
LINE
8
back_labelLayer
10
27.2976563
20
86.5711555
11
27.2320313
21
86.5711555
0
LINE
8
back_labelLayer
10
27.2320313
20
86.5711555
11
27.040625
21
85.8000618
0
LINE
8
back_labelLayer
10
27.040625
20
85.8000618
11
26.3898437
21
85.8000618
0
LINE
8
back_labelLayer
10
26.3898437
20
85.8000618
11
26.3898437
21
94.3094368
0
LINE
8
back_labelLayer
10
26.3898437
20
94.3094368
11
27.2976563
21
94.3094368
0
LINE
8
back_labelLayer
10
27.2976563
20
94.3094368
11
27.2976563
21
92.2422493
0
LINE
8
back_labelLayer
10
27.2539063
20
90.9953743
11
27.2976563
21
90.9953743
0
ARC
8
back_labelLayer
10
29.2061401
20
89.1177945
40
2.7745884
50
74.239336
51
90.5623928
0
ARC
8
back_labelLayer
10
29.3896045
20
89.7908433
40
2.0770199
50
38.5631229
51
74.0670311
0
ARC
8
back_labelLayer
10
28.9174659
20
89.423728
40
2.6750564
50
16.4709255
51
38.4075246
0
ARC
8
back_labelLayer
10
27.5573089
20
88.9972223
40
4.1003909
50
5.1338354
51
16.7973404
0
ARC
8
back_labelLayer
10
25.8402164
20
88.8148201
40
5.8269843
50
359.8779292
51
5.40936
0
ARC
8
back_labelLayer
10
26.3445548
20
88.771004
40
5.3227254
50
350.6562857
51
0.3380198
0
ARC
8
back_labelLayer
10
28.200142
20
88.4553903
40
3.4405309
50
335.8306151
51
350.8254686
0
ARC
8
back_labelLayer
10
29.0163882
20
88.1030885
40
2.5516247
50
321.3161409
51
335.5436075
0
ARC
8
back_labelLayer
10
29.3284421
20
87.8488117
40
2.1491074
50
274.0640052
51
321.4081006
0
ARC
8
back_labelLayer
10
29.1830649
20
88.7697141
40
3.0790301
50
269.9226145
51
275.5481265
0
ARC
8
back_labelLayer
10
29.1635964
20
88.4442327
40
2.7535885
50
255.7755371
51
270.318563
0
ARC
8
back_labelLayer
10
29.0850185
20
88.0951161
40
2.3958865
50
245.9801568
51
255.5455642
0
ARC
8
back_labelLayer
10
28.9328145
20
87.741167
40
2.0106391
50
215.5850113
51
245.836186
0
ARC
8
back_labelLayer
10
8.3701462
20
92.2262539
40
18.9275169
50
358.1123372
51
0.0484198
0
ARC
8
back_labelLayer
10
13.6381324
20
92.0494044
40
13.6565643
50
355.7238536
51
358.1258727
0
ARC
8
back_labelLayer
10
15.9890126
20
91.8876285
40
11.3001746
50
355.4712496
51
355.6530492
0
ARC
8
back_labelLayer
10
28.990687
20
89.8147783
40
2.0640155
50
95.1835124
51
145.1108964
0
ARC
8
back_labelLayer
10
29.1721045
20
88.791746
40
3.1005106
50
89.8743069
51
96.8145219
0
ARC
8
back_labelLayer
10
29.0286506
20
88.5811294
40
2.5510344
50
89.573133
51
100.7324023
0
ARC
8
back_labelLayer
10
28.8398033
20
89.5352564
40
1.5784493
50
100.4469372
51
119.6700684
0
ARC
8
back_labelLayer
10
28.664686
20
89.8626599
40
1.2073282
50
120.1403063
51
142.4248847
0
ARC
8
back_labelLayer
10
28.9544009
20
89.6710041
40
1.5540125
50
143.3382092
51
161.2560062
0
ARC
8
back_labelLayer
10
30.1659636
20
89.2408589
40
2.8395985
50
160.8926456
51
171.2334036
0
ARC
8
back_labelLayer
10
32.1885092
20
88.9145777
40
4.8882646
50
171.0668019
51
177.8456926
0
ARC
8
back_labelLayer
10
34.291957
20
88.8075978
40
6.9943026
50
177.6176836
51
180.042534
0
ARC
8
back_labelLayer
10
33.3000253
20
88.7789691
40
6.0024148
50
179.7762883
51
185.7075138
0
ARC
8
back_labelLayer
10
30.9334814
20
88.5351327
40
3.6233607
50
185.5924867
51
194.2050382
0
ARC
8
back_labelLayer
10
29.4175008
20
88.1416858
40
2.0572054
50
193.9430617
51
208.0218197
0
ARC
8
back_labelLayer
10
28.8041261
20
87.8296457
40
1.3691976
50
208.5536456
51
217.5605426
0
ARC
8
back_labelLayer
10
28.7541564
20
87.8088633
40
1.3169915
50
218.1690649
51
253.8046893
0
ARC
8
back_labelLayer
10
28.9984327
20
88.5619967
40
2.1085122
50
253.1382634
51
266.8482884
0
ARC
8
back_labelLayer
10
29.0669273
20
89.3697699
40
2.9189279
50
266.3775856
51
270.0511122
0
ARC
8
back_labelLayer
10
29.0888962
20
88.2604575
40
1.8097181
50
269.386892
51
285.863042
0
ARC
8
back_labelLayer
10
29.2233462
20
87.7745328
40
1.3055527
50
286.0163047
51
326.8497327
0
ARC
8
back_labelLayer
10
28.5744179
20
88.2044235
40
2.0839472
50
326.7105167
51
343.6661823
0
ARC
8
back_labelLayer
10
27.3596544
20
88.5756151
40
3.3541053
50
343.4171501
51
353.6368951
0
ARC
8
back_labelLayer
10
25.5249302
20
88.7933188
40
5.2016709
50
353.4934595
51
0.2205645
0
ARC
8
back_labelLayer
10
25.3631739
20
88.8350529
40
5.3634325
50
359.76808
51
6.3095266
0
ARC
8
back_labelLayer
10
27.3834517
20
89.0668906
40
3.3299239
50
6.1648951
51
16.0396232
0
ARC
8
back_labelLayer
10
28.6849044
20
89.4504261
40
1.9731846
50
15.7779747
51
32.0151023
0
ARC
8
back_labelLayer
10
29.0904212
20
89.6826175
40
1.5063578
50
32.7037518
51
35.5238479
0
ARC
8
back_labelLayer
10
29.2391778
20
89.7883359
40
1.323862
50
35.5408279
51
79.8011309
0
ARC
8
back_labelLayer
10
29.0613955
20
89.0325441
40
2.0995939
50
78.6781541
51
90.3749324
0
LINE
8
back_labelLayer
10
37.6117188
20
85.8000618
11
36.9390625
21
85.8000618
0
LINE
8
back_labelLayer
10
36.9390625
20
85.8000618
11
36.7585938
21
86.6531868
0
LINE
8
back_labelLayer
10
36.7585938
20
86.6531868
11
36.7148438
21
86.6531868
0
LINE
8
back_labelLayer
10
35.7085938
20
89.360218
11
36.7257813
21
89.3930305
0
LINE
8
back_labelLayer
10
36.7257813
20
89.3930305
11
36.7257813
21
89.7649055
0
LINE
8
back_labelLayer
10
33.75625
20
90.6836555
11
33.4773437
21
91.3781868
0
LINE
8
back_labelLayer
10
37.6117188
20
89.8906868
11
37.6117188
21
85.8000618
0
LINE
8
back_labelLayer
10
36.7039063
20
88.2063118
11
36.7039063
21
88.747718
0
LINE
8
back_labelLayer
10
36.7039063
20
88.747718
11
35.7960938
21
88.7094368
0
ARC
8
back_labelLayer
10
33.761174
20
88.9852541
40
3.7633367
50
314.7445066
51
321.7071748
0
ARC
8
back_labelLayer
10
34.6857857
20
88.0457737
40
2.4451952
50
304.8485119
51
314.8531345
0
ARC
8
back_labelLayer
10
35.1299245
20
87.413585
40
1.6725979
50
294.3932668
51
304.7371357
0
ARC
8
back_labelLayer
10
34.9781825
20
87.8067613
40
2.093485
50
281.2979494
51
293.731356
0
ARC
8
back_labelLayer
10
34.777589
20
88.7789306
40
3.0861202
50
272.9334994
51
281.4139408
0
ARC
8
back_labelLayer
10
34.7110951
20
89.7761747
40
4.0854893
50
269.9539637
51
273.1490653
0
ARC
8
back_labelLayer
10
34.6881333
20
88.4765767
40
2.7859595
50
258.6719756
51
270.4047247
0
ARC
8
back_labelLayer
10
34.4946149
20
87.550865
40
1.8402869
50
238.3272945
51
258.9183955
0
ARC
8
back_labelLayer
10
34.3612598
20
87.3075747
40
1.5632766
50
227.7689309
51
237.8050028
0
ARC
8
back_labelLayer
10
34.319549
20
87.2493462
40
1.49215
50
192.0827859
51
227.4520575
0
ARC
8
back_labelLayer
10
35.0888344
20
87.4389819
40
2.2842186
50
179.5457073
51
192.6949299
0
ARC
8
back_labelLayer
10
34.3741731
20
87.5216889
40
1.5708144
50
115.490457
51
182.3568129
0
ARC
8
back_labelLayer
10
35.1608531
20
86.0787563
40
3.21308
50
101.3568035
51
117.0798627
0
ARC
8
back_labelLayer
10
35.7926339
20
83.1263908
40
6.2321633
50
92.46964
51
101.7064914
0
ARC
8
back_labelLayer
10
35.9742402
20
80.495776
40
8.8684215
50
91.7165058
51
92.9095136
0
ARC
8
back_labelLayer
10
34.1183535
20
89.7788615
40
2.6074651
50
359.6933342
51
8.0035474
0
ARC
8
back_labelLayer
10
35.104708
20
89.9225503
40
1.6107193
50
7.8273002
51
20.6041688
0
ARC
8
back_labelLayer
10
35.6628699
20
90.1360744
40
1.0131256
50
20.409445
51
41.4479635
0
ARC
8
back_labelLayer
10
35.745339
20
90.1814059
40
0.9215343
50
42.7295437
51
71.0380278
0
ARC
8
back_labelLayer
10
35.5511817
20
89.6534878
40
1.4839433
50
70.5716385
51
83.9928791
0
ARC
8
back_labelLayer
10
35.4584238
20
88.8999981
40
2.2430429
50
83.6507338
51
90.1752625
0
ARC
8
back_labelLayer
10
35.4746975
20
88.1874721
40
2.955649
50
90.4484797
51
103.7665262
0
ARC
8
back_labelLayer
10
35.8222584
20
86.7217883
40
4.4619505
50
103.6226274
51
112.4320066
0
ARC
8
back_labelLayer
10
36.4180611
20
85.2174373
40
6.0798669
50
112.2122378
51
115.9640725
0
ARC
8
back_labelLayer
10
35.4639609
20
87.6940256
40
4.185653
50
106.3568856
51
118.3349609
0
ARC
8
back_labelLayer
10
35.6422117
20
87.1433941
40
4.764224
50
104.5161286
51
106.5489183
0
ARC
8
back_labelLayer
10
35.5114916
20
87.6880694
40
4.204183
50
90.0714333
51
104.6520988
0
ARC
8
back_labelLayer
10
35.5279905
20
88.0581955
40
3.8341154
50
81.5679895
51
90.3248843
0
ARC
8
back_labelLayer
10
35.7496725
20
89.5023997
40
2.3730277
50
68.227377
51
81.7494091
0
ARC
8
back_labelLayer
10
36.0584416
20
90.2706479
40
1.5450549
50
47.8682932
51
68.2934114
0
ARC
8
back_labelLayer
10
36.1085547
20
90.3707074
40
1.4375449
50
19.2330903
51
46.6741202
0
ARC
8
back_labelLayer
10
35.2737484
20
90.0601563
40
2.3281282
50
6.3379195
51
19.6815655
0
ARC
8
back_labelLayer
10
34.0396929
20
89.9029902
40
3.5720469
50
359.8026523
51
6.6583291
0
ARC
8
back_labelLayer
10
34.9066371
20
88.9393187
40
2.4994806
50
269.5792243
51
282.041335
0
ARC
8
back_labelLayer
10
35.0889556
20
88.1306227
40
1.6705707
50
281.7121141
51
306.459366
0
ARC
8
back_labelLayer
10
35.1698223
20
87.9976412
40
1.5156258
50
306.9880623
51
313.8560413
0
ARC
8
back_labelLayer
10
35.1601812
20
87.9949153
40
1.5203658
50
314.1892065
51
347.4269697
0
ARC
8
back_labelLayer
10
34.3985968
20
88.185765
40
2.3053228
50
346.9177509
51
0.2824761
0
ARC
8
back_labelLayer
10
33.8595185
20
88.2062443
40
2.8443877
50
359.8164169
51
0.0013592
0
ARC
8
back_labelLayer
10
36.0120409
20
82.047178
40
6.6657577
50
91.8565071
51
96.4478272
0
ARC
8
back_labelLayer
10
35.7114283
20
84.6484608
40
4.0471763
50
96.3545172
51
102.9953294
0
ARC
8
back_labelLayer
10
35.303391
20
86.3820941
40
2.2662013
50
102.7995931
51
113.2432562
0
ARC
8
back_labelLayer
10
34.9670089
20
87.1866009
40
1.3942671
50
113.5887161
51
121.6804616
0
ARC
8
back_labelLayer
10
34.7332911
20
87.5425499
40
0.9686875
50
120.9734031
51
172.417986
0
ARC
8
back_labelLayer
10
35.1900926
20
87.4513051
40
1.4338521
50
171.2121548
51
180.2057757
0
ARC
8
back_labelLayer
10
35.0535705
20
87.4354361
40
1.2973648
50
179.5265896
51
192.7787618
0
ARC
8
back_labelLayer
10
34.6146978
20
87.3290511
40
0.8458579
50
192.3264764
51
222.0579907
0
ARC
8
back_labelLayer
10
34.5820448
20
87.3095195
40
0.808564
50
222.5803941
51
229.2546762
0
ARC
8
back_labelLayer
10
34.6923656
20
87.4515543
40
0.9882203
50
229.7837259
51
254.2724109
0
ARC
8
back_labelLayer
10
34.8392843
20
87.9411449
40
1.499331
50
253.9396437
51
266.453425
0
ARC
8
back_labelLayer
10
34.886181
20
88.48175
40
2.0418456
50
266.0783868
51
270.0589339
0
LINE
8
back_labelLayer
10
43.4796875
20
91.591468
11
43.2007813
21
90.8203743
0
LINE
8
back_labelLayer
10
43.3921875
20
86.8063118
11
43.3921875
21
86.0024055
0
ARC
8
back_labelLayer
10
41.8483882
20
89.0834266
40
3.3928634
50
256.4243903
51
270.4889821
0
ARC
8
back_labelLayer
10
41.5772666
20
88.0252587
40
2.3006696
50
221.7976332
51
256.8020554
0
ARC
8
back_labelLayer
10
41.8398177
20
88.2192474
40
2.6258717
50
196.0166692
51
221.1349201
0
ARC
8
back_labelLayer
10
43.1593673
20
88.6225697
40
4.0055511
50
183.5913671
51
196.3539582
0
ARC
8
back_labelLayer
10
44.6375991
20
88.7527973
40
5.4891647
50
179.9388519
51
183.9814919
0
ARC
8
back_labelLayer
10
44.1572954
20
88.7909048
40
5.0089617
50
169.8978582
51
180.3688905
0
ARC
8
back_labelLayer
10
42.413554
20
89.1134702
40
3.2356962
50
153.0875141
51
170.1051453
0
ARC
8
back_labelLayer
10
41.7519414
20
89.4296085
40
2.5027051
50
138.6549959
51
152.6853861
0
ARC
8
back_labelLayer
10
41.6284641
20
89.5195903
40
2.3506056
50
101.4912838
51
138.3133893
0
ARC
8
back_labelLayer
10
41.9119504
20
88.3397459
40
3.5635324
50
89.5892002
51
102.1787553
0
ARC
8
back_labelLayer
10
41.9337489
20
87.8064925
40
4.096696
50
77.7702334
51
89.9475375
0
ARC
8
back_labelLayer
10
41.856222
20
87.3787677
40
4.531161
50
74.6796691
51
77.9578646
0
ARC
8
back_labelLayer
10
42.2750699
20
88.8961646
40
2.9570224
50
70.094535
51
74.7386539
0
ARC
8
back_labelLayer
10
42.6734557
20
89.9879398
40
1.7948388
50
63.5034442
51
70.1861083
0
ARC
8
back_labelLayer
10
42.8619798
20
90.3828526
40
1.3573188
50
62.9290148
51
63.1882754
0
ARC
8
back_labelLayer
10
41.7094856
20
87.067304
40
4.0385021
50
68.3294272
51
74.8831497
0
ARC
8
back_labelLayer
10
41.4964201
20
86.3117941
40
4.8234411
50
74.7802297
51
77.4497772
0
ARC
8
back_labelLayer
10
41.7200939
20
87.3616822
40
3.7500489
50
77.2999476
51
81.7344678
0
ARC
8
back_labelLayer
10
41.8832619
20
88.4986064
40
2.6014781
50
81.6910332
51
87.507886
0
ARC
8
back_labelLayer
10
41.9147362
20
89.0868708
40
2.0124101
50
87.6748874
51
89.9746937
0
ARC
8
back_labelLayer
10
41.8706216
20
89.0861228
40
2.0136607
50
88.7193878
51
112.5667617
0
ARC
8
back_labelLayer
10
41.7275379
20
89.5591955
40
1.522702
50
114.4265743
51
161.6632766
0
ARC
8
back_labelLayer
10
43.1489327
20
89.0028457
40
3.0480268
50
160.1418314
51
175.1368297
0
ARC
8
back_labelLayer
10
45.1052943
20
88.7831607
40
5.01625
50
174.5309851
51
180.1549703
0
ARC
8
back_labelLayer
10
44.4855176
20
88.7468902
40
4.3965137
50
179.7041329
51
188.0743484
0
ARC
8
back_labelLayer
10
42.9019457
20
88.5151985
40
2.796106
50
187.9315333
51
200.3885264
0
ARC
8
back_labelLayer
10
42.0456835
20
88.1979964
40
1.8829791
50
200.4182992
51
216.639312
0
ARC
8
back_labelLayer
10
41.6867327
20
87.9413906
40
1.4418419
50
216.9695532
51
261.3102911
0
ARC
8
back_labelLayer
10
41.8451486
20
88.6799511
40
2.1963199
50
260.1359386
51
270.269225
0
ARC
8
back_labelLayer
10
41.8378365
20
90.2838235
40
3.8002089
50
270.2658426
51
286.2891576
0
ARC
8
back_labelLayer
10
41.6068226
20
91.1453635
40
4.6920036
50
286.0460468
51
292.3654167
0
ARC
8
back_labelLayer
10
42.2220647
20
88.304315
40
2.5822422
50
282.03441
51
296.9454616
0
ARC
8
back_labelLayer
10
41.9564939
20
89.5011433
40
3.8081522
50
272.5980603
51
282.1878245
0
ARC
8
back_labelLayer
10
41.8803446
20
90.6689803
40
4.9782944
50
269.9654633
51
272.8643124
0
LINE
8
back_labelLayer
10
45.6671875
20
88.8680305
11
45.7109375
21
88.8680305
0
LINE
8
back_labelLayer
10
46.4273438
20
89.7430305
11
48.3632813
21
91.7938118
0
LINE
8
back_labelLayer
10
48.3632813
20
91.7938118
11
49.440625
21
91.7938118
0
LINE
8
back_labelLayer
10
49.440625
20
91.7938118
11
47.0125
21
89.2399055
0
LINE
8
back_labelLayer
10
47.0125
20
89.2399055
11
49.6101563
21
85.8000618
0
LINE
8
back_labelLayer
10
49.6101563
20
85.8000618
11
48.5109375
21
85.8000618
0
LINE
8
back_labelLayer
10
48.5109375
20
85.8000618
11
46.3945313
21
88.6328743
0
LINE
8
back_labelLayer
10
46.3945313
20
88.6328743
11
45.7109375
21
88.0422493
0
LINE
8
back_labelLayer
10
45.7109375
20
88.0422493
11
45.7109375
21
85.8000618
0
LINE
8
back_labelLayer
10
45.7109375
20
85.8000618
11
44.8140625
21
85.8000618
0
LINE
8
back_labelLayer
10
44.8140625
20
85.8000618
11
44.8140625
21
94.3094368
0
LINE
8
back_labelLayer
10
44.8140625
20
94.3094368
11
45.7109375
21
94.3094368
0
LINE
8
back_labelLayer
10
45.7109375
20
94.3094368
11
45.7109375
21
89.797718
0
ARC
8
back_labelLayer
10
50.0969655
20
85.7634285
40
5.3736203
50
142.3232684
51
144.7076482
0
ARC
8
back_labelLayer
10
52.9594005
20
83.5555732
40
8.9886108
50
140.4331274
51
142.336535
0
ARC
8
back_labelLayer
10
56.6889317
20
80.4855151
40
13.8192017
50
139.2799402
51
140.4703561
0
ARC
8
back_labelLayer
10
61.0008416
20
76.7775543
40
19.5061634
50
138.3417497
51
139.2877189
0
ARC
8
back_labelLayer
10
39.6614656
20
89.8090394
40
6.0494824
50
358.2739014
51
359.8927734
0
ARC
8
back_labelLayer
10
34.9540735
20
89.940242
40
10.7586959
50
357.5041312
51
358.3306228
0
ARC
8
back_labelLayer
10
27.9129224
20
90.2512259
40
17.8067107
50
356.6324521
51
357.4910501
0
ARC
8
back_labelLayer
10
16.2032445
20
90.9341374
40
29.5362846
50
356.0329275
51
356.6442958
0
ARC
8
back_labelLayer
10
8.2831738
20
91.4684324
40
37.4743457
50
356.020961
51
356.0557403
0
LINE
8
right_outsideCutPath
10
82
20
118
11
82
21
109.125
0
LINE
8
right_outsideCutPath
10
82
20
109.125
11
79
21
109.125
0
LINE
8
right_outsideCutPath
10
79
20
109.125
11
79
21
96.375
0
LINE
8
right_outsideCutPath
10
79
20
96.375
11
82
21
96.375
0
LINE
8
right_outsideCutPath
10
82
20
96.375
11
82
21
83.625
0
LINE
8
right_outsideCutPath
10
82
20
83.625
11
79
21
83.625
0
LINE
8
right_outsideCutPath
10
79
20
83.625
11
79
21
70.875
0
LINE
8
right_outsideCutPath
10
79
20
70.875
11
82
21
70.875
0
LINE
8
right_outsideCutPath
10
82
20
70.875
11
82
21
62
0
LINE
8
right_outsideCutPath
10
82
20
62
11
92.375
21
62
0
LINE
8
right_outsideCutPath
10
92.375
20
62
11
92.375
21
65
0
LINE
8
right_outsideCutPath
10
92.375
20
65
11
105.125
21
65
0
LINE
8
right_outsideCutPath
10
105.125
20
65
11
105.125
21
62
0
LINE
8
right_outsideCutPath
10
105.125
20
62
11
117.875
21
62
0
LINE
8
right_outsideCutPath
10
117.875
20
62
11
117.875
21
65
0
LINE
8
right_outsideCutPath
10
117.875
20
65
11
130.625
21
65
0
LINE
8
right_outsideCutPath
10
130.625
20
65
11
130.625
21
62
0
LINE
8
right_outsideCutPath
10
130.625
20
62
11
143.375
21
62
0
LINE
8
right_outsideCutPath
10
143.375
20
62
11
143.375
21
65
0
LINE
8
right_outsideCutPath
10
143.375
20
65
11
156.125
21
65
0
LINE
8
right_outsideCutPath
10
156.125
20
65
11
156.125
21
62
0
LINE
8
right_outsideCutPath
10
156.125
20
62
11
168.875
21
62
0
LINE
8
right_outsideCutPath
10
168.875
20
62
11
168.875
21
65
0
LINE
8
right_outsideCutPath
10
168.875
20
65
11
181.625
21
65
0
LINE
8
right_outsideCutPath
10
181.625
20
65
11
181.625
21
62
0
LINE
8
right_outsideCutPath
10
181.625
20
62
11
192
21
62
0
LINE
8
right_outsideCutPath
10
192
20
62
11
192
21
70.875
0
LINE
8
right_outsideCutPath
10
192
20
70.875
11
195
21
70.875
0
LINE
8
right_outsideCutPath
10
195
20
70.875
11
195
21
83.625
0
LINE
8
right_outsideCutPath
10
195
20
83.625
11
192
21
83.625
0
LINE
8
right_outsideCutPath
10
192
20
83.625
11
192
21
96.375
0
LINE
8
right_outsideCutPath
10
192
20
96.375
11
195
21
96.375
0
LINE
8
right_outsideCutPath
10
195
20
96.375
11
195
21
109.125
0
LINE
8
right_outsideCutPath
10
195
20
109.125
11
192
21
109.125
0
LINE
8
right_outsideCutPath
10
192
20
109.125
11
192
21
118
0
LINE
8
right_outsideCutPath
10
192
20
118
11
181.625
21
118
0
LINE
8
right_outsideCutPath
10
181.625
20
118
11
181.625
21
115
0
LINE
8
right_outsideCutPath
10
181.625
20
115
11
168.875
21
115
0
LINE
8
right_outsideCutPath
10
168.875
20
115
11
168.875
21
118
0
LINE
8
right_outsideCutPath
10
168.875
20
118
11
156.125
21
118
0
LINE
8
right_outsideCutPath
10
156.125
20
118
11
156.125
21
115
0
LINE
8
right_outsideCutPath
10
156.125
20
115
11
143.375
21
115
0
LINE
8
right_outsideCutPath
10
143.375
20
115
11
143.375
21
118
0
LINE
8
right_outsideCutPath
10
143.375
20
118
11
130.625
21
118
0
LINE
8
right_outsideCutPath
10
130.625
20
118
11
130.625
21
115
0
LINE
8
right_outsideCutPath
10
130.625
20
115
11
117.875
21
115
0
LINE
8
right_outsideCutPath
10
117.875
20
115
11
117.875
21
118
0
LINE
8
right_outsideCutPath
10
117.875
20
118
11
105.125
21
118
0
LINE
8
right_outsideCutPath
10
105.125
20
118
11
105.125
21
115
0
LINE
8
right_outsideCutPath
10
105.125
20
115
11
92.375
21
115
0
LINE
8
right_outsideCutPath
10
92.375
20
115
11
92.375
21
118
0
LINE
8
right_outsideCutPath
10
92.375
20
118
11
82
21
118
0
LINE
8
right_labelLayer
10
128.8652343
20
93.128158
11
128.7394531
21
92.2859705
0
LINE
8
right_labelLayer
10
126.3222656
20
90.306283
11
126.3222656
21
87.090658
0
LINE
8
right_labelLayer
10
126.3222656
20
87.090658
11
125.4144531
21
87.090658
0
LINE
8
right_labelLayer
10
125.4144531
20
87.090658
11
125.4144531
21
93.084408
0
LINE
8
right_labelLayer
10
125.4144531
20
93.084408
11
126.1636718
21
93.084408
0
LINE
8
right_labelLayer
10
126.1636718
20
93.084408
11
126.2675781
21
91.9742517
0
LINE
8
right_labelLayer
10
126.2675781
20
91.9742517
11
126.3113281
21
91.9742517
0
ARC
8
right_labelLayer
10
128.158146
20
89.0261747
40
4.1676187
50
84.9922822
51
90.1281006
0
ARC
8
right_labelLayer
10
128.2582292
20
90.147502
40
3.0418359
50
78.4892237
51
85.0265756
0
ARC
8
right_labelLayer
10
127.8697642
20
88.3806789
40
4.0009575
50
77.4453812
51
81.6360517
0
ARC
8
right_labelLayer
10
128.0440737
20
89.5821864
40
2.786875
50
81.5884309
51
87.1916016
0
ARC
8
right_labelLayer
10
128.0819434
20
90.2387937
40
2.1292083
50
87.3437187
51
89.9661024
0
ARC
8
right_labelLayer
10
128.0731425
20
90.7950635
40
1.5729704
50
89.6335396
51
137.0880791
0
ARC
8
right_labelLayer
10
128.4591577
20
90.3609767
40
2.151952
50
135.6209239
51
138.8377844
0
ARC
8
right_labelLayer
10
128.4026117
20
90.4161701
40
2.073058
50
138.9575726
51
174.5422266
0
ARC
8
right_labelLayer
10
129.0777811
20
90.3105267
40
2.7555188
50
173.690765
51
180.0882394
0
ARC
8
right_labelLayer
10
128.9823107
20
90.4694323
40
3.0657185
50
139.4139518
51
150.6032871
0
ARC
8
right_labelLayer
10
128.4326206
20
90.9404583
40
2.3418228
50
124.2321496
51
139.416121
0
ARC
8
right_labelLayer
10
128.1387099
20
91.3841153
40
1.8096959
50
89.6796521
51
124.4405711
0
LINE
8
right_labelLayer
10
130.8941406
20
93.084408
11
130.8941406
21
87.090658
0
LINE
8
right_labelLayer
10
130.8941406
20
87.090658
11
129.9863281
21
87.090658
0
LINE
8
right_labelLayer
10
129.9863281
20
87.090658
11
129.9863281
21
93.084408
0
LINE
8
right_labelLayer
10
129.9863281
20
93.084408
11
130.8941406
21
93.084408
0
ARC
8
right_labelLayer
10
130.9157024
20
94.7148516
40
1.0059561
50
170.8451723
51
180.3545481
0
ARC
8
right_labelLayer
10
130.5391195
20
94.7778179
40
0.6241559
50
155.9678755
51
171.0516047
0
ARC
8
right_labelLayer
10
130.3567178
20
94.8587395
40
0.4246102
50
133.7880707
51
155.9171696
0
ARC
8
right_labelLayer
10
130.4240597
20
94.7842892
40
0.5249642
50
92.6445927
51
133.4710495
0
ARC
8
right_labelLayer
10
130.4453342
20
94.6171961
40
0.6929934
50
89.969502
51
93.7643117
0
ARC
8
right_labelLayer
10
130.4539919
20
94.7753821
40
0.5348714
50
46.3708263
51
90.8879434
0
ARC
8
right_labelLayer
10
130.507225
20
94.8303379
40
0.4583634
50
17.7251625
51
46.4473628
0
ARC
8
right_labelLayer
10
130.2589819
20
94.7448537
40
0.7208714
50
4.942804
51
18.1899884
0
ARC
8
right_labelLayer
10
129.9431889
20
94.7107151
40
1.0384538
50
359.8847763
51
5.3181283
0
ARC
8
right_labelLayer
10
130.0423826
20
94.7022495
40
0.9392797
50
349.8345406
51
0.3890101
0
ARC
8
right_labelLayer
10
130.3843443
20
94.6384578
40
0.5914323
50
332.6321851
51
350.0706294
0
ARC
8
right_labelLayer
10
130.5174352
20
94.5727377
40
0.4430351
50
313.6153622
51
332.2677836
0
ARC
8
right_labelLayer
10
130.4532934
20
94.631141
40
0.5295999
50
269.1788004
51
314.2807706
0
ARC
8
right_labelLayer
10
130.4396862
20
94.678223
40
0.5766589
50
250.5000397
51
270.597839
0
ARC
8
right_labelLayer
10
130.4222339
20
94.6129641
40
0.5093453
50
225.1300311
51
249.9001775
0
ARC
8
right_labelLayer
10
130.3949104
20
94.5827824
40
0.4686826
50
197.7933367
51
224.8942297
0
ARC
8
right_labelLayer
10
130.6506354
20
94.6704182
40
0.7389741
50
184.9925148
51
198.2041305
0
ARC
8
right_labelLayer
10
130.9815481
20
94.7063901
40
1.0717848
50
179.8804345
51
185.3687329
0
LINE
8
right_labelLayer
10
135.6519531
20
93.084408
11
137.7246093
21
93.084408
0
LINE
8
right_labelLayer
10
137.7246093
20
93.084408
11
137.7246093
21
92.5101892
0
LINE
8
right_labelLayer
10
137.7246093
20
92.5101892
11
136.6144531
21
92.3789392
0
LINE
8
right_labelLayer
10
134.5691406
20
88.0422205
11
135.6300781
21
88.0422205
0
LINE
8
right_labelLayer
10
135.3402343
20
87.2273767
11
134.2519531
21
87.2273767
0
ARC
8
right_labelLayer
10
135.4575758
20
91.4634021
40
1.4753214
50
29.4584383
51
38.3576173
0
ARC
8
right_labelLayer
10
134.8547025
20
91.1192466
40
2.1695062
50
23.1846114
51
29.5422154
0
ARC
8
right_labelLayer
10
134.2795514
20
90.8641833
40
2.7986374
50
21.2507182
51
23.3490189
0
ARC
8
right_labelLayer
10
135.2572408
20
91.2530199
40
1.7465122
50
6.8505174
51
20.9871659
0
ARC
8
right_labelLayer
10
134.7653439
20
91.1863282
40
2.2428649
50
359.8711169
51
7.0431941
0
ARC
8
right_labelLayer
10
134.9271985
20
91.1596433
40
2.0811171
50
342.5649878
51
0.5957793
0
ARC
8
right_labelLayer
10
135.3110168
20
91.0536579
40
1.6832338
50
310.6098018
51
342.0923482
0
ARC
8
right_labelLayer
10
135.0957879
20
91.3040084
40
2.0133833
50
284.9315593
51
310.622296
0
ARC
8
right_labelLayer
10
134.8264475
20
92.2478092
40
2.9947642
50
272.5334992
51
285.2579814
0
ARC
8
right_labelLayer
10
134.7571942
20
93.1938281
40
3.9430145
50
269.9692503
51
272.9311883
0
ARC
8
right_labelLayer
10
134.7486039
20
92.1683684
40
2.9175613
50
263.4836671
51
270.1271413
0
ARC
8
right_labelLayer
10
134.7010812
20
91.7169898
40
2.463709
50
259.4963852
51
263.3904189
0
ARC
8
right_labelLayer
10
134.995205
20
87.8602878
40
1.6154171
50
117.3934988
51
128.4095176
0
ARC
8
right_labelLayer
10
134.5793304
20
88.3762104
40
0.9527863
50
128.0881631
51
147.1400797
0
ARC
8
right_labelLayer
10
134.355288
20
88.5265603
40
0.6830293
50
147.5369652
51
180.2591852
0
ARC
8
right_labelLayer
10
134.1427335
20
88.5176552
40
0.4705039
50
179.2918213
51
198.3581807
0
ARC
8
right_labelLayer
10
134.054643
20
88.4945029
40
0.3796486
50
199.2291082
51
239.5691901
0
ARC
8
right_labelLayer
10
134.1276342
20
88.5953308
40
0.5036963
50
238.2191964
51
239.8453138
0
ARC
8
right_labelLayer
10
134.1859565
20
88.7152975
40
0.6368014
50
240.7301568
51
254.5027211
0
ARC
8
right_labelLayer
10
134.3597572
20
89.3142008
40
1.2603908
50
254.1636253
51
262.2123872
0
ARC
8
right_labelLayer
10
134.4974291
20
90.275765
40
2.2317497
50
262.0555546
51
267.2083725
0
ARC
8
right_labelLayer
10
134.5639378
20
91.4956904
40
3.4534737
50
267.0919918
51
270.0863187
0
ARC
8
right_labelLayer
10
135.6499225
20
84.3262175
40
3.716056
50
81.5744146
51
90.3059713
0
ARC
8
right_labelLayer
10
135.8537556
20
85.6555759
40
2.3711887
50
68.367161
51
81.7399129
0
ARC
8
right_labelLayer
10
136.1199858
20
86.335963
40
1.6405801
50
52.1879614
51
68.2501191
0
ARC
8
right_labelLayer
10
136.3062696
20
86.586968
40
1.3280909
50
8.6201447
51
51.8982508
0
ARC
8
right_labelLayer
10
135.653368
20
86.4488217
40
1.9946988
50
359.7430634
51
9.7326072
0
ARC
8
right_labelLayer
10
135.6826159
20
86.4151713
40
1.9655862
50
340.5268819
51
0.7201687
0
ARC
8
right_labelLayer
10
135.9714076
20
86.3432659
40
1.6695861
50
302.9903578
51
339.5494554
0
ARC
8
right_labelLayer
10
135.668361
20
86.7283403
40
2.1580394
50
303.1868436
51
304.1722269
0
ARC
8
right_labelLayer
10
135.3857152
20
87.2176746
40
2.7224505
50
286.254245
51
302.5280152
0
ARC
8
right_labelLayer
10
134.8715577
20
88.9136094
40
4.4945497
50
276.4939671
51
286.4953555
0
ARC
8
right_labelLayer
10
134.5507496
20
91.5953945
40
7.1954275
50
269.7545237
51
276.6169415
0
ARC
8
right_labelLayer
10
134.4959646
20
89.4862382
40
5.0862616
50
262.5634977
51
270.2698749
0
ARC
8
right_labelLayer
10
134.2468475
20
87.6397805
40
3.2231021
50
251.2102021
51
262.7064157
0
ARC
8
right_labelLayer
10
133.8877908
20
86.5858953
40
2.1097308
50
235.9668054
51
251.2229091
0
ARC
8
right_labelLayer
10
133.5072204
20
86.0429719
40
1.4468537
50
208.903601
51
236.4231735
0
ARC
8
right_labelLayer
10
133.5421617
20
86.0283287
40
1.470665
50
182.2080028
51
207.7461389
0
ARC
8
right_labelLayer
10
133.9868329
20
86.0727455
40
1.916911
50
179.9783297
51
183.0225761
0
ARC
8
right_labelLayer
10
133.4577973
20
86.0978236
40
1.3880891
50
138.3916124
51
181.0052669
0
ARC
8
right_labelLayer
10
133.6043812
20
85.9660885
40
1.5851672
50
113.8121338
51
138.3496292
0
ARC
8
right_labelLayer
10
133.8824325
20
85.365661
40
2.2467749
50
102.2870632
51
114.1172834
0
ARC
8
right_labelLayer
10
133.7950644
20
88.4183067
40
0.9421914
50
216.586144
51
245.4968478
0
ARC
8
right_labelLayer
10
133.9296013
20
88.5324906
40
1.1183356
50
215.4649598
51
217.1751907
0
ARC
8
right_labelLayer
10
133.7052822
20
88.3704666
40
0.8416291
50
182.1767442
51
215.3415545
0
ARC
8
right_labelLayer
10
133.9051988
20
88.3919199
40
1.0423082
50
179.983476
51
182.9378036
0
ARC
8
right_labelLayer
10
133.9009895
20
88.400996
40
1.038136
50
161.7226061
51
180.4843343
0
ARC
8
right_labelLayer
10
133.7868517
20
88.4321392
40
0.9200105
50
144.4963865
51
161.3350125
0
ARC
8
right_labelLayer
10
134.0911205
20
88.2053695
40
1.2994308
50
132.7259669
51
144.1479178
0
ARC
8
right_labelLayer
10
134.578758
20
87.6846309
40
2.0128335
50
125.2212809
51
132.86558
0
ARC
8
right_labelLayer
10
135.0689843
20
87.003896
40
2.8516886
50
121.2351994
51
125.3795396
0
ARC
8
right_labelLayer
10
134.1999098
20
90.9122774
40
1.5914684
50
215.1640784
51
247.4747884
0
ARC
8
right_labelLayer
10
134.4968913
20
91.1519678
40
1.9724523
50
212.4713604
51
215.8877089
0
ARC
8
right_labelLayer
10
134.4188631
20
91.0961388
40
1.8766568
50
183.016078
51
212.3123213
0
ARC
8
right_labelLayer
10
134.8306593
20
91.142037
40
2.290425
50
179.9758666
51
183.6206474
0
ARC
8
right_labelLayer
10
135.1629748
20
91.1651536
40
2.622834
50
166.8196072
51
180.483913
0
ARC
8
right_labelLayer
10
134.2928683
20
91.3848357
40
1.7256268
50
132.3287585
51
167.3341038
0
ARC
8
right_labelLayer
10
134.4092774
20
91.2175077
40
1.927903
50
106.2189026
51
131.5377426
0
ARC
8
right_labelLayer
10
134.7038077
20
90.2638449
40
2.9259225
50
93.6329724
51
106.5408917
0
ARC
8
right_labelLayer
10
134.7999574
20
89.1843622
40
4.0094229
50
89.9379888
51
94.0267474
0
ARC
8
right_labelLayer
10
134.8155309
20
89.7141246
40
3.4796765
50
82.5852019
51
90.184978
0
ARC
8
right_labelLayer
10
134.9218539
20
90.5367589
40
2.6502001
50
74.0088839
51
82.5694549
0
ARC
8
right_labelLayer
10
133.8565856
20
86.0720081
40
0.9117481
50
179.220747
51
200.935518
0
ARC
8
right_labelLayer
10
133.7481596
20
86.0469025
40
0.8016552
50
202.0286928
51
236.1457771
0
ARC
8
right_labelLayer
10
133.9116004
20
86.2544315
40
1.0652393
50
235.0635214
51
238.5040156
0
ARC
8
right_labelLayer
10
134.1015409
20
86.5937024
40
1.4538403
50
239.1066212
51
254.4862612
0
ARC
8
right_labelLayer
10
134.3548306
20
87.4670462
40
2.3631354
50
254.2324405
51
263.4936884
0
ARC
8
right_labelLayer
10
134.5139256
20
88.814554
40
3.7199957
50
263.4108152
51
270.145787
0
ARC
8
right_labelLayer
10
134.5307309
20
89.737436
40
4.6428716
50
269.9094209
51
270.0015846
0
ARC
8
right_labelLayer
10
134.5526159
20
91.1972673
40
6.1027418
50
269.7957379
51
275.3991419
0
ARC
8
right_labelLayer
10
134.7810279
20
88.8524501
40
3.7468419
50
275.2956644
51
283.3516299
0
ARC
8
right_labelLayer
10
135.1531526
20
87.3197555
40
2.1696559
50
283.1370237
51
295.8573316
0
ARC
8
right_labelLayer
10
135.4288698
20
86.7178271
40
1.5078107
50
296.4047931
51
301.8008113
0
ARC
8
right_labelLayer
10
135.5369876
20
86.568795
40
1.3242432
50
301.2230763
51
318.6237972
0
ARC
8
right_labelLayer
10
135.780819
20
86.3435577
40
0.9924246
50
319.0765606
51
1.1406845
0
ARC
8
right_labelLayer
10
135.5448379
20
86.3730443
40
1.2282475
50
359.5461039
51
10.9904584
0
ARC
8
right_labelLayer
10
136.0192668
20
86.4695415
40
0.7441356
50
10.6609458
51
30.9361823
0
ARC
8
right_labelLayer
10
136.1696949
20
86.5530241
40
0.5722191
50
31.5095424
51
58.0778141
0
ARC
8
right_labelLayer
10
136.0287101
20
86.3005874
40
0.8611381
50
58.9971637
51
73.8586247
0
ARC
8
right_labelLayer
10
135.7437507
20
85.3677184
40
1.8365094
50
73.4099736
51
81.590772
0
ARC
8
right_labelLayer
10
135.5023038
20
83.8052626
40
3.4174925
50
81.4171855
51
86.5756948
0
ARC
8
right_labelLayer
10
135.3543434
20
81.451178
40
5.776216
50
86.5053947
51
90.1399512
0
ARC
8
right_labelLayer
10
134.2389693
20
85.1406273
40
2.0867898
50
89.6435103
51
100.0209398
0
ARC
8
right_labelLayer
10
134.1078096
20
85.8541169
40
1.3613715
50
99.8102592
51
116.8229679
0
ARC
8
right_labelLayer
10
133.9800491
20
86.1235458
40
1.0633085
50
117.2304304
51
130.5022949
0
ARC
8
right_labelLayer
10
133.9144489
20
86.2078578
40
0.9566058
50
130.7944462
51
169.0413694
0
ARC
8
right_labelLayer
10
134.3975146
20
86.0940945
40
1.4526249
50
168.2580936
51
180.3820684
0
ARC
8
right_labelLayer
10
135.2090812
20
91.1513231
40
1.7720237
50
179.5617596
51
191.6529272
0
ARC
8
right_labelLayer
10
134.5929698
20
91.0182091
40
1.1417396
50
191.3555115
51
213.3660638
0
ARC
8
right_labelLayer
10
134.4450052
20
90.9327699
40
0.971225
50
213.9573042
51
227.7971806
0
ARC
8
right_labelLayer
10
134.573739
20
91.0889024
40
1.1733997
50
228.2620723
51
254.734156
0
ARC
8
right_labelLayer
10
134.7381957
20
91.6526551
40
1.7605911
50
254.4015972
51
267.434927
0
ARC
8
right_labelLayer
10
134.7811079
20
92.2281442
40
2.3374867
50
267.0154371
51
270.0322074
0
ARC
8
right_labelLayer
10
134.8091486
20
91.8681934
40
1.977716
50
269.2256838
51
284.3773145
0
ARC
8
right_labelLayer
10
135.0787081
20
90.9290446
40
1.0014358
50
282.7796642
51
346.4828443
0
ARC
8
right_labelLayer
10
134.2727951
20
91.1573245
40
1.838689
50
345.4362284
51
0.7465967
0
ARC
8
right_labelLayer
10
134.1595075
20
91.2091965
40
1.9520202
50
359.1806523
51
15.0431588
0
ARC
8
right_labelLayer
10
135.0440046
20
91.4672129
40
1.0310535
50
13.9535803
51
77.6673731
0
ARC
8
right_labelLayer
10
134.7902349
20
90.5578149
40
1.974398
50
76.1094681
51
90.7028461
0
ARC
8
right_labelLayer
10
134.7522497
20
90.6272715
40
1.9048425
50
89.5859322
51
101.3334331
0
ARC
8
right_labelLayer
10
134.6161241
20
91.2765298
40
1.2415074
50
101.0620661
51
121.97389
0
ARC
8
right_labelLayer
10
134.5204481
20
91.4486419
40
1.0448906
50
122.5210398
51
134.9967613
0
ARC
8
right_labelLayer
10
134.5598463
20
91.4250323
40
1.0895005
50
135.5840173
51
163.0015715
0
ARC
8
right_labelLayer
10
135.1351875
20
91.2364574
40
1.6948793
50
162.591234
51
175.7343101
0
ARC
8
right_labelLayer
10
135.8252369
20
91.1684801
40
2.3881302
50
175.3393529
51
180.0864525
0
LINE
8
right_labelLayer
10
143.9644531
20
87.090658
11
143.0566406
21
87.090658
0
LINE
8
right_labelLayer
10
143.0566406
20
87.090658
11
143.0566406
21
90.9680017
0
LINE
8
right_labelLayer
10
139.8628906
20
90.2242517
11
139.8628906
21
87.090658
0
LINE
8
right_labelLayer
10
139.8628906
20
87.090658
11
138.9550781
21
87.090658
0
LINE
8
right_labelLayer
10
138.9550781
20
87.090658
11
138.9550781
21
95.600033
0
LINE
8
right_labelLayer
10
138.9550781
20
95.600033
11
139.8628906
21
95.600033
0
LINE
8
right_labelLayer
10
139.8628906
20
95.600033
11
139.8628906
21
93.0242517
0
LINE
8
right_labelLayer
10
139.8191406
20
92.253158
11
139.8738281
21
92.253158
0
LINE
8
right_labelLayer
10
143.9644531
20
91.0008142
11
143.9644531
21
87.090658
0
ARC
8
right_labelLayer
10
140.4905273
20
90.9827173
40
2.5661555
50
359.6714366
51
8.6877561
0
ARC
8
right_labelLayer
10
141.4416061
20
91.1335523
40
1.603215
50
8.4931872
51
22.6579457
0
ARC
8
right_labelLayer
10
141.9248354
20
91.3343658
40
1.0799221
50
22.7024541
51
42.3419638
0
ARC
8
right_labelLayer
10
141.9791537
20
91.3588016
40
1.0234823
50
43.3790662
51
71.5386528
0
ARC
8
right_labelLayer
10
141.7760373
20
90.7912447
40
1.6262027
50
71.0827988
51
84.3691233
0
ARC
8
right_labelLayer
10
141.6848608
20
90.0160248
40
2.4066727
50
84.0198114
51
90.1510616
0
ARC
8
right_labelLayer
10
141.6589518
20
89.675575
40
2.7471839
50
89.5919707
51
100.3594944
0
ARC
8
right_labelLayer
10
141.4644249
20
90.697845
40
1.7066142
50
100.1067763
51
118.0847672
0
ARC
8
right_labelLayer
10
141.2665793
20
91.0860652
40
1.2709915
50
118.4551234
51
139.6706033
0
ARC
8
right_labelLayer
10
141.4652048
20
90.9503022
40
1.5104819
50
140.6208291
51
160.5049106
0
ARC
8
right_labelLayer
10
142.5121974
20
90.5627101
40
2.6268487
50
160.1567368
51
171.5312505
0
ARC
8
right_labelLayer
10
144.2062656
20
90.29431
40
4.3420021
50
171.3202742
51
178.3406367
0
ARC
8
right_labelLayer
10
145.721521
20
90.2266055
40
5.8586309
50
178.107894
51
180.0230188
0
ARC
8
right_labelLayer
10
131.6965659
20
93.0145172
40
8.1663305
50
357.8673889
51
0.0682982
0
ARC
8
right_labelLayer
10
134.4704888
20
92.9086869
40
5.3903913
50
354.9829294
51
357.8943066
0
ARC
8
right_labelLayer
10
136.3029422
20
92.7491254
40
3.5510048
50
351.9712715
51
354.9619128
0
ARC
8
right_labelLayer
10
141.4115092
20
91.2912844
40
1.8137431
50
119.8315921
51
147.9725725
0
ARC
8
right_labelLayer
10
141.6311297
20
90.9539089
40
2.2157805
50
116.6658156
51
120.418339
0
ARC
8
right_labelLayer
10
141.6721416
20
90.8461809
40
2.3304853
50
96.6652471
51
116.3782394
0
ARC
8
right_labelLayer
10
141.7604994
20
90.2365659
40
2.9462847
50
89.8927283
51
96.9959156
0
ARC
8
right_labelLayer
10
141.7887546
20
89.4998029
40
3.6831128
50
80.6862914
51
90.3537383
0
ARC
8
right_labelLayer
10
142.0180905
20
90.8487116
40
2.3148848
50
65.6022793
51
80.8844307
0
ARC
8
right_labelLayer
10
142.2934783
20
91.4689471
40
1.6362911
50
46.7400722
51
65.4130584
0
ARC
8
right_labelLayer
10
142.3121946
20
91.5280442
40
1.5806556
50
19.2204341
51
45.7660537
0
ARC
8
right_labelLayer
10
141.4007878
20
91.190177
40
2.5525575
50
6.4733611
51
19.6468293
0
ARC
8
right_labelLayer
10
140.0388974
20
91.0148939
40
3.9255808
50
359.7944999
51
6.7743839
0
LINE
8
right_labelLayer
10
148.5855468
20
87.8398767
11
148.5855468
21
87.1453455
0
LINE
8
right_labelLayer
10
145.8949218
20
88.8133142
11
145.8949218
21
92.3789392
0
LINE
8
right_labelLayer
10
145.8949218
20
92.3789392
11
145.0363281
21
92.3789392
0
LINE
8
right_labelLayer
10
145.0363281
20
92.3789392
11
145.0363281
21
92.8164392
0
LINE
8
right_labelLayer
10
145.0363281
20
92.8164392
11
145.8949218
21
93.193783
0
LINE
8
right_labelLayer
10
145.8949218
20
93.193783
11
146.2777343
21
94.4734705
0
LINE
8
right_labelLayer
10
146.2777343
20
94.4734705
11
146.8027343
21
94.4734705
0
LINE
8
right_labelLayer
10
146.8027343
20
94.4734705
11
146.8027343
21
93.084408
0
LINE
8
right_labelLayer
10
146.8027343
20
93.084408
11
148.5417968
21
93.084408
0
LINE
8
right_labelLayer
10
148.5417968
20
93.084408
11
148.5417968
21
92.3789392
0
LINE
8
right_labelLayer
10
148.5417968
20
92.3789392
11
146.8027343
21
92.3789392
0
LINE
8
right_labelLayer
10
146.8027343
20
92.3789392
11
146.8027343
21
88.8515955
0
ARC
8
right_labelLayer
10
147.77146
20
90.7118741
40
2.9813789
50
269.8803555
51
278.3028375
0
ARC
8
right_labelLayer
10
147.7998012
20
90.4801801
40
2.7480261
50
278.4157119
51
279.0082513
0
ARC
8
right_labelLayer
10
147.4652007
20
92.6177185
40
4.9115922
50
278.9590784
51
280.5103042
0
ARC
8
right_labelLayer
10
147.7840082
20
90.9069982
40
3.1714201
50
280.484975
51
282.6266422
0
ARC
8
right_labelLayer
10
148.063718
20
89.6642765
40
1.89761
50
282.5876969
51
285.5794944
0
ARC
8
right_labelLayer
10
148.2030147
20
89.1518425
40
1.3665962
50
285.7240657
51
286.255192
0
ARC
8
right_labelLayer
10
148.2038743
20
87.9526047
40
0.8929397
50
287.9888912
51
295.3048036
0
ARC
8
right_labelLayer
10
147.9885139
20
88.6041646
40
1.5791634
50
283.3069703
51
288.1198675
0
ARC
8
right_labelLayer
10
147.7609743
20
89.5533177
40
2.5552066
50
280.0071002
51
283.3734687
0
ARC
8
right_labelLayer
10
147.608759
20
90.379392
40
3.3951695
50
279.1862977
51
280.1143009
0
ARC
8
right_labelLayer
10
147.5153152
20
90.9109268
40
3.9348119
50
275.5260848
51
279.2938825
0
ARC
8
right_labelLayer
10
147.620627
20
89.8109707
40
2.8298266
50
270.8932566
51
275.5484021
0
ARC
8
right_labelLayer
10
147.6338717
20
89.3058293
40
2.3245464
50
270.002777
51
270.7609419
0
ARC
8
right_labelLayer
10
147.5973513
20
89.3520729
40
2.3710729
50
253.7847933
51
270.885255
0
ARC
8
right_labelLayer
10
147.3164426
20
88.3940667
40
1.3727358
50
190.3817792
51
253.8772294
0
ARC
8
right_labelLayer
10
148.7482253
20
88.7811968
40
2.8534843
50
179.355092
51
192.8477869
0
ARC
8
right_labelLayer
10
148.630721
20
88.8401614
40
1.8280224
50
179.6416195
51
189.750614
0
ARC
8
right_labelLayer
10
147.9853975
20
88.7250592
40
1.1725347
50
189.5479495
51
205.7874058
0
ARC
8
right_labelLayer
10
147.7201962
20
88.602765
40
0.8805574
50
206.1293942
51
221.4083743
0
ARC
8
right_labelLayer
10
147.6904603
20
88.5802025
40
0.8433361
50
221.59492
51
262.3505302
0
ARC
8
right_labelLayer
10
147.7611828
20
88.943872
40
1.2133771
50
261.3265424
51
270.191315
0
LINE
8
bottom_outsideCutPath
10
201
20
235
11
201
21
224.625
0
LINE
8
bottom_outsideCutPath
10
201
20
224.625
11
198
21
224.625
0
LINE
8
bottom_outsideCutPath
10
198
20
224.625
11
198
21
211.875
0
LINE
8
bottom_outsideCutPath
10
198
20
211.875
11
201
21
211.875
0
LINE
8
bottom_outsideCutPath
10
201
20
211.875
11
201
21
199.125
0
LINE
8
bottom_outsideCutPath
10
201
20
199.125
11
198
21
199.125
0
LINE
8
bottom_outsideCutPath
10
198
20
199.125
11
198
21
186.375
0
LINE
8
bottom_outsideCutPath
10
198
20
186.375
11
201
21
186.375
0
LINE
8
bottom_outsideCutPath
10
201
20
186.375
11
201
21
173.625
0
LINE
8
bottom_outsideCutPath
10
201
20
173.625
11
198
21
173.625
0
LINE
8
bottom_outsideCutPath
10
198
20
173.625
11
198
21
160.875
0
LINE
8
bottom_outsideCutPath
10
198
20
160.875
11
201
21
160.875
0
LINE
8
bottom_outsideCutPath
10
201
20
160.875
11
201
21
148.125
0
LINE
8
bottom_outsideCutPath
10
201
20
148.125
11
198
21
148.125
0
LINE
8
bottom_outsideCutPath
10
198
20
148.125
11
198
21
135.375
0
LINE
8
bottom_outsideCutPath
10
198
20
135.375
11
201
21
135.375
0
LINE
8
bottom_outsideCutPath
10
201
20
135.375
11
201
21
125
0
LINE
8
bottom_outsideCutPath
10
201
20
125
11
216.875
21
125
0
LINE
8
bottom_outsideCutPath
10
216.875
20
125
11
216.875
21
122
0
LINE
8
bottom_outsideCutPath
10
216.875
20
122
11
229.625
21
122
0
LINE
8
bottom_outsideCutPath
10
229.625
20
122
11
229.625
21
125
0
LINE
8
bottom_outsideCutPath
10
229.625
20
125
11
242.375
21
125
0
LINE
8
bottom_outsideCutPath
10
242.375
20
125
11
242.375
21
122
0
LINE
8
bottom_outsideCutPath
10
242.375
20
122
11
255.125
21
122
0
LINE
8
bottom_outsideCutPath
10
255.125
20
122
11
255.125
21
125
0
LINE
8
bottom_outsideCutPath
10
255.125
20
125
11
267.875
21
125
0
LINE
8
bottom_outsideCutPath
10
267.875
20
125
11
271
21
125
0
LINE
8
bottom_outsideCutPath
10
271
20
125
11
271
21
135.375
0
LINE
8
bottom_outsideCutPath
10
271
20
135.375
11
274
21
135.375
0
LINE
8
bottom_outsideCutPath
10
274
20
135.375
11
274
21
148.125
0
LINE
8
bottom_outsideCutPath
10
274
20
148.125
11
271
21
148.125
0
LINE
8
bottom_outsideCutPath
10
271
20
148.125
11
271
21
160.875
0
LINE
8
bottom_outsideCutPath
10
271
20
160.875
11
274
21
160.875
0
LINE
8
bottom_outsideCutPath
10
274
20
160.875
11
274
21
173.625
0
LINE
8
bottom_outsideCutPath
10
274
20
173.625
11
271
21
173.625
0
LINE
8
bottom_outsideCutPath
10
271
20
173.625
11
271
21
186.375
0
LINE
8
bottom_outsideCutPath
10
271
20
186.375
11
274
21
186.375
0
LINE
8
bottom_outsideCutPath
10
274
20
186.375
11
274
21
199.125
0
LINE
8
bottom_outsideCutPath
10
274
20
199.125
11
271
21
199.125
0
LINE
8
bottom_outsideCutPath
10
271
20
199.125
11
271
21
211.875
0
LINE
8
bottom_outsideCutPath
10
271
20
211.875
11
274
21
211.875
0
LINE
8
bottom_outsideCutPath
10
274
20
211.875
11
274
21
224.625
0
LINE
8
bottom_outsideCutPath
10
274
20
224.625
11
271
21
224.625
0
LINE
8
bottom_outsideCutPath
10
271
20
224.625
11
271
21
235
0
LINE
8
bottom_outsideCutPath
10
271
20
235
11
255.125
21
235
0
LINE
8
bottom_outsideCutPath
10
255.125
20
235
11
255.125
21
238
0
LINE
8
bottom_outsideCutPath
10
255.125
20
238
11
242.375
21
238
0
LINE
8
bottom_outsideCutPath
10
242.375
20
238
11
242.375
21
235
0
LINE
8
bottom_outsideCutPath
10
242.375
20
235
11
229.625
21
235
0
LINE
8
bottom_outsideCutPath
10
229.625
20
235
11
229.625
21
238
0
LINE
8
bottom_outsideCutPath
10
229.625
20
238
11
216.875
21
238
0
LINE
8
bottom_outsideCutPath
10
216.875
20
238
11
216.875
21
235
0
LINE
8
bottom_outsideCutPath
10
216.875
20
235
11
204.125
21
235
0
LINE
8
bottom_outsideCutPath
10
204.125
20
235
11
201
21
235
0
LINE
8
bottom_labelLayer
10
212.2276984
20
175.3466764
11
212.1386359
21
175.3466764
0
LINE
8
bottom_labelLayer
10
212.1386359
20
175.3466764
11
211.8788703
21
174.300192
0
LINE
8
bottom_labelLayer
10
211.8788703
20
174.300192
11
210.9956672
21
174.300192
0
LINE
8
bottom_labelLayer
10
210.9956672
20
174.300192
11
210.9956672
21
185.8486295
0
LINE
8
bottom_labelLayer
10
210.9956672
20
185.8486295
11
212.2276984
21
185.8486295
0
LINE
8
bottom_labelLayer
10
212.2276984
20
185.8486295
11
212.2276984
21
183.0431608
0
LINE
8
bottom_labelLayer
10
212.1683234
20
181.3509733
11
212.2276984
21
181.3509733
0
ARC
8
bottom_labelLayer
10
214.8177834
20
178.8028284
40
3.7655138
50
74.2393371
51
90.5623897
0
ARC
8
bottom_labelLayer
10
215.0667718
20
179.7162532
40
2.8188119
50
38.5631225
51
74.0670422
0
ARC
8
bottom_labelLayer
10
214.4260135
20
179.2180254
40
3.6304317
50
16.4709246
51
38.4075362
0
ARC
8
bottom_labelLayer
10
212.5800747
20
178.6391932
40
5.5648259
50
5.1338519
51
16.7973366
0
ARC
8
bottom_labelLayer
10
210.2497566
20
178.3916497
40
7.9080379
50
359.8779293
51
5.4093686
0
ARC
8
bottom_labelLayer
10
210.9342116
20
178.3321846
40
7.2236906
50
350.6562786
51
0.3380236
0
ARC
8
bottom_labelLayer
10
213.4525127
20
177.9038488
40
4.6692793
50
335.830591
51
350.8254849
0
ARC
8
bottom_labelLayer
10
214.560261
20
177.4257289
40
3.4629215
50
321.3161562
51
335.5436139
0
ARC
8
bottom_labelLayer
10
214.9837651
20
177.0806382
40
2.9166456
50
274.0640033
51
321.4081016
0
ARC
8
bottom_labelLayer
10
214.78647
20
178.3303573
40
4.1786067
50
269.922576
51
275.5481918
0
ARC
8
bottom_labelLayer
10
214.7600478
20
177.8887158
40
3.737019
50
255.7755315
51
270.318533
0
ARC
8
bottom_labelLayer
10
214.6533985
20
177.4148943
40
3.2515449
50
245.9801477
51
255.5456005
0
ARC
8
bottom_labelLayer
10
214.4468431
20
176.9345503
40
2.7287261
50
215.5850159
51
245.8361713
0
ARC
8
bottom_labelLayer
10
186.5406035
20
183.0214451
40
25.6871042
50
358.1123366
51
0.0484374
0
ARC
8
bottom_labelLayer
10
193.6898606
20
182.7814313
40
18.5338211
50
355.7238686
51
358.1258991
0
ARC
8
bottom_labelLayer
10
196.8248558
20
182.5661679
40
15.3915139
50
355.4716565
51
355.6527998
0
ARC
8
bottom_labelLayer
10
214.5253825
20
179.7487368
40
2.801163
50
95.1835052
51
145.1109072
0
ARC
8
bottom_labelLayer
10
214.7715961
20
178.3603187
40
4.2078523
50
89.8743574
51
96.8145455
0
ARC
8
bottom_labelLayer
10
214.5769052
20
178.0745129
40
3.4621033
50
89.5731327
51
100.7324493
0
ARC
8
bottom_labelLayer
10
214.3206135
20
179.369382
40
2.142184
50
100.4469563
51
119.670061
0
ARC
8
bottom_labelLayer
10
214.0829543
20
179.8137168
40
1.6385186
50
120.1403211
51
142.4248756
0
ARC
8
bottom_labelLayer
10
214.4761438
20
179.5536108
40
2.1090236
50
143.338247
51
161.2559862
0
ARC
8
bottom_labelLayer
10
216.1204026
20
178.9698453
40
3.8537421
50
160.8926525
51
171.2334072
0
ARC
8
bottom_labelLayer
10
218.8652487
20
178.5270372
40
6.6340375
50
171.0667712
51
177.8456987
0
ARC
8
bottom_labelLayer
10
221.7198298
20
178.3818482
40
9.492134
50
177.6176506
51
180.0425352
0
ARC
8
bottom_labelLayer
10
220.3737303
20
178.3429942
40
8.146094
50
179.7762823
51
185.7075373
0
ARC
8
bottom_labelLayer
10
217.1620267
20
178.0120739
40
4.9174123
50
185.5924926
51
194.2050542
0
ARC
8
bottom_labelLayer
10
215.1046235
20
177.4781079
40
2.7919145
50
193.9430451
51
208.0218393
0
ARC
8
bottom_labelLayer
10
214.2722038
20
177.0546353
40
1.8582097
50
208.5537059
51
217.5605392
0
ARC
8
bottom_labelLayer
10
214.2043753
20
177.0264202
40
1.7873425
50
218.1690389
51
253.804726
0
ARC
8
bottom_labelLayer
10
214.5358947
20
178.0485317
40
2.8615516
50
253.1382669
51
266.8482949
0
ARC
8
bottom_labelLayer
10
214.6288532
20
179.1448081
40
3.9614143
50
266.3775809
51
270.0510962
0
ARC
8
bottom_labelLayer
10
214.658667
20
177.6392933
40
2.4560388
50
269.3868886
51
285.8630865
0
ARC
8
bottom_labelLayer
10
214.8411346
20
176.9798318
40
1.771822
50
286.0163047
51
326.849722
0
ARC
8
bottom_labelLayer
10
213.9604518
20
177.5632523
40
2.8282084
50
326.7104911
51
343.6661912
0
ARC
8
bottom_labelLayer
10
212.3118596
20
178.0670104
40
4.551979
50
343.4171235
51
353.6369159
0
ARC
8
bottom_labelLayer
10
209.8218326
20
178.3624701
40
7.0594337
50
353.493476
51
0.2205589
0
ARC
8
bottom_labelLayer
10
209.6023373
20
178.4191085
40
7.2789364
50
359.7680798
51
6.3095334
0
ARC
8
bottom_labelLayer
10
212.3441507
20
178.7337492
40
4.5191666
50
6.1648691
51
16.0396322
0
ARC
8
bottom_labelLayer
10
214.1104082
20
179.2542649
40
2.6778763
50
15.7779242
51
32.0151559
0
ARC
8
bottom_labelLayer
10
214.6612381
20
179.5697105
40
2.0437393
50
32.7034301
51
35.524359
0
ARC
8
bottom_labelLayer
10
214.8626203
20
179.7128492
40
1.7966702
50
35.5408393
51
79.801129
0
ARC
8
bottom_labelLayer
10
214.6213457
20
178.6871436
40
2.8494376
50
78.6781327
51
90.3749573
0
ARC
8
bottom_labelLayer
10
220.9674119
20
178.3318987
40
6.3639468
50
349.1761933
51
0.386264
0
ARC
8
bottom_labelLayer
10
223.1099997
20
177.9047707
40
4.1793022
50
330.2507111
51
349.4116357
0
ARC
8
bottom_labelLayer
10
223.7693781
20
177.5620534
40
3.4368962
50
318.143985
51
329.756608
0
ARC
8
bottom_labelLayer
10
223.8883936
20
177.4666738
40
3.2846182
50
278.8959079
51
317.997923
0
ARC
8
bottom_labelLayer
10
223.5817522
20
178.9358179
40
4.7841088
50
269.7502867
51
279.8033232
0
ARC
8
bottom_labelLayer
10
223.5320204
20
178.1080445
40
3.9563954
50
253.5436923
51
270.4182558
0
ARC
8
bottom_labelLayer
10
223.4003216
20
177.5985997
40
3.4305585
50
238.8115681
51
253.2428327
0
ARC
8
bottom_labelLayer
10
223.3578163
20
177.5131204
40
3.3354313
50
207.7947061
51
238.6757962
0
ARC
8
bottom_labelLayer
10
223.9677242
20
177.8866584
40
4.0494148
50
205.6560055
51
208.4461141
0
ARC
8
bottom_labelLayer
10
224.4375027
20
178.0823998
40
4.5577071
50
188.9102463
51
205.3171422
0
ARC
8
bottom_labelLayer
10
226.0206933
20
178.3505409
40
6.1633551
50
179.774469
51
189.0932837
0
ARC
8
bottom_labelLayer
10
226.2542358
20
178.4181294
40
6.3969965
50
169.2442973
51
180.3880777
0
ARC
8
bottom_labelLayer
10
224.0818692
20
178.8475271
40
4.1826918
50
150.7111587
51
169.4695376
0
ARC
8
bottom_labelLayer
10
223.3883718
20
179.2036646
40
3.4037416
50
138.1759383
51
150.2287627
0
ARC
8
bottom_labelLayer
10
223.2730217
20
179.2921815
40
3.2587744
50
99.1759396
51
137.9832706
0
ARC
8
bottom_labelLayer
10
223.5905265
20
177.7979659
40
4.7850908
50
89.7326457
51
100.0759793
0
ARC
8
bottom_labelLayer
10
223.6539843
20
178.4432748
40
4.1399341
50
73.5222681
51
90.5692336
0
ARC
8
bottom_labelLayer
10
223.8967663
20
179.3253651
40
3.2252546
50
41.1445709
51
73.2133824
0
ARC
8
bottom_labelLayer
10
223.4333134
20
178.9270343
40
3.836348
50
13.501435
51
41.0703398
0
ARC
8
bottom_labelLayer
10
221.6427664
20
178.4584725
40
5.6869308
50
1.1277212
51
13.8799972
0
ARC
8
bottom_labelLayer
10
220.1006475
20
178.3758236
40
7.2305667
50
359.9919004
51
1.5420146
0
ARC
8
bottom_labelLayer
10
227.3728494
20
178.342785
40
6.2389832
50
179.7059754
51
187.9160893
0
ARC
8
bottom_labelLayer
10
225.0845864
20
178.0140776
40
3.9272689
50
187.763934
51
200.0976875
0
ARC
8
bottom_labelLayer
10
223.8239887
20
177.5521928
40
2.5847178
50
200.084588
51
216.9131565
0
ARC
8
bottom_labelLayer
10
223.3636632
20
177.2234991
40
2.0192976
50
217.3009559
51
261.7099067
0
ARC
8
bottom_labelLayer
10
223.5773607
20
178.2432348
40
3.0598682
50
260.5032986
51
270.2476999
0
ARC
8
bottom_labelLayer
10
223.61815
20
178.0449552
40
2.8616928
50
269.448177
51
284.7255795
0
ARC
8
bottom_labelLayer
10
223.844694
20
177.204779
40
1.9915353
50
284.5662293
51
322.6333796
0
ARC
8
bottom_labelLayer
10
223.3150246
20
177.5874411
40
2.6447992
50
323.0089295
51
342.6390572
0
ARC
8
bottom_labelLayer
10
221.8000542
20
178.0825771
40
4.2385471
50
342.3615744
51
353.7537611
0
ARC
8
bottom_labelLayer
10
219.5649542
20
178.3519891
40
6.4897375
50
353.5363095
51
0.201403
0
ARC
8
bottom_labelLayer
10
219.9074386
20
178.4061783
40
6.147293
50
359.7075509
51
7.8972852
0
ARC
8
bottom_labelLayer
10
222.1587374
20
178.728925
40
3.8730148
50
7.7439833
51
20.0690172
0
ARC
8
bottom_labelLayer
10
223.4132538
20
179.1892845
40
2.5367002
50
20.0257232
51
37.4350319
0
ARC
8
bottom_labelLayer
10
223.8294999
20
179.4846458
40
2.0267285
50
37.9577614
51
80.4006289
0
ARC
8
bottom_labelLayer
10
223.5929643
20
178.4292485
40
3.1073192
50
79.3453488
51
90.3175019
0
ARC
8
bottom_labelLayer
10
223.5491648
20
178.6045486
40
2.932092
50
89.4805842
51
103.8804895
0
ARC
8
bottom_labelLayer
10
223.3027946
20
179.5427298
40
1.9622544
50
103.4685342
51
142.311876
0
ARC
8
bottom_labelLayer
10
223.7817619
20
179.2058868
40
2.547354
50
142.9025826
51
162.3749487
0
ARC
8
bottom_labelLayer
10
225.2909695
20
178.7029466
40
4.1380608
50
162.0653003
51
173.1675038
0
ARC
8
bottom_labelLayer
10
227.6442861
20
178.402796
40
6.5103978
50
173.0086367
51
180.2463712
0
LINE
8
bottom_labelLayer
10
233.2316047
20
175.3169889
11
233.2316047
21
174.3744108
0
LINE
8
bottom_labelLayer
10
229.5800422
20
176.6380827
11
229.5800422
21
181.4771452
0
LINE
8
bottom_labelLayer
10
229.5800422
20
181.4771452
11
228.4148078
21
181.4771452
0
LINE
8
bottom_labelLayer
10
228.4148078
20
181.4771452
11
228.4148078
21
182.0708952
0
LINE
8
bottom_labelLayer
10
228.4148078
20
182.0708952
11
229.5800422
21
182.5830045
0
LINE
8
bottom_labelLayer
10
229.5800422
20
182.5830045
11
230.0995734
21
184.3197233
0
LINE
8
bottom_labelLayer
10
230.0995734
20
184.3197233
11
230.8120734
21
184.3197233
0
LINE
8
bottom_labelLayer
10
230.8120734
20
184.3197233
11
230.8120734
21
182.434567
0
LINE
8
bottom_labelLayer
10
230.8120734
20
182.434567
11
233.1722297
21
182.434567
0
LINE
8
bottom_labelLayer
10
233.1722297
20
182.434567
11
233.1722297
21
181.4771452
0
LINE
8
bottom_labelLayer
10
233.1722297
20
181.4771452
11
230.8120734
21
181.4771452
0
LINE
8
bottom_labelLayer
10
230.8120734
20
181.4771452
11
230.8120734
21
176.6900358
0
ARC
8
bottom_labelLayer
10
232.1267739
20
179.2146997
40
4.0461571
50
269.8803361
51
278.3028182
0
ARC
8
bottom_labelLayer
10
232.1652444
20
178.9002956
40
3.7295002
50
278.4154933
51
279.0080269
0
ARC
8
bottom_labelLayer
10
231.7113087
20
181.8002118
40
6.6647264
50
278.9589298
51
280.5103898
0
ARC
8
bottom_labelLayer
10
232.1440093
20
179.4785078
40
4.3030461
50
280.4846949
51
282.6268719
0
ARC
8
bottom_labelLayer
10
232.5233738
20
177.7931052
40
2.5754772
50
282.5877444
51
285.5793685
0
ARC
8
bottom_labelLayer
10
232.7150024
20
177.0885896
40
1.8453854
50
285.7229911
51
286.2567885
0
ARC
8
bottom_labelLayer
10
232.7136302
20
175.4699543
40
1.2118222
50
287.9887871
51
295.3048477
0
ARC
8
bottom_labelLayer
10
232.4213461
20
176.3542499
40
2.1431627
50
283.3068788
51
288.1197477
0
ARC
8
bottom_labelLayer
10
232.1125784
20
177.6422173
40
3.4676203
50
280.0069543
51
283.3734781
0
ARC
8
bottom_labelLayer
10
231.9057046
20
178.7650076
40
4.6092855
50
279.1864374
51
280.1141274
0
ARC
8
bottom_labelLayer
10
231.7791881
20
179.4845234
40
5.3397802
50
275.5259809
51
279.2940056
0
ARC
8
bottom_labelLayer
10
231.9220721
20
177.9920627
40
3.8404966
50
270.8932291
51
275.5483531
0
ARC
8
bottom_labelLayer
10
231.9400096
20
177.3120489
40
3.1602944
50
270.0034237
51
270.7602564
0
ARC
8
bottom_labelLayer
10
231.8904828
20
177.3692614
40
3.2178909
50
253.7848121
51
270.8852409
0
ARC
8
bottom_labelLayer
10
231.509248
20
176.0691031
40
1.8629976
50
190.381759
51
253.8772481
0
ARC
8
bottom_labelLayer
10
233.4523919
20
176.5944955
40
3.8725952
50
179.3551066
51
192.8477689
0
ARC
8
bottom_labelLayer
10
233.2929149
20
176.6745185
40
2.48089
50
179.6416287
51
189.7506129
0
ARC
8
bottom_labelLayer
10
232.4171222
20
176.518309
40
1.5913031
50
189.5479498
51
205.7873463
0
ARC
8
bottom_labelLayer
10
232.0571989
20
176.3523372
40
1.1950409
50
206.1294206
51
221.4084149
0
ARC
8
bottom_labelLayer
10
232.0168446
20
176.3217164
40
1.1445275
50
221.5949023
51
262.3505171
0
ARC
8
bottom_labelLayer
10
232.1128261
20
176.8152863
40
1.6467442
50
261.3265959
51
270.1912707
0
LINE
8
bottom_labelLayer
10
238.5976203
20
175.3169889
11
238.5976203
21
174.3744108
0
LINE
8
bottom_labelLayer
10
234.9460578
20
176.6380827
11
234.9460578
21
181.4771452
0
LINE
8
bottom_labelLayer
10
234.9460578
20
181.4771452
11
233.7808234
21
181.4771452
0
LINE
8
bottom_labelLayer
10
233.7808234
20
181.4771452
11
233.7808234
21
182.0708952
0
LINE
8
bottom_labelLayer
10
233.7808234
20
182.0708952
11
234.9460578
21
182.5830045
0
LINE
8
bottom_labelLayer
10
234.9460578
20
182.5830045
11
235.4655891
21
184.3197233
0
LINE
8
bottom_labelLayer
10
235.4655891
20
184.3197233
11
236.1780891
21
184.3197233
0
LINE
8
bottom_labelLayer
10
236.1780891
20
184.3197233
11
236.1780891
21
182.434567
0
LINE
8
bottom_labelLayer
10
236.1780891
20
182.434567
11
238.5382453
21
182.434567
0
LINE
8
bottom_labelLayer
10
238.5382453
20
182.434567
11
238.5382453
21
181.4771452
0
LINE
8
bottom_labelLayer
10
238.5382453
20
181.4771452
11
236.1780891
21
181.4771452
0
LINE
8
bottom_labelLayer
10
236.1780891
20
181.4771452
11
236.1780891
21
176.6900358
0
ARC
8
bottom_labelLayer
10
237.4927896
20
179.2146997
40
4.0461571
50
269.8803361
51
278.3028182
0
ARC
8
bottom_labelLayer
10
237.53126
20
178.9002956
40
3.7295002
50
278.4154933
51
279.0080269
0
ARC
8
bottom_labelLayer
10
237.0773243
20
181.8002118
40
6.6647264
50
278.9589298
51
280.5103898
0
ARC
8
bottom_labelLayer
10
237.5100249
20
179.4785078
40
4.3030461
50
280.4846949
51
282.6268719
0
ARC
8
bottom_labelLayer
10
237.8893894
20
177.7931052
40
2.5754772
50
282.5877444
51
285.5793685
0
ARC
8
bottom_labelLayer
10
238.081018
20
177.0885896
40
1.8453854
50
285.7229911
51
286.2567885
0
ARC
8
bottom_labelLayer
10
238.0796459
20
175.4699543
40
1.2118222
50
287.9887871
51
295.3048477
0
ARC
8
bottom_labelLayer
10
237.7873617
20
176.3542499
40
2.1431627
50
283.3068788
51
288.1197477
0
ARC
8
bottom_labelLayer
10
237.478594
20
177.6422173
40
3.4676203
50
280.0069543
51
283.3734781
0
ARC
8
bottom_labelLayer
10
237.2717203
20
178.7650076
40
4.6092855
50
279.1864374
51
280.1141274
0
ARC
8
bottom_labelLayer
10
237.1452037
20
179.4845234
40
5.3397802
50
275.5259809
51
279.2940056
0
ARC
8
bottom_labelLayer
10
237.2880878
20
177.9920627
40
3.8404966
50
270.8932291
51
275.5483531
0
ARC
8
bottom_labelLayer
10
237.3060252
20
177.3120489
40
3.1602944
50
270.0034237
51
270.7602564
0
ARC
8
bottom_labelLayer
10
237.2564984
20
177.3692614
40
3.2178909
50
253.7848121
51
270.8852409
0
ARC
8
bottom_labelLayer
10
236.8752637
20
176.0691031
40
1.8629976
50
190.381759
51
253.8772481
0
ARC
8
bottom_labelLayer
10
238.8184075
20
176.5944955
40
3.8725952
50
179.3551066
51
192.8477689
0
ARC
8
bottom_labelLayer
10
238.6589305
20
176.6745185
40
2.48089
50
179.6416287
51
189.7506129
0
ARC
8
bottom_labelLayer
10
237.7831378
20
176.518309
40
1.5913031
50
189.5479498
51
205.7873463
0
ARC
8
bottom_labelLayer
10
237.4232146
20
176.3523372
40
1.1950409
50
206.1294206
51
221.4084149
0
ARC
8
bottom_labelLayer
10
237.3828603
20
176.3217164
40
1.1445275
50
221.5949023
51
262.3505171
0
ARC
8
bottom_labelLayer
10
237.4788417
20
176.8152863
40
1.6467442
50
261.3265959
51
270.1912707
0
ARC
8
bottom_labelLayer
10
240.8803025
20
178.3318987
40
6.3639468
50
349.1761933
51
0.386264
0
ARC
8
bottom_labelLayer
10
243.0228904
20
177.9047707
40
4.1793022
50
330.2507111
51
349.4116357
0
ARC
8
bottom_labelLayer
10
243.6822687
20
177.5620534
40
3.4368962
50
318.143985
51
329.756608
0
ARC
8
bottom_labelLayer
10
243.8012842
20
177.4666738
40
3.2846182
50
278.8959079
51
317.997923
0
ARC
8
bottom_labelLayer
10
243.4946428
20
178.9358179
40
4.7841088
50
269.7502867
51
279.8033232
0
ARC
8
bottom_labelLayer
10
243.444911
20
178.1080445
40
3.9563954
50
253.5436923
51
270.4182558
0
ARC
8
bottom_labelLayer
10
243.3132122
20
177.5985997
40
3.4305585
50
238.8115681
51
253.2428327
0
ARC
8
bottom_labelLayer
10
243.2707069
20
177.5131204
40
3.3354313
50
207.7947061
51
238.6757962
0
ARC
8
bottom_labelLayer
10
243.8806148
20
177.8866584
40
4.0494148
50
205.6560055
51
208.4461141
0
ARC
8
bottom_labelLayer
10
244.3503933
20
178.0823998
40
4.5577071
50
188.9102463
51
205.3171422
0
ARC
8
bottom_labelLayer
10
245.9335839
20
178.3505409
40
6.1633551
50
179.774469
51
189.0932837
0
ARC
8
bottom_labelLayer
10
246.1671264
20
178.4181294
40
6.3969965
50
169.2442973
51
180.3880777
0
ARC
8
bottom_labelLayer
10
243.9947598
20
178.8475271
40
4.1826918
50
150.7111587
51
169.4695376
0
ARC
8
bottom_labelLayer
10
243.3012625
20
179.2036646
40
3.4037416
50
138.1759383
51
150.2287627
0
ARC
8
bottom_labelLayer
10
243.1859123
20
179.2921815
40
3.2587744
50
99.1759396
51
137.9832706
0
ARC
8
bottom_labelLayer
10
243.5034171
20
177.7979659
40
4.7850908
50
89.7326457
51
100.0759793
0
ARC
8
bottom_labelLayer
10
243.5668749
20
178.4432748
40
4.1399341
50
73.5222681
51
90.5692336
0
ARC
8
bottom_labelLayer
10
243.8096569
20
179.3253651
40
3.2252546
50
41.1445709
51
73.2133824
0
ARC
8
bottom_labelLayer
10
243.3462041
20
178.9270343
40
3.836348
50
13.501435
51
41.0703398
0
ARC
8
bottom_labelLayer
10
241.555657
20
178.4584725
40
5.6869308
50
1.1277212
51
13.8799972
0
ARC
8
bottom_labelLayer
10
240.0135381
20
178.3758236
40
7.2305667
50
359.9919004
51
1.5420146
0
ARC
8
bottom_labelLayer
10
247.2857401
20
178.342785
40
6.2389832
50
179.7059754
51
187.9160893
0
ARC
8
bottom_labelLayer
10
244.997477
20
178.0140776
40
3.9272689
50
187.763934
51
200.0976875
0
ARC
8
bottom_labelLayer
10
243.7368793
20
177.5521928
40
2.5847178
50
200.084588
51
216.9131565
0
ARC
8
bottom_labelLayer
10
243.2765538
20
177.2234991
40
2.0192976
50
217.3009559
51
261.7099067
0
ARC
8
bottom_labelLayer
10
243.4902514
20
178.2432348
40
3.0598682
50
260.5032986
51
270.2476999
0
ARC
8
bottom_labelLayer
10
243.5310406
20
178.0449552
40
2.8616928
50
269.448177
51
284.7255795
0
ARC
8
bottom_labelLayer
10
243.7575846
20
177.204779
40
1.9915353
50
284.5662293
51
322.6333796
0
ARC
8
bottom_labelLayer
10
243.2279152
20
177.5874411
40
2.6447992
50
323.0089295
51
342.6390572
0
ARC
8
bottom_labelLayer
10
241.7129448
20
178.0825771
40
4.2385471
50
342.3615744
51
353.7537611
0
ARC
8
bottom_labelLayer
10
239.4778448
20
178.3519891
40
6.4897375
50
353.5363095
51
0.201403
0
ARC
8
bottom_labelLayer
10
239.8203292
20
178.4061783
40
6.147293
50
359.7075509
51
7.8972852
0
ARC
8
bottom_labelLayer
10
242.071628
20
178.728925
40
3.8730148
50
7.7439833
51
20.0690172
0
ARC
8
bottom_labelLayer
10
243.3261444
20
179.1892845
40
2.5367002
50
20.0257232
51
37.4350319
0
ARC
8
bottom_labelLayer
10
243.7423905
20
179.4846458
40
2.0267285
50
37.9577614
51
80.4006289
0
ARC
8
bottom_labelLayer
10
243.5058549
20
178.4292485
40
3.1073192
50
79.3453488
51
90.3175019
0
ARC
8
bottom_labelLayer
10
243.4620554
20
178.6045486
40
2.932092
50
89.4805842
51
103.8804895
0
ARC
8
bottom_labelLayer
10
243.2156852
20
179.5427298
40
1.9622544
50
103.4685342
51
142.311876
0
ARC
8
bottom_labelLayer
10
243.6946526
20
179.2058868
40
2.547354
50
142.9025826
51
162.3749487
0
ARC
8
bottom_labelLayer
10
245.2038601
20
178.7029466
40
4.1380608
50
162.0653003
51
173.1675038
0
ARC
8
bottom_labelLayer
10
247.5571767
20
178.402796
40
6.5103978
50
173.0086367
51
180.2463712
0
LINE
8
bottom_labelLayer
10
261.0042609
20
174.300192
11
259.7722297
21
174.300192
0
LINE
8
bottom_labelLayer
10
259.7722297
20
174.300192
11
259.7722297
21
179.5919889
0
LINE
8
bottom_labelLayer
10
255.8163703
20
178.8423795
11
255.8163703
21
174.300192
0
LINE
8
bottom_labelLayer
10
255.8163703
20
174.300192
11
254.5843391
21
174.300192
0
LINE
8
bottom_labelLayer
10
254.5843391
20
174.300192
11
254.5843391
21
179.5919889
0
LINE
8
bottom_labelLayer
10
250.6359016
20
178.5677702
11
250.6359016
21
174.300192
0
LINE
8
bottom_labelLayer
10
250.6359016
20
174.300192
11
249.4038703
21
174.300192
0
LINE
8
bottom_labelLayer
10
249.4038703
20
174.300192
11
249.4038703
21
182.434567
0
LINE
8
bottom_labelLayer
10
249.4038703
20
182.434567
11
250.4058234
21
182.434567
0
LINE
8
bottom_labelLayer
10
250.4058234
20
182.434567
11
250.6062141
21
181.3212858
0
LINE
8
bottom_labelLayer
10
250.6062141
20
181.3212858
11
250.6655891
21
181.3212858
0
LINE
8
bottom_labelLayer
10
255.5640266
20
181.2025358
11
255.6234016
21
181.2025358
0
LINE
8
bottom_labelLayer
10
261.0042609
20
179.6068327
11
261.0042609
21
174.300192
0
ARC
8
bottom_labelLayer
10
256.1376747
20
179.6113461
40
3.6346065
50
359.694852
51
8.1471302
0
ARC
8
bottom_labelLayer
10
257.4764142
20
179.809462
40
2.2813112
50
7.9864878
51
20.7949232
0
ARC
8
bottom_labelLayer
10
258.2164408
20
180.0929382
40
1.488853
50
20.7070902
51
40.0217583
0
ARC
8
bottom_labelLayer
10
258.3787816
20
180.1991549
40
1.2964316
50
41.0408196
51
73.1792652
0
ARC
8
bottom_labelLayer
10
258.1438728
20
179.4886694
40
2.0445871
50
72.6395548
51
86.2567916
0
ARC
8
bottom_labelLayer
10
258.068619
20
178.6766468
40
2.8598755
50
85.8144189
51
90.0685284
0
ARC
8
bottom_labelLayer
10
258.0409715
20
178.3664044
40
3.1702083
50
89.5621374
51
101.2961803
0
ARC
8
bottom_labelLayer
10
257.8022021
20
179.5094748
40
2.0025377
50
101.003243
51
121.7840294
0
ARC
8
bottom_labelLayer
10
257.6206769
20
179.8335492
40
1.6315312
50
122.3597084
51
140.2883806
0
ARC
8
bottom_labelLayer
10
257.9472553
20
179.5940911
40
2.0359003
50
140.9765086
51
161.1699645
0
ARC
8
bottom_labelLayer
10
259.1775739
20
179.1562487
40
3.3417361
50
160.8731879
51
172.5272334
0
ARC
8
bottom_labelLayer
10
261.2333809
20
178.872328
40
5.4170264
50
172.3776591
51
180.1829685
0
ARC
8
bottom_labelLayer
10
262.7051217
20
178.8422783
40
6.8887515
50
179.8939466
51
179.9991583
0
ARC
8
bottom_labelLayer
10
250.9497841
20
179.6113461
40
3.6346065
50
359.694852
51
8.1471302
0
ARC
8
bottom_labelLayer
10
252.2885236
20
179.809462
40
2.2813112
50
7.9864878
51
20.7949232
0
ARC
8
bottom_labelLayer
10
253.0285502
20
180.0929382
40
1.488853
50
20.7070902
51
40.0217583
0
ARC
8
bottom_labelLayer
10
253.1942666
20
180.2014876
40
1.2923539
50
41.0610785
51
72.8993595
0
ARC
8
bottom_labelLayer
10
252.9549081
20
179.4888903
40
2.0439213
50
72.3601108
51
85.9561789
0
ARC
8
bottom_labelLayer
10
252.8738839
20
178.6515265
40
2.8849963
50
85.5237827
51
90.0793985
0
ARC
8
bottom_labelLayer
10
252.846244
20
178.4766032
40
3.0600083
50
89.5573229
51
101.4832288
0
ARC
8
bottom_labelLayer
10
252.6113778
20
179.577001
40
1.9349116
50
101.1546418
51
123.0655732
0
ARC
8
bottom_labelLayer
10
252.4517263
20
179.855106
40
1.6148407
50
123.7020488
51
142.3022434
0
ARC
8
bottom_labelLayer
10
252.825696
20
179.6013987
40
2.0660733
50
143.0769732
51
161.391397
0
ARC
8
bottom_labelLayer
10
254.333153
20
179.0690003
40
3.6646861
50
161.0234667
51
171.4469052
0
ARC
8
bottom_labelLayer
10
256.8286935
20
178.678082
40
6.1906313
50
171.3041962
51
178.350159
0
ARC
8
bottom_labelLayer
10
259.2140379
20
178.571555
40
8.5781373
50
178.0976417
51
180.0252803
0
ARC
8
bottom_labelLayer
10
252.752816
20
180.0938937
40
2.4213649
50
117.1209513
51
149.5423783
0
ARC
8
bottom_labelLayer
10
252.9999376
20
179.6546679
40
2.9250179
50
93.8343281
51
117.5072236
0
ARC
8
bottom_labelLayer
10
253.0681949
20
179.0500206
40
3.5329845
50
89.9662415
51
94.2830807
0
ARC
8
bottom_labelLayer
10
253.109088
20
178.5495144
40
4.0336769
50
77.5572203
51
90.5512996
0
ARC
8
bottom_labelLayer
10
253.4833686
20
180.1593645
40
2.3810681
50
52.7027117
51
78.0053717
0
ARC
8
bottom_labelLayer
10
253.6167177
20
180.4074653
40
2.1033661
50
22.2097976
51
51.4970503
0
ARC
8
bottom_labelLayer
10
257.855279
20
179.923442
40
2.5724226
50
119.4041645
51
150.1828844
0
ARC
8
bottom_labelLayer
10
258.1403185
20
179.4900465
40
3.0901367
50
118.2581711
51
120.0630939
0
ARC
8
bottom_labelLayer
10
258.1397627
20
179.4578754
40
3.1182503
50
95.8635287
51
117.9693099
0
ARC
8
bottom_labelLayer
10
258.2452972
20
178.6947642
40
3.8882442
50
89.9197181
51
96.2617388
0
ARC
8
bottom_labelLayer
10
258.2791762
20
178.3004873
40
4.2826116
50
79.9361093
51
90.3803709
0
ARC
8
bottom_labelLayer
10
258.5645326
20
179.8459507
40
2.7110843
50
62.9723112
51
80.1665087
0
ARC
8
bottom_labelLayer
10
258.8628373
20
180.4579547
40
2.0304011
50
44.2289748
51
62.6229177
0
ARC
8
bottom_labelLayer
10
258.7741134
20
180.4187571
40
2.1215877
50
19.5612075
51
43.3161285
0
ARC
8
bottom_labelLayer
10
257.4855768
20
179.9347818
40
3.4978837
50
7.504194
51
19.9645339
0
ARC
8
bottom_labelLayer
10
255.3534127
20
179.6353631
40
5.6509201
50
359.7107231
51
7.6907174
0
ENDSEC
0
EOF